<?xml version="1.0" encoding="UTF-8"?>
<svg viewBox="-22 -22 44 44" height="44mm" width="44mm" xmlns:svgjs="http://svgjs.com/svgjs" xmlns:xlink="http://www.w3.org/1999/xlink" version="1.1" xmlns="http://www.w3.org/2000/svg" id="SvgjsSvg1382">
  <defs id="SvgjsDefs1383">
  </defs>
  <defs id="SvgjsDefs1383">
  </defs>
  <g id="SvgjsG1384">
    <g transform="matrix(1,0,0,1,11,0)" id="SvgjsG1385">
      <g fill="none" stroke-width="0.04" stroke="blue" id="SvgjsG1386">
      </g>
      <g fill="none" stroke-width="0.1" stroke="black" id="SvgjsG1387">
        <path d="M6.702125530957301 -3.0644715987899636  L6.612377026808062 -2.924073667170676 L6.522349764205708 -2.795420299984556 L6.433459745796653 -2.6791179924956765 L6.347913198172099 -2.576369684531409 L6.263750251690647 -2.4834686374998487 L6.183564347638251 -2.402094304376314 L6.108166358527659 -2.331756495638203 L6.038177207655009 -2.2717328164763475 L5.9735809622806055 -2.2208761199307605 L5.865291775420322 -2.1459228144056635 L5.763717077619672 -2.0895667946144587 L5.599739012563992 -2.039478809222798 L5.50251319188511 -1.9999937842979247 L5.418436309606766 -1.9564268947331025 L5.3476475805818655 -1.9098011846254894 L5.290240202520688 -1.8611592537001953 L5.246246723467826 -1.8115390521606467 L5.21560991354766 -1.7619667012186584 L5.198260440309755 -1.713475638347577 L5.194498292761867 -1.6899620349268352 L5.1939979625541195 -1.6670876088207398 L5.199271033037109 -1.6342863934822585 L5.251772684062382 -1.456546049610586 L5.2916329049719835 -1.3042703703671896 L5.3271044688668185 -1.1509129843212131 L5.363216622013942 -0.9691329920363672 L5.373791034820076 -0.9376384402248956 L5.384864331076048 -0.917616656837108 L5.399122863659588 -0.8985447521455432 L5.437019979833223 -0.8636707505724237 L5.487184947959254 -0.834014249212446 L5.549198896532968 -0.8105225318998132 L5.622635637788127 -0.7941307798939102 L5.706983992351559 -0.7857429266261631 L5.8016769174977005 -0.7862388371699657 L5.9061157122982095 -0.7964596757176181 L6.0745881255292105 -0.8283133737780174 L6.190718002031828 -0.8256167122333691 L6.321435852949142 -0.8095733506292969 L6.402267272988814 -0.7945613542807006 L6.492133982937188 -0.773938606087148 L6.5915831963086795 -0.7466967621739409 L6.700400826436439 -0.7119076162606224 L6.818096683797863 -0.668760295834445 L6.941593909465138 -0.6175366503912889 L7.074350489138102 -0.5558653227459729 L7.213853872175267 -0.4837861785974311 L7.358568398098071 -0.4011781935903034 L7.493275748600465 -0.3168722865543443 A7.5 7.5 0 0 1 7.493275748600465 0.3168722865543452 L7.358568398098072 0.40117819359030427 L7.213853872175267 0.483786178597432 L7.074350489138102 0.5558653227459738 L6.941593909465138 0.6175366503912898 L6.818096683797863 0.6687602958344456 L6.700400826436439 0.711907616260623 L6.5915831963086795 0.7466967621739415 L6.492133982937188 0.7739386060871489 L6.402267272988814 0.7945613542807013 L6.321435852949142 0.8095733506292976 L6.190718002031828 0.8256167122333697 L6.0745881255292105 0.8283133737780181 L5.9061157122982095 0.7964596757176188 L5.8016769174977005 0.7862388371699663 L5.706983992351559 0.7857429266261637 L5.622635637788127 0.7941307798939109 L5.549198896532968 0.8105225318998136 L5.487184947959254 0.8340142492124467 L5.437019979833223 0.8636707505724244 L5.399122863659588 0.8985447521455439 L5.384864331076048 0.9176166568371085 L5.373791034820076 0.9376384402248963 L5.363216622013942 0.9691329920363676 L5.3271044688668185 1.1509129843212138 L5.2916329049719835 1.30427037036719 L5.251772684062382 1.4565460496105866 L5.199271033037109 1.634286393482259 L5.1939979625541195 1.6670876088207405 L5.194498292761867 1.6899620349268356 L5.198260440309755 1.7134756383475778 L5.21560991354766 1.761966701218659 L5.246246723467826 1.8115390521606474 L5.290240202520688 1.8611592537001957 L5.3476475805818655 1.9098011846254903 L5.418436309606766 1.9564268947331032 L5.50251319188511 1.9999937842979256 L5.599739012563992 2.039478809222799 L5.763717077619672 2.0895667946144596 L5.865291775420322 2.145922814405664 L5.9735809622806055 2.2208761199307614 L6.038177207655009 2.271732816476348 L6.108166358527659 2.3317564956382038 L6.183564347638251 2.4020943043763143 L6.263750251690647 2.483468637499849 L6.347913198172099 2.57636968453141 L6.433459745796653 2.6791179924956774 L6.522349764205708 2.7954202999845568 L6.612377026808062 2.924073667170677 L6.7021255309573 3.0644715987899644 L6.782224057619646 3.201722399396198 A7.5 7.5 0 0 1 6.487708269339052 3.762875350380308 L6.329251925597151 3.7749228965403736 L6.162723731790599 3.780816441104349 L6.005702772174424 3.7798088989387337 L5.859492563750406 3.7727210887970113 L5.726336386137874 3.7606853518598764 L5.602070320429138 3.744194414552613 L5.48954977189368 3.724428599181631 L5.388831950551754 3.7023337001292274 L5.299675061765569 3.6788310942743916 L5.221125971267507 3.654559322976702 L5.0979253406174445 3.608017399859723 L4.993844240602881 3.556436930496231 L4.859472478755106 3.4499388473307326 L4.771746379097849 3.3923536162473646 L4.688130419061436 3.3479085127241524 L4.609545630482086 3.3161369530529825 L4.536902998445832 3.2965233732969677 L4.471075228620406 3.288504937052245 L4.4128742919327815 3.291451641768226 L4.363111305429038 3.304719368560261 L4.341622845790788 3.3149804309991784 L4.32251334221115 3.327562822383163 L4.29851391665429 3.350535688398111 L4.182060818422153 3.4947117235500604 L4.079383577532501 3.6140184874123347 L3.973323068061115 3.73032793685936 L3.8442351083998507 3.8633104615402054 L3.824322551528005 3.8899039772691477 L3.814135296066565 3.910390790739362 L3.806539195914373 3.932959409715229 L3.7993664709815627 3.983958815761165 L3.803456598756738 4.042090588095946 L3.8193512324166328 4.106471883677953 L3.8475779088039177 4.176220713346468 L3.8885901675673447 4.250402892009012 L3.942790006484196 4.328051932321094 L4.010529589222075 4.40819727735434 L4.132447907548087 4.528752392370491 L4.196197887488446 4.62585728543775 L4.257250662608182 4.742549635873324 L4.290813511971189 4.817600376326942 L4.324891432763893 4.903274284924869 L4.358965426952619 5.000594514168468 L4.392149980656147 5.10991215545064 L4.4234992994921845 5.231284418791638 L4.451497485960889 5.3620189901737465 L4.476157311129371 5.5063088204552315 L4.496084292380843 5.6620634746977405 L4.5103064740426495 5.828087878773704 L4.5174465696984925 5.986841068582778 A7.5 7.5 0 0 1 3.9958850109323776 6.346849018998009 L3.8499801126962856 6.28387825664558 L3.6997878533247768 6.211707220731707 L3.5612209266699573 6.137843808019879 L3.435052086220804 6.063620591977213 L3.322741432248149 5.9910827149457315 L3.220373016277537 5.918731394904783 L3.1299266509842454 5.848938728347095 L3.051013460759994 5.782568761429588 L2.982991161899927 5.720324965290602 L2.924719050957422 5.662329796644373 L2.8372594203279884 5.563864782501465 L2.769070822501586 5.469823646148968 L2.6995826633210878 5.313078605290554 L2.6486662510244514 5.221321064135404 L2.5952826648605534 5.143108605228389 L2.540464270279447 5.078456114050166 L2.4852572990229866 5.027330437285078 L2.430696056702229 4.989638774594033 L2.3777922846508237 4.965200628127228 L2.327563528315979 4.953822603823563 L2.303767888762133 4.952922138264285 L2.2809999348344387 4.955182663412651 L2.249073475697499 4.964371036880097 L2.0789574337733594 5.037914122755417 L1.9325966343818186 5.095838522635511 L1.7846330209008447 5.149536649098666 L1.6085312484834284 5.207296660797457 L1.5785409320297403 5.221590222949966 L1.5599998683555931 5.23499614171114 L1.5427856955052568 5.251449577616104 L1.5127339572431318 5.29327397752124 L1.4893404038914069 5.346647882770716 L1.4734949231379533 5.411041293456065 L1.4660745064593443 5.485918405555262 L1.467914880729895 5.570662809633315 L1.479821146368268 5.6646055413295375 L1.5025561691103664 5.767050873780149 L1.5544847232532326 5.930455394417222 L1.5658056331995076 6.046063599999647 L1.5656355415644638 6.17776218415618 L1.5604761506031903 6.259813748339375 L1.5508360003458066 6.351511026396113 L1.5357800581801744 6.453518784461396 L1.514361080198583 6.565736379704853 L1.4857150202441147 6.687774936518201 L1.4497507984517166 6.816546056536889 L1.4045311616166334 6.95576834837445 L1.3497928302586697 7.102942775433453 L1.2852305590101925 7.256559461803255 L1.2177765137922596 7.400446598213247 A7.5 7.5 0 0 1 0.5886526521557804 7.476836065185595 L0.4887242532667496 7.353272837095661 L0.3892751649393571 7.21957073527654 L0.3009062842300202 7.089772669720157 L0.2236825726032763 6.965417692085205 L0.157946459605527 6.8489952284111055 L0.10092706379875827 6.737358341129924 L0.05327505403946331 6.633527482201087 L0.014244555806225523 6.538087006994468 L-0.017060064216448678 6.451361324147713 L-0.04170575724153336 6.372928752372249 L-0.07338844047594306 6.245097795311495 L-0.0900633501138407 6.1301396829898 L-0.07874900678190999 5.9590560843166145 L-0.08119139527005237 5.854146779970084 L-0.0921130713132422 5.760084497452554 L-0.11060683833084228 5.677362181349228 L-0.1357308970087825 5.60643668399075 L-0.16652628874343606 5.547706500542124 L-0.20201327954121256 5.5014819877364864 L-0.2412010029529782 5.468064780585037 L-0.26185252816917914 5.4562090728354065 L-0.2830630685836834 5.447629872678942 L-0.315602594267973 5.440928807969401 L-0.5004100447998415 5.426991109884318 L-0.6569249073915113 5.410263363834394 L-0.8128949441884269 5.389048573673547 L-0.9956677355575858 5.35835394979369 L-1.0288653915160693 5.357073075536723 L-1.0515127291592172 5.360326965159507 L-1.0744014151609567 5.366895934113138 L-1.12044767567925 5.389963861897867 L-1.1659657290078749 5.42635258159467 L-1.2099213154928046 5.476006353020069 L-1.2512888972019522 5.538858303535045 L-1.2890420149907476 5.614751011335106 L-1.3221569046025476 5.70346628671651 L-1.3496347615797206 5.804742615520144 L-1.3795921775672126 5.973562535338134 L-1.4232938216519588 6.081189606766702 L-1.4846478140980188 6.197723866153926 L-1.527347491091746 6.267979229540869 L-1.5784972701516562 6.344693135725617 L-1.6392340137652728 6.428019674566576 L-1.710349693703069 6.517429525069667 L-1.7924286653349197 6.6121768127134715 L-1.8841163255916398 6.709484569632681 L-1.9888561505870688 6.811745173776833 L-2.1057199025087643 6.91662348605723 L-2.234276188384212 7.022640723155309 L-2.360871465625861 7.118698997242659 A7.5 7.5 0 0 1 -2.9534329351962203 6.893970074481633 L-2.9844924428204678 6.7381212271112725 L-3.0104157724593748 6.5735175996286666 L-3.02834236161318 6.417520053810437 L-3.0389299227304396 6.271521541319425 L-3.043032143471539 6.13788547438766 L-3.0416400626933444 6.0125376853720285 L-3.035581215751759 5.898455032555141 L-3.0257876052172423 5.7958083117468355 L-3.0132030352168977 5.704468550974726 L-2.9985762790653134 5.623566533048828 L-2.9672238939934195 5.495654164802815 L-2.9285650945992163 5.386114594649383 L-2.8390402284595835 5.239885628836584 L-2.7924490713705707 5.145858018630289 L-2.7584068129320216 5.057494447853621 L-2.736339253236437 4.975652992532484 L-2.7256247802704703 4.901175851280542 L-2.725599468297313 4.83486152432698 L-2.73554003591429 4.777440124000513 L-2.754709291232604 4.729639213438671 L-2.7674856865619866 4.709544263267364 L-2.7822797342690593 4.692090729171346 L-2.8079779133102223 4.671035359453188 L-2.965139612704185 4.5728098360715235 L-3.0959528696847998 4.485262069120427 L-3.2241984740101897 4.393994415095491 L-3.3717712404793305 4.281876924057543 L-3.400571053037645 4.265315046247164 L-3.422136432525754 4.257671479832598 L-3.4454561095544673 4.252851110212277 L-3.496948248961783 4.251877981619783 L-3.554163164801728 4.262945298612987 L-3.616159161876678 4.286484350137694 L-3.681997094180202 4.322912514653582 L-3.7506949197173207 4.372567421424932 L-3.8212447424469125 4.435731640036606 L-3.8926406332539596 4.512637778776423 L-3.9976211363950753 4.648198488645612 L-4.0863338145129315 4.723188360902855 L-4.194816247496378 4.797861701085224 L-4.265274229110188 4.840226206592879 L-4.34621583901166 4.884382509501499 L-4.43871932806849 4.929938723263325 L-4.543239964725592 4.976058109781296 L-4.6599485447928055 5.021808666484957 L-4.786355105505122 5.065361025880096 L-4.92662048700617 5.107233270295287 L-5.078837582287219 5.145789110374317 L-5.2419371869667675 5.179919626827712 L-5.398672243854547 5.206143245626706 A7.5 7.5 0 0 1 -5.818922629820058 4.731778621059744 L-5.773997887290452 4.579347247159293 L-5.720456735830589 4.4215508013807145 L-5.663834267892544 4.275090933073368 L-5.605360195842298 4.140895385465176 L-5.546888754992081 4.020660127720621 L-5.487404106558817 3.910317104829408 L-5.429022411733647 3.812117619039813 L-5.372648290579031 3.725779779339918 L-5.319057503882236 3.650750779071897 L-5.268509112116792 3.5859129923273825 L-5.1813041123213655 3.487222394950126 L-5.096167868947236 3.4081955623921854 L-4.948941547940898 3.3203205232574082 L-4.863990317879511 3.258715199534069 L-4.792782796113808 3.1962933696667317 L-4.735209321688372 3.1340816662453994 L-4.691110873711605 3.073114696613964 L-4.6602706566986445 3.0144080392862516 L-4.642387536890599 2.9589443022508592 L-4.637146878736605 2.907710300824922 L-4.639121225981463 2.883979619145781 L-4.644109642939017 2.8616501454337206 L-4.657079332215353 2.8310640021646636 L-4.750591429144048 2.671052937147277 L-4.825735339809994 2.532741287638538 L-4.896876989239987 2.39232908939216 L-4.975442588455657 2.224473497230676 L-4.993246867632059 2.196424742480977 L-5.008789920415398 2.1796347689796782 L-5.027198331496381 2.1645293493736704 L-5.072340121202053 2.1397380964370227 L-5.128144651848869 2.122948621779113 L-5.1939785237167255 2.114980440375139 L-5.269204129756985 2.116639565408322 L-5.35310881911042 2.1286813304161436 L-5.444931460787985 2.1518243309855043 L-5.54388944725477 2.186742010095656 L-5.699843269432091 2.2579881850686654 L-5.8132439761299235 2.283161582146378 L-5.944002831609291 2.2988672407994155 L-6.026078043366185 2.303635690763617 L-6.118268736732935 2.3051187135408817 L-6.221347536677949 2.302468222662629 L-6.335328711806435 2.294731749543074 L-6.459930371106473 2.28100467411976 L-6.592097612579391 2.2608243153162286 L-6.735755442065259 2.2327157734221874 L-6.888454778591632 2.196116462985988 L-7.048733548206508 2.150541368792539 L-7.199702272069626 2.1009228172651904 A7.5 7.5 0 0 1 -7.351367275571767 1.4855937096671419 L-7.24075 1.3714999999999988 L-7.12001 1.256659999999999 L-7.00181 1.1532899999999988 L-6.88767 1.0616399999999988 L-6.78002 0.9823499999999988 L-6.67607 0.9122899999999989 L-6.57874 0.8524699999999988 L-6.4887 0.802219999999999 L-6.40638 0.760689999999999 L-6.33149 0.726769999999999 L-6.20841 0.679909999999999 L-6.0963 0.649499999999999 L-5.9251 0.640109999999999 L-5.82125 0.6250399999999992 L-5.72919 0.6028599999999991 L-5.6493 0.5745299999999991 L-5.58192 0.5410399999999991 L-5.52733 0.5033899999999991 L-5.48572 0.4625899999999991 L-5.45727 0.4196599999999991 L-5.44799 0.3977299999999991 L-5.44203 0.3756399999999991 L-5.4393 0.3425299999999991 L-5.44774 0.15738999999999911 L-5.45 -8.764268440737669e-16 L-5.44774 -0.1573900000000009 L-5.4393 -0.3425300000000009 L-5.44203 -0.37564000000000086 L-5.44799 -0.39773000000000086 L-5.45727 -0.41966000000000087 L-5.48572 -0.4625900000000009 L-5.52733 -0.5033900000000009 L-5.58192 -0.5410400000000009 L-5.6493 -0.5745300000000009 L-5.72919 -0.6028600000000008 L-5.82125 -0.6250400000000009 L-5.9251 -0.640110000000001 L-6.0963 -0.649500000000001 L-6.20841 -0.679910000000001 L-6.33149 -0.726770000000001 L-6.40638 -0.760690000000001 L-6.4887 -0.802220000000001 L-6.57874 -0.8524700000000011 L-6.67607 -0.9122900000000012 L-6.78002 -0.9823500000000011 L-6.88767 -1.061640000000001 L-7.00181 -1.153290000000001 L-7.12001 -1.2566600000000012 L-7.24075 -1.371500000000001 L-7.351367275571767 -1.485593709667144 A7.5 7.5 0 0 1 -7.199702272069626 -2.100922817265194 L-7.048733548206507 -2.1505413687925428 L-6.8884547785916315 -2.1961164629859926 L-6.735755442065258 -2.2327157734221914 L-6.59209761257939 -2.260824315316232 L-6.459930371106472 -2.281004674119764 L-6.335328711806434 -2.294731749543078 L-6.221347536677948 -2.3024682226626325 L-6.118268736732933 -2.3051187135408853 L-6.0260780433661845 -2.3036356907636204 L-5.944002831609291 -2.298867240799419 L-5.813243976129923 -2.2831615821463815 L-5.69984326943209 -2.257988185068669 L-5.543889447254769 -2.1867420100956587 L-5.444931460787985 -2.1518243309855074 L-5.353108819110418 -2.1286813304161463 L-5.269204129756984 -2.116639565408325 L-5.1939785237167255 -2.114980440375142 L-5.128144651848869 -2.122948621779116 L-5.0723401212020525 -2.1397380964370254 L-5.02719833149638 -2.164529349373673 L-5.008789920415398 -2.1796347689796813 L-4.993246867632058 -2.1964247424809797 L-4.975442588455656 -2.2244734972306786 L-4.896876989239986 -2.3923290893921627 L-4.825735339809993 -2.5327412876385407 L-4.750591429144047 -2.6710529371472798 L-4.657079332215351 -2.8310640021646662 L-4.644109642939016 -2.8616501454337233 L-4.639121225981461 -2.883979619145783 L-4.637146878736604 -2.9077103008249248 L-4.642387536890598 -2.958944302250862 L-4.660270656698643 -3.0144080392862542 L-4.691110873711604 -3.0731146966139673 L-4.735209321688371 -3.1340816662454025 L-4.792782796113806 -3.1962933696667344 L-4.86399031787951 -3.258715199534072 L-4.948941547940895 -3.320320523257411 L-5.096167868947235 -3.408195562392188 L-5.181304112321365 -3.4872223949501286 L-5.26850911211679 -3.585912992327385 L-5.319057503882235 -3.6507507790719007 L-5.372648290579029 -3.7257797793399208 L-5.429022411733644 -3.8121176190398156 L-5.487404106558814 -3.910317104829411 L-5.546888754992079 -4.020660127720625 L-5.605360195842295 -4.140895385465179 L-5.6638342678925415 -4.275090933073372 L-5.720456735830586 -4.421550801380717 L-5.77399788729045 -4.579347247159297 L-5.818922629820056 -4.731778621059748 A7.5 7.5 0 0 1 -5.398672243854546 -5.206143245626706 L-5.241937186966767 -5.179919626827712 L-5.0788375822872185 -5.145789110374317 L-4.9266204870061685 -5.107233270295287 L-4.786355105505121 -5.065361025880096 L-4.659948544792805 -5.021808666484958 L-4.543239964725592 -4.976058109781296 L-4.438719328068489 -4.929938723263325 L-4.346215839011659 -4.884382509501499 L-4.2652742291101875 -4.840226206592879 L-4.194816247496378 -4.797861701085224 L-4.086333814512931 -4.723188360902855 L-3.9976211363950753 -4.648198488645612 L-3.8926406332539596 -4.512637778776423 L-3.8212447424469116 -4.435731640036606 L-3.7506949197173203 -4.372567421424932 L-3.6819970941802014 -4.322912514653582 L-3.616159161876677 -4.286484350137694 L-3.554163164801727 -4.262945298612987 L-3.4969482489617825 -4.251877981619783 L-3.4454561095544665 -4.252851110212277 L-3.422136432525753 -4.257671479832598 L-3.4005710530376447 -4.265315046247164 L-3.37177124047933 -4.281876924057543 L-3.2241984740101888 -4.393994415095491 L-3.0959528696847993 -4.485262069120427 L-2.965139612704184 -4.5728098360715235 L-2.807977913310222 -4.671035359453188 L-2.782279734269059 -4.692090729171346 L-2.7674856865619857 -4.709544263267364 L-2.754709291232603 -4.729639213438671 L-2.7355400359142896 -4.777440124000513 L-2.725599468297312 -4.83486152432698 L-2.7256247802704694 -4.901175851280542 L-2.7363392532364363 -4.975652992532484 L-2.758406812932021 -5.057494447853621 L-2.79244907137057 -5.145858018630289 L-2.8390402284595826 -5.239885628836584 L-2.9285650945992154 -5.386114594649383 L-2.967223893993419 -5.495654164802815 L-2.998576279065313 -5.623566533048828 L-3.013203035216897 -5.704468550974726 L-3.0257876052172414 -5.7958083117468355 L-3.0355812157517588 -5.898455032555141 L-3.0416400626933435 -6.0125376853720285 L-3.043032143471538 -6.137885474387659 L-3.0389299227304387 -6.271521541319425 L-3.0283423616131793 -6.417520053810437 L-3.010415772459374 -6.5735175996286666 L-2.984492442820467 -6.7381212271112725 L-2.9534329351962194 -6.893970074481633 A7.5 7.5 0 0 1 -2.3608714656258574 -7.118698997242661 L-2.2342761883842086 -7.022640723155311 L-2.1057199025087607 -6.916623486057232 L-1.9888561505870652 -6.811745173776835 L-1.884116325591636 -6.709484569632683 L-1.7924286653349162 -6.612176812713473 L-1.7103496937030656 -6.517429525069668 L-1.6392340137652694 -6.428019674566578 L-1.578497270151653 -6.344693135725619 L-1.5273474910917426 -6.26797922954087 L-1.4846478140980155 -6.197723866153928 L-1.4232938216519555 -6.081189606766703 L-1.3795921775672095 -5.973562535338136 L-1.3496347615797175 -5.804742615520146 L-1.3221569046025445 -5.70346628671651 L-1.2890420149907447 -5.614751011335107 L-1.2512888972019491 -5.538858303535047 L-1.2099213154928017 -5.476006353020071 L-1.1659657290078718 -5.426352581594671 L-1.1204476756792472 -5.389963861897867 L-1.074401415160954 -5.366895934113138 L-1.0515127291592141 -5.360326965159508 L-1.0288653915160664 -5.357073075536724 L-0.9956677355575829 -5.35835394979369 L-0.8128949441884239 -5.389048573673548 L-0.6569249073915083 -5.410263363834395 L-0.5004100447998385 -5.426991109884319 L-0.31560259426796994 -5.440928807969401 L-0.28306306858368036 -5.4476298726789425 L-0.2618525281691761 -5.456209072835407 L-0.24120100295297525 -5.468064780585037 L-0.20201327954120962 -5.5014819877364864 L-0.166526288743433 -5.547706500542125 L-0.13573089700877938 -5.60643668399075 L-0.11060683833083917 -5.677362181349228 L-0.09211307131323898 -5.760084497452555 L-0.08119139527004904 -5.854146779970084 L-0.07874900678190666 -5.9590560843166145 L-0.09006335011383726 -6.1301396829898 L-0.07338844047593951 -6.245097795311496 L-0.041705757241529806 -6.372928752372249 L-0.017060064216445125 -6.4513613241477135 L0.014244555806229076 -6.538087006994468 L0.053275054039466974 -6.633527482201087 L0.10092706379876204 -6.737358341129925 L0.15794645960553078 -6.8489952284111055 L0.22368257260328006 -6.965417692085205 L0.3009062842300242 -7.089772669720157 L0.3892751649393611 -7.21957073527654 L0.48872425326675384 -7.353272837095661 L0.5886526521557847 -7.476836065185595 A7.5 7.5 0 0 1 1.2177765137922667 -7.400446598213246 L1.2852305590102 -7.256559461803254 L1.3497928302586768 -7.102942775433451 L1.4045311616166403 -6.955768348374448 L1.4497507984517237 -6.816546056536888 L1.4857150202441212 -6.6877749365182 L1.5143610801985894 -6.565736379704851 L1.5357800581801808 -6.453518784461395 L1.550836000345813 -6.351511026396112 L1.560476150603197 -6.259813748339374 L1.5656355415644705 -6.177762184156179 L1.5658056331995136 -6.046063599999645 L1.5544847232532386 -5.93045539441722 L1.5025561691103717 -5.767050873780147 L1.479821146368274 -5.664605541329536 L1.4679148807299005 -5.570662809633314 L1.46607450645935 -5.48591840555526 L1.4734949231379586 -5.411041293456063 L1.4893404038914122 -5.346647882770715 L1.512733957243137 -5.293273977521239 L1.542785695505262 -5.2514495776161025 L1.5599998683555982 -5.2349961417111395 L1.5785409320297457 -5.221590222949965 L1.6085312484834335 -5.207296660797455 L1.7846330209008499 -5.149536649098665 L1.9325966343818237 -5.09583852263551 L2.0789574337733647 -5.0379141227554145 L2.2490734756975037 -4.964371036880095 L2.2809999348344436 -4.955182663412648 L2.3037678887621382 -4.952922138264283 L2.327563528315984 -4.9538226038235615 L2.377792284650829 -4.965200628127225 L2.4306960567022338 -4.98963877459403 L2.4852572990229915 -5.027330437285076 L2.540464270279452 -5.078456114050164 L2.5952826648605583 -5.143108605228386 L2.6486662510244567 -5.221321064135402 L2.699582663321093 -5.313078605290552 L2.769070822501592 -5.469823646148964 L2.837259420327994 -5.563864782501463 L2.9247190509574277 -5.662329796644371 L2.9829911618999327 -5.720324965290599 L3.0510134607599997 -5.7825687614295855 L3.1299266509842516 -5.848938728347092 L3.2203730162775432 -5.918731394904779 L3.322741432248155 -5.991082714945729 L3.4350520862208103 -6.063620591977211 L3.5612209266699635 -6.137843808019875 L3.699787853324783 -6.211707220731704 L3.849980112696292 -6.283878256645576 L3.995885010932384 -6.3468490189980065 A7.5 7.5 0 0 1 4.517446569698495 -5.986841068582775 L4.510306474042653 -5.828087878773701 L4.496084292380846 -5.662063474697738 L4.4761573111293735 -5.50630882045523 L4.451497485960893 -5.362018990173743 L4.423499299492186 -5.231284418791636 L4.39214998065615 -5.109912155450637 L4.358965426952621 -5.000594514168466 L4.324891432763895 -4.9032742849248665 L4.290813511971191 -4.817600376326939 L4.257250662608184 -4.742549635873321 L4.196197887488449 -4.625857285437747 L4.13244790754809 -4.528752392370489 L4.010529589222078 -4.408197277354337 L3.942790006484198 -4.328051932321093 L3.888590167567347 -4.25040289200901 L3.8475779088039195 -4.176220713346465 L3.8193512324166345 -4.10647188367795 L3.80345659875674 -4.0420905880959435 L3.799366470981565 -3.983958815761163 L3.806539195914375 -3.9329594097152274 L3.814135296066567 -3.9103907907393602 L3.8243225515280073 -3.889903977269145 L3.8442351083998525 -3.8633104615402027 L3.973323068061117 -3.730327936859357 L4.079383577532503 -3.614018487412332 L4.182060818422154 -3.4947117235500578 L4.298513916654292 -3.350535688398108 L4.322513342211152 -3.32756282238316 L4.3416228457907895 -3.3149804309991757 L4.3631113054290385 -3.3047193685602583 L4.412874291932783 -3.291451641768223 L4.471075228620408 -3.2885049370522417 L4.536902998445834 -3.2965233732969654 L4.609545630482088 -3.31613695305298 L4.688130419061438 -3.3479085127241492 L4.771746379097851 -3.392353616247362 L4.859472478755108 -3.4499388473307295 L4.993844240602882 -3.5564369304962278 L5.097925340617447 -3.60801739985972 L5.22112597126751 -3.654559322976698 L5.299675061765571 -3.678831094274389 L5.388831950551756 -3.7023337001292242 L5.4895497718936825 -3.7244285991816284 L5.60207032042914 -3.744194414552609 L5.726336386137876 -3.7606853518598724 L5.859492563750408 -3.7727210887970073 L6.005702772174425 -3.7798088989387306 L6.162723731790601 -3.780816441104345 L6.329251925597153 -3.7749228965403705 L6.487708269339055 -3.762875350380305 A7.5 7.5 0 0 1 6.782224057619646 -3.201722399396197 Z" id="SvgjsPath1388">
        </path>
      </g>
    </g>
  </g>
</svg>
