0
SECTION
2
HEADER
0
ENDSEC
0
SECTION
2
TABLES
0
TABLE
2
LTYPE
0
LTYPE
72
65
70
64
2
CONTINUOUS
3
______
73
0
40
0
0
ENDTAB
0
TABLE
2
LAYER
0
ENDTAB
0
ENDSEC
0
SECTION
2
ENTITIES
0
LINE
8
layer0
10
35.4921228
20
6.0595872
11
35.2900191
21
5.7749689
0
LINE
8
layer0
10
35.2900191
20
5.7749689
11
35.0915105
21
5.5188656
0
LINE
8
layer0
10
35.0915105
20
5.5188656
11
34.8966476
21
5.2880884
0
LINE
8
layer0
10
34.8966476
20
5.2880884
11
34.7086539
21
5.0834348
0
LINE
8
layer0
10
34.7086539
20
5.0834348
11
34.5275032
21
4.9020985
0
LINE
8
layer0
10
34.5275032
20
4.9020985
11
34.3565865
21
4.7447714
0
LINE
8
layer0
10
34.3565865
20
4.7447714
11
34.1960223
21
4.6089574
0
LINE
8
layer0
10
34.1960223
20
4.6089574
11
34.049287
21
4.4950191
0
LINE
8
layer0
10
34.049287
20
4.4950191
11
33.7989605
21
4.3240701
0
LINE
8
layer0
10
33.7989605
20
4.3240701
11
33.6149039
21
4.2195942
0
LINE
8
layer0
10
33.6149039
20
4.2195942
11
33.5069745
21
4.1695018
0
LINE
8
layer0
10
33.5069745
20
4.1695018
11
33.2085697
21
4.078109
0
LINE
8
layer0
10
33.2085697
20
4.078109
11
33.0174364
21
3.9994251
0
LINE
8
layer0
10
33.0174364
20
3.9994251
11
32.8543281
21
3.912911
0
LINE
8
layer0
10
32.8543281
20
3.912911
11
32.7195283
21
3.8207855
0
LINE
8
layer0
10
32.7195283
20
3.8207855
11
32.6131674
21
3.725263
0
LINE
8
layer0
10
32.6131674
20
3.725263
11
32.5352544
21
3.6285509
0
LINE
8
layer0
10
32.5352544
20
3.6285509
11
32.4856508
21
3.5328743
0
LINE
8
layer0
10
32.4856508
20
3.5328743
11
32.4714016
21
3.4861008
0
LINE
8
layer0
10
32.4714016
20
3.4861008
11
32.4641054
21
3.4404118
0
LINE
8
layer0
10
32.4641054
20
3.4404118
11
32.4637434
21
3.3960694
0
LINE
8
layer0
10
32.4637434
20
3.3960694
11
32.4729042
21
3.342946
0
LINE
8
layer0
10
32.4729042
20
3.342946
11
32.5997768
21
2.8720617
0
LINE
8
layer0
10
32.5997768
20
2.8720617
11
32.6503886
21
2.6591252
0
LINE
8
layer0
10
32.6503886
20
2.6591252
11
32.6971786
21
2.4453163
0
LINE
8
layer0
10
32.6971786
20
2.4453163
11
32.7871794
21
1.9660163
0
LINE
8
layer0
10
32.7871794
20
1.9660163
11
32.8019753
21
1.914179
0
LINE
8
layer0
10
32.8019753
20
1.914179
11
32.8215408
21
1.874385
0
LINE
8
layer0
10
32.8215408
20
1.874385
11
32.8479382
21
1.8363863
0
LINE
8
layer0
10
32.8479382
20
1.8363863
11
32.8810705
21
1.8004274
0
LINE
8
layer0
10
32.8810705
20
1.8004274
11
32.9672743
21
1.7357479
0
LINE
8
layer0
10
32.9672743
20
1.7357479
11
33.0794333
21
1.6824185
0
LINE
8
layer0
10
33.0794333
20
1.6824185
11
33.2167068
21
1.642504
0
LINE
8
layer0
10
33.2167068
20
1.642504
11
33.3781291
21
1.6179892
0
LINE
8
layer0
10
33.3781291
20
1.6179892
11
33.5626216
21
1.6108127
0
LINE
8
layer0
10
33.5626216
20
1.6108127
11
33.7689664
21
1.6228506
0
LINE
8
layer0
10
33.7689664
20
1.6228506
11
34.0774737
21
1.6699816
0
LINE
8
layer0
10
34.0774737
20
1.6699816
11
34.196449
21
1.6716786
0
LINE
8
layer0
10
34.196449
20
1.6716786
11
34.4076087
21
1.6574083
0
LINE
8
layer0
10
34.4076087
20
1.6574083
11
34.707317
21
1.6120012
0
LINE
8
layer0
10
34.707317
20
1.6120012
11
34.888957
21
1.5730124
0
LINE
8
layer0
10
34.888957
20
1.5730124
11
35.0925478
21
1.5203144
0
LINE
8
layer0
10
35.0925478
20
1.5203144
11
35.3148001
21
1.4527255
0
LINE
8
layer0
10
35.3148001
20
1.4527255
11
35.5566901
21
1.3679455
0
LINE
8
layer0
10
35.5566901
20
1.3679455
11
35.8148624
21
1.2651264
0
LINE
8
layer0
10
35.8148624
20
1.2651264
11
36.0905583
21
1.1417512
0
LINE
8
layer0
10
36.0905583
20
1.1417512
11
36.3805275
21
0.9971397
0
LINE
8
layer0
10
36.3805275
20
0.9971397
11
36.6861078
21
0.828397
0
LINE
8
layer0
10
36.6861078
20
0.828397
11
36.9869209
21
0.6455059
0
ARC
8
layer0
10
20.9999474
20
0
40
16
50
357.6878251
51
362.3121753
0
LINE
8
layer0
10
36.9869209
20
-0.6455059
11
36.6861078
21
-0.828397
0
LINE
8
layer0
10
36.6861078
20
-0.828397
11
36.3805275
21
-0.9971397
0
LINE
8
layer0
10
36.3805275
20
-0.9971397
11
36.0905583
21
-1.1417512
0
LINE
8
layer0
10
36.0905583
20
-1.1417512
11
35.8148624
21
-1.2651264
0
LINE
8
layer0
10
35.8148624
20
-1.2651264
11
35.5566901
21
-1.3679455
0
LINE
8
layer0
10
35.5566901
20
-1.3679455
11
35.3148001
21
-1.4527255
0
LINE
8
layer0
10
35.3148001
20
-1.4527255
11
35.0925478
21
-1.5203144
0
LINE
8
layer0
10
35.0925478
20
-1.5203144
11
34.888957
21
-1.5730124
0
LINE
8
layer0
10
34.888957
20
-1.5730124
11
34.707317
21
-1.6120012
0
LINE
8
layer0
10
34.707317
20
-1.6120012
11
34.4076087
21
-1.6574083
0
LINE
8
layer0
10
34.4076087
20
-1.6574083
11
34.196449
21
-1.6716786
0
LINE
8
layer0
10
34.196449
20
-1.6716786
11
34.0774737
21
-1.6699816
0
LINE
8
layer0
10
34.0774737
20
-1.6699816
11
33.7689664
21
-1.6228506
0
LINE
8
layer0
10
33.7689664
20
-1.6228506
11
33.5626216
21
-1.6108127
0
LINE
8
layer0
10
33.5626216
20
-1.6108127
11
33.3781291
21
-1.6179892
0
LINE
8
layer0
10
33.3781291
20
-1.6179892
11
33.2167068
21
-1.642504
0
LINE
8
layer0
10
33.2167068
20
-1.642504
11
33.0794333
21
-1.6824185
0
LINE
8
layer0
10
33.0794333
20
-1.6824185
11
32.9672743
21
-1.7357479
0
LINE
8
layer0
10
32.9672743
20
-1.7357479
11
32.8810705
21
-1.8004274
0
LINE
8
layer0
10
32.8810705
20
-1.8004274
11
32.8479382
21
-1.8363863
0
LINE
8
layer0
10
32.8479382
20
-1.8363863
11
32.8215408
21
-1.874385
0
LINE
8
layer0
10
32.8215408
20
-1.874385
11
32.8019753
21
-1.914179
0
LINE
8
layer0
10
32.8019753
20
-1.914179
11
32.7871794
21
-1.9660163
0
LINE
8
layer0
10
32.7871794
20
-1.9660163
11
32.6971786
21
-2.4453163
0
LINE
8
layer0
10
32.6971786
20
-2.4453163
11
32.6503886
21
-2.6591252
0
LINE
8
layer0
10
32.6503886
20
-2.6591252
11
32.5997768
21
-2.8720617
0
LINE
8
layer0
10
32.5997768
20
-2.8720617
11
32.4729042
21
-3.342946
0
LINE
8
layer0
10
32.4729042
20
-3.342946
11
32.4637434
21
-3.3960694
0
LINE
8
layer0
10
32.4637434
20
-3.3960694
11
32.4641054
21
-3.4404118
0
LINE
8
layer0
10
32.4641054
20
-3.4404118
11
32.4714016
21
-3.4861008
0
LINE
8
layer0
10
32.4714016
20
-3.4861008
11
32.4856508
21
-3.5328743
0
LINE
8
layer0
10
32.4856508
20
-3.5328743
11
32.5352544
21
-3.6285509
0
LINE
8
layer0
10
32.5352544
20
-3.6285509
11
32.6131674
21
-3.725263
0
LINE
8
layer0
10
32.6131674
20
-3.725263
11
32.7195283
21
-3.8207855
0
LINE
8
layer0
10
32.7195283
20
-3.8207855
11
32.8543281
21
-3.912911
0
LINE
8
layer0
10
32.8543281
20
-3.912911
11
33.0174364
21
-3.9994251
0
LINE
8
layer0
10
33.0174364
20
-3.9994251
11
33.2085697
21
-4.078109
0
LINE
8
layer0
10
33.2085697
20
-4.078109
11
33.5069745
21
-4.1695018
0
LINE
8
layer0
10
33.5069745
20
-4.1695018
11
33.6149039
21
-4.2195942
0
LINE
8
layer0
10
33.6149039
20
-4.2195942
11
33.7989605
21
-4.3240701
0
LINE
8
layer0
10
33.7989605
20
-4.3240701
11
34.049287
21
-4.4950191
0
LINE
8
layer0
10
34.049287
20
-4.4950191
11
34.1960223
21
-4.6089574
0
LINE
8
layer0
10
34.1960223
20
-4.6089574
11
34.3565865
21
-4.7447714
0
LINE
8
layer0
10
34.3565865
20
-4.7447714
11
34.5275032
21
-4.9020985
0
LINE
8
layer0
10
34.5275032
20
-4.9020985
11
34.7086539
21
-5.0834348
0
LINE
8
layer0
10
34.7086539
20
-5.0834348
11
34.8966476
21
-5.2880884
0
LINE
8
layer0
10
34.8966476
20
-5.2880884
11
35.0915105
21
-5.5188656
0
LINE
8
layer0
10
35.0915105
20
-5.5188656
11
35.2900191
21
-5.7749689
0
LINE
8
layer0
10
35.2900191
20
-5.7749689
11
35.4921228
21
-6.0595872
0
LINE
8
layer0
10
35.4921228
20
-6.0595872
11
35.6837926
21
-6.3548843
0
ARC
8
layer0
10
20.9999526
20
0.0000227
40
16
50
331.9735397
51
336.59789
0
LINE
8
layer0
10
35.1236436
20
-7.5180457
11
34.7732668
21
-7.552307
0
LINE
8
layer0
10
34.7732668
20
-7.552307
11
34.4247337
21
-7.5717526
0
LINE
8
layer0
10
34.4247337
20
-7.5717526
11
34.1007359
21
-7.5762301
0
LINE
8
layer0
10
34.1007359
20
-7.5762301
11
33.7988121
21
-7.5677674
0
LINE
8
layer0
10
33.7988121
20
-7.5677674
11
33.5215953
21
-7.5483875
0
LINE
8
layer0
10
33.5215953
20
-7.5483875
11
33.2668752
21
-7.5198195
0
LINE
8
layer0
10
33.2668752
20
-7.5198195
11
33.0373072
21
-7.4842833
0
LINE
8
layer0
10
33.0373072
20
-7.4842833
11
32.8310133
21
-7.4434278
0
LINE
8
layer0
10
32.8310133
20
-7.4434278
11
32.6504448
21
-7.3997449
0
LINE
8
layer0
10
32.6504448
20
-7.3997449
11
32.3607155
21
-7.3106167
0
LINE
8
layer0
10
32.3607155
20
-7.3106167
11
32.1642756
21
-7.2318551
0
LINE
8
layer0
10
32.1642756
20
-7.2318551
11
32.0578188
21
-7.1787046
0
LINE
8
layer0
10
32.0578188
20
-7.1787046
11
31.8003127
21
-7.0023847
0
LINE
8
layer0
10
31.8003127
20
-7.0023847
11
31.6196255
21
-6.9020094
0
LINE
8
layer0
10
31.6196255
20
-6.9020094
11
31.4502897
21
-6.8284268
0
LINE
8
layer0
10
31.4502897
20
-6.8284268
11
31.2942167
21
-6.7804754
0
LINE
8
layer0
10
31.2942167
20
-6.7804754
11
31.1532193
21
-6.7568764
0
LINE
8
layer0
10
31.1532193
20
-6.7568764
11
31.0290288
21
-6.7562605
0
LINE
8
layer0
10
31.0290288
20
-6.7562605
11
30.9232984
21
-6.7771323
0
LINE
8
layer0
10
30.9232984
20
-6.7771323
11
30.8778453
21
-6.7951546
0
LINE
8
layer0
10
30.8778453
20
-6.7951546
11
30.837575
21
-6.8179369
0
LINE
8
layer0
10
30.837575
20
-6.8179369
11
30.8026811
21
-6.8453009
0
LINE
8
layer0
10
30.8026811
20
-6.8453009
11
30.7668592
21
-6.885585
0
LINE
8
layer0
10
30.7668592
20
-6.885585
11
30.4778108
21
-7.2783695
0
LINE
8
layer0
10
30.4778108
20
-7.2783695
11
30.3428862
21
-7.4507031
0
LINE
8
layer0
10
30.3428862
20
-7.4507031
11
30.2048968
21
-7.6205927
0
LINE
8
layer0
10
30.2048968
20
-7.6205927
11
29.8862796
21
-7.9897968
0
LINE
8
layer0
10
29.8862796
20
-7.9897968
11
29.8549766
21
-8.0336847
0
LINE
8
layer0
10
29.8549766
20
-8.0336847
11
29.8360634
21
-8.0737928
0
LINE
8
layer0
10
29.8360634
20
-8.0737928
11
29.8228132
21
-8.1181229
0
LINE
8
layer0
10
29.8228132
20
-8.1181229
11
29.8153571
21
-8.1664468
0
LINE
8
layer0
10
29.8153571
20
-8.1664468
11
29.8185358
21
-8.2741707
0
LINE
8
layer0
10
29.8185358
20
-8.2741707
11
29.8467712
21
-8.3951104
0
LINE
8
layer0
10
29.8467712
20
-8.3951104
11
29.9011535
21
-8.5273215
0
LINE
8
layer0
10
29.9011535
20
-8.5273215
11
29.9826321
21
-8.6688112
0
LINE
8
layer0
10
29.9826321
20
-8.6688112
11
30.0920506
21
-8.8175278
0
LINE
8
layer0
10
30.0920506
20
-8.8175278
11
30.230116
21
-8.9713492
0
LINE
8
layer0
10
30.230116
20
-8.9713492
11
30.4593157
21
-9.1831642
0
LINE
8
layer0
10
30.4593157
20
-9.1831642
11
30.5348224
21
-9.2751247
0
LINE
8
layer0
10
30.5348224
20
-9.2751247
11
30.6553213
21
-9.4491134
0
LINE
8
layer0
10
30.6553213
20
-9.4491134
11
30.8066857
21
-9.7117457
0
LINE
8
layer0
10
30.8066857
20
-9.7117457
11
30.8894536
21
-9.8780666
0
LINE
8
layer0
10
30.8894536
20
-9.8780666
11
30.9751895
21
-10.0700971
0
LINE
8
layer0
10
30.9751895
20
-10.0700971
11
31.0609184
21
-10.2860018
0
LINE
8
layer0
10
31.0609184
20
-10.2860018
11
31.1454507
21
-10.5279785
0
LINE
8
layer0
10
31.1454507
20
-10.5279785
11
31.2260313
21
-10.7939325
0
LINE
8
layer0
10
31.2260313
20
-10.7939325
11
31.3014662
21
-11.0864033
0
LINE
8
layer0
10
31.3014662
20
-11.0864033
11
31.3691972
21
-11.4032742
0
LINE
8
layer0
10
31.3691972
20
-11.4032742
11
31.4277951
21
-11.7473958
0
LINE
8
layer0
10
31.4277951
20
-11.7473958
11
31.472359
21
-12.0966118
0
ARC
8
layer0
10
20.9999667
20
0.0000407
40
16
50
306.2592557
51
310.8836061
0
LINE
8
layer0
10
30.4630054
20
-12.9015444
11
30.1324614
21
-12.78039
0
LINE
8
layer0
10
30.1324614
20
-12.78039
11
29.8100068
21
-12.646687
0
LINE
8
layer0
10
29.8100068
20
-12.646687
11
29.5161521
21
-12.5101438
0
LINE
8
layer0
10
29.5161521
20
-12.5101438
11
29.2478
21
-12.3715193
0
LINE
8
layer0
10
29.2478
20
-12.3715193
11
29.0064449
21
-12.2337787
0
LINE
8
layer0
10
29.0064449
20
-12.2337787
11
28.7893453
21
-12.0975209
0
LINE
8
layer0
10
28.7893453
20
-12.0975209
11
28.5979302
21
-11.9658981
0
LINE
8
layer0
10
28.5979302
20
-11.9658981
11
28.4297924
21
-11.839581
0
LINE
8
layer0
10
28.4297924
20
-11.839581
11
28.2860591
21
-11.7218783
0
LINE
8
layer0
10
28.2860591
20
-11.7218783
11
28.0636933
21
-11.5158678
0
LINE
8
layer0
10
28.0636933
20
-11.5158678
11
27.9208804
21
-11.3596739
0
LINE
8
layer0
10
27.9208804
20
-11.3596739
11
27.8480273
21
-11.2655971
0
LINE
8
layer0
10
27.8480273
20
-11.2655971
11
27.6925247
21
-10.9950107
0
LINE
8
layer0
10
27.6925247
20
-10.9950107
11
27.5732823
21
-10.8261784
0
LINE
8
layer0
10
27.5732823
20
-10.8261784
11
27.4526423
21
-10.6864108
0
LINE
8
layer0
10
27.4526423
20
-10.6864108
11
27.3328308
21
-10.5754905
0
LINE
8
layer0
10
27.3328308
20
-10.5754905
11
27.2160357
21
-10.493052
0
LINE
8
layer0
10
27.2160357
20
-10.493052
11
27.1044112
21
-10.4386129
0
LINE
8
layer0
10
27.1044112
20
-10.4386129
11
27.0000955
21
-10.411543
0
LINE
8
layer0
10
27.0000955
20
-10.411543
11
26.951324
21
-10.4080592
0
LINE
8
layer0
10
26.951324
20
-10.4080592
11
26.9051569
21
-10.4111127
0
LINE
8
layer0
10
26.9051569
20
-10.4111127
11
26.8618458
21
-10.4206269
0
LINE
8
layer0
10
26.8618458
20
-10.4206269
11
26.8120927
21
-10.4413791
0
LINE
8
layer0
10
26.8120927
20
-10.4413791
11
26.3812463
21
-10.6698523
0
LINE
8
layer0
10
26.3812463
20
-10.6698523
11
26.1849107
21
-10.766578
0
LINE
8
layer0
10
26.1849107
20
-10.766578
11
25.9868742
21
-10.8597719
0
LINE
8
layer0
10
25.9868742
20
-10.8597719
11
25.5396183
21
-11.0541704
0
LINE
8
layer0
10
25.5396183
20
-11.0541704
11
25.4923731
21
-11.0801302
0
LINE
8
layer0
10
25.4923731
20
-11.0801302
11
25.4579306
21
-11.1080602
0
LINE
8
layer0
10
25.4579306
20
-11.1080602
11
25.4267585
21
-11.1422512
0
LINE
8
layer0
10
25.4267585
20
-11.1422512
11
25.3990738
21
-11.1825544
0
LINE
8
layer0
10
25.3990738
20
-11.1825544
11
25.3551981
21
-11.2809895
0
LINE
8
layer0
10
25.3551981
20
-11.2809895
11
25.3281635
21
-11.4022033
0
LINE
8
layer0
10
25.3281635
20
-11.4022033
11
25.319796
21
-11.5449169
0
LINE
8
layer0
10
25.319796
20
-11.5449169
11
25.3318157
21
-11.7077471
0
LINE
8
layer0
10
25.3318157
20
-11.7077471
11
25.3658726
21
-11.8892109
0
LINE
8
layer0
10
25.3658726
20
-11.8892109
11
25.4235247
21
-12.0877035
0
LINE
8
layer0
10
25.4235247
20
-12.0877035
11
25.5381233
21
-12.3779883
0
LINE
8
layer0
10
25.5381233
20
-12.3779883
11
25.5662523
21
-12.493603
0
LINE
8
layer0
10
25.5662523
20
-12.493603
11
25.5993272
21
-12.7026439
0
LINE
8
layer0
10
25.5993272
20
-12.7026439
11
25.62175
21
-13.004942
0
LINE
8
layer0
10
25.62175
20
-13.004942
11
25.6241574
21
-13.1907036
0
LINE
8
layer0
10
25.6241574
20
-13.1907036
11
25.6180838
21
-13.4009165
0
LINE
8
layer0
10
25.6180838
20
-13.4009165
11
25.6016454
21
-13.6326363
0
LINE
8
layer0
10
25.6016454
20
-13.6326363
11
25.5728166
21
-13.887327
0
LINE
8
layer0
10
25.5728166
20
-13.887327
11
25.530024
21
-14.1619058
0
LINE
8
layer0
10
25.530024
20
-14.1619058
11
25.4710902
21
-14.4581429
0
LINE
8
layer0
10
25.4710902
20
-14.4581429
11
25.3946287
21
-14.7730211
0
LINE
8
layer0
10
25.3946287
20
-14.7730211
11
25.2981147
21
-15.1084887
0
LINE
8
layer0
10
25.2981147
20
-15.1084887
11
25.1867463
21
-15.4424569
0
ARC
8
layer0
10
20.9999888
20
0.0000514
40
16
50
280.5449659
51
285.1693162
0
LINE
8
layer0
10
23.9281029
20
-15.729734
11
23.68286
21
-15.47716
0
LINE
8
layer0
10
23.68286
20
-15.47716
11
23.45035
21
-15.21679
0
LINE
8
layer0
10
23.45035
20
-15.21679
11
23.24484
21
-14.96627
0
LINE
8
layer0
10
23.24484
20
-14.96627
11
23.06321
21
-14.72494
0
LINE
8
layer0
10
23.06321
20
-14.72494
11
22.90552
21
-14.49612
0
LINE
8
layer0
10
22.90552
20
-14.49612
11
22.76904
21
-14.27916
0
LINE
8
layer0
10
22.76904
20
-14.27916
11
22.65369
21
-14.07752
0
LINE
8
layer0
10
22.65369
20
-14.07752
11
22.55701
21
-13.89076
0
LINE
8
layer0
10
22.55701
20
-13.89076
11
22.47858
21
-13.72235
0
LINE
8
layer0
10
22.47858
20
-13.72235
11
22.36762
21
-13.44026
0
LINE
8
layer0
10
22.36762
20
-13.44026
11
22.30672
21
-13.23757
0
LINE
8
layer0
10
22.30672
20
-13.23757
11
22.2819
21
-13.1212
0
LINE
8
layer0
10
22.2819
20
-13.1212
11
22.2592
21
-12.80994
0
LINE
8
layer0
10
22.2592
20
-12.80994
11
22.22502
21
-12.60609
0
LINE
8
layer0
10
22.22502
20
-12.60609
11
22.17697
21
-12.42782
0
LINE
8
layer0
10
22.17697
20
-12.42782
11
22.11715
21
-12.2759
0
LINE
8
layer0
10
22.11715
20
-12.2759
11
22.04769
21
-12.15095
0
LINE
8
layer0
10
22.04769
20
-12.15095
11
21.97074
21
-12.05347
0
LINE
8
layer0
10
21.97074
20
-12.05347
11
21.8885
21
-11.98382
0
LINE
8
layer0
10
21.8885
20
-11.98382
11
21.84607
21
-11.95952
0
LINE
8
layer0
10
21.84607
20
-11.95952
11
21.80315
21
-11.94224
0
LINE
8
layer0
10
21.80315
20
-11.94224
11
21.76
21
-11.93202
0
LINE
8
layer0
10
21.76
20
-11.93202
11
21.70617
21
-11.92913
0
LINE
8
layer0
10
21.70617
20
-11.92913
11
21.21886
21
-11.94804
0
LINE
8
layer0
10
21.21886
20
-11.94804
11
21
21
-11.95
0
LINE
8
layer0
10
21
20
-11.95
11
20.78114
21
-11.94804
0
LINE
8
layer0
10
20.78114
20
-11.94804
11
20.29383
21
-11.92913
0
LINE
8
layer0
10
20.29383
20
-11.92913
11
20.24
21
-11.93202
0
LINE
8
layer0
10
20.24
20
-11.93202
11
20.19685
21
-11.94224
0
LINE
8
layer0
10
20.19685
20
-11.94224
11
20.15393
21
-11.95952
0
LINE
8
layer0
10
20.15393
20
-11.95952
11
20.1115
21
-11.98382
0
LINE
8
layer0
10
20.1115
20
-11.98382
11
20.02926
21
-12.05347
0
LINE
8
layer0
10
20.02926
20
-12.05347
11
19.95231
21
-12.15095
0
LINE
8
layer0
10
19.95231
20
-12.15095
11
19.88285
21
-12.2759
0
LINE
8
layer0
10
19.88285
20
-12.2759
11
19.82303
21
-12.42782
0
LINE
8
layer0
10
19.82303
20
-12.42782
11
19.77498
21
-12.60609
0
LINE
8
layer0
10
19.77498
20
-12.60609
11
19.7408
21
-12.80994
0
LINE
8
layer0
10
19.7408
20
-12.80994
11
19.7181
21
-13.1212
0
LINE
8
layer0
10
19.7181
20
-13.1212
11
19.69328
21
-13.23757
0
LINE
8
layer0
10
19.69328
20
-13.23757
11
19.63238
21
-13.44026
0
LINE
8
layer0
10
19.63238
20
-13.44026
11
19.52142
21
-13.72235
0
LINE
8
layer0
10
19.52142
20
-13.72235
11
19.44299
21
-13.89076
0
LINE
8
layer0
10
19.44299
20
-13.89076
11
19.34631
21
-14.07752
0
LINE
8
layer0
10
19.34631
20
-14.07752
11
19.23096
21
-14.27916
0
LINE
8
layer0
10
19.23096
20
-14.27916
11
19.09448
21
-14.49612
0
LINE
8
layer0
10
19.09448
20
-14.49612
11
18.93679
21
-14.72494
0
LINE
8
layer0
10
18.93679
20
-14.72494
11
18.75516
21
-14.96627
0
LINE
8
layer0
10
18.75516
20
-14.96627
11
18.54965
21
-15.21679
0
LINE
8
layer0
10
18.54965
20
-15.21679
11
18.31714
21
-15.47716
0
LINE
8
layer0
10
18.31714
20
-15.47716
11
18.0718971
21
-15.729734
0
ARC
8
layer0
10
21.0000112
20
0.0000514
40
16
50
254.8306838
51
259.4550341
0
LINE
8
layer0
10
16.8132537
20
-15.4424569
11
16.7018853
21
-15.1084887
0
LINE
8
layer0
10
16.7018853
20
-15.1084887
11
16.6053713
21
-14.7730211
0
LINE
8
layer0
10
16.6053713
20
-14.7730211
11
16.5289098
21
-14.4581429
0
LINE
8
layer0
10
16.5289098
20
-14.4581429
11
16.469976
21
-14.1619058
0
LINE
8
layer0
10
16.469976
20
-14.1619058
11
16.4271834
21
-13.887327
0
LINE
8
layer0
10
16.4271834
20
-13.887327
11
16.3983546
21
-13.6326363
0
LINE
8
layer0
10
16.3983546
20
-13.6326363
11
16.3819162
21
-13.4009165
0
LINE
8
layer0
10
16.3819162
20
-13.4009165
11
16.3758426
21
-13.1907036
0
LINE
8
layer0
10
16.3758426
20
-13.1907036
11
16.37825
21
-13.004942
0
LINE
8
layer0
10
16.37825
20
-13.004942
11
16.4006728
21
-12.7026439
0
LINE
8
layer0
10
16.4006728
20
-12.7026439
11
16.4337477
21
-12.493603
0
LINE
8
layer0
10
16.4337477
20
-12.493603
11
16.4618767
21
-12.3779883
0
LINE
8
layer0
10
16.4618767
20
-12.3779883
11
16.5764753
21
-12.0877035
0
LINE
8
layer0
10
16.5764753
20
-12.0877035
11
16.6341274
21
-11.8892109
0
LINE
8
layer0
10
16.6341274
20
-11.8892109
11
16.6681843
21
-11.7077471
0
LINE
8
layer0
10
16.6681843
20
-11.7077471
11
16.680204
21
-11.5449169
0
LINE
8
layer0
10
16.680204
20
-11.5449169
11
16.6718365
21
-11.4022033
0
LINE
8
layer0
10
16.6718365
20
-11.4022033
11
16.6448019
21
-11.2809895
0
LINE
8
layer0
10
16.6448019
20
-11.2809895
11
16.6009262
21
-11.1825544
0
LINE
8
layer0
10
16.6009262
20
-11.1825544
11
16.5732415
21
-11.1422512
0
LINE
8
layer0
10
16.5732415
20
-11.1422512
11
16.5420694
21
-11.1080602
0
LINE
8
layer0
10
16.5420694
20
-11.1080602
11
16.5076269
21
-11.0801302
0
LINE
8
layer0
10
16.5076269
20
-11.0801302
11
16.4603817
21
-11.0541704
0
LINE
8
layer0
10
16.4603817
20
-11.0541704
11
16.0131258
21
-10.8597719
0
LINE
8
layer0
10
16.0131258
20
-10.8597719
11
15.8150893
21
-10.766578
0
LINE
8
layer0
10
15.8150893
20
-10.766578
11
15.6187537
21
-10.6698523
0
LINE
8
layer0
10
15.6187537
20
-10.6698523
11
15.1879073
21
-10.4413791
0
LINE
8
layer0
10
15.1879073
20
-10.4413791
11
15.1381542
21
-10.4206269
0
LINE
8
layer0
10
15.1381542
20
-10.4206269
11
15.0948431
21
-10.4111127
0
LINE
8
layer0
10
15.0948431
20
-10.4111127
11
15.048676
21
-10.4080592
0
LINE
8
layer0
10
15.048676
20
-10.4080592
11
14.9999045
21
-10.411543
0
LINE
8
layer0
10
14.9999045
20
-10.411543
11
14.8955888
21
-10.4386129
0
LINE
8
layer0
10
14.8955888
20
-10.4386129
11
14.7839643
21
-10.493052
0
LINE
8
layer0
10
14.7839643
20
-10.493052
11
14.6671692
21
-10.5754905
0
LINE
8
layer0
10
14.6671692
20
-10.5754905
11
14.5473577
21
-10.6864108
0
LINE
8
layer0
10
14.5473577
20
-10.6864108
11
14.4267177
21
-10.8261784
0
LINE
8
layer0
10
14.4267177
20
-10.8261784
11
14.3074753
21
-10.9950107
0
LINE
8
layer0
10
14.3074753
20
-10.9950107
11
14.1519727
21
-11.2655971
0
LINE
8
layer0
10
14.1519727
20
-11.2655971
11
14.0791196
21
-11.3596739
0
LINE
8
layer0
10
14.0791196
20
-11.3596739
11
13.9363067
21
-11.5158678
0
LINE
8
layer0
10
13.9363067
20
-11.5158678
11
13.7139409
21
-11.7218783
0
LINE
8
layer0
10
13.7139409
20
-11.7218783
11
13.5702076
21
-11.839581
0
LINE
8
layer0
10
13.5702076
20
-11.839581
11
13.4020698
21
-11.9658981
0
LINE
8
layer0
10
13.4020698
20
-11.9658981
11
13.2106547
21
-12.0975209
0
LINE
8
layer0
10
13.2106547
20
-12.0975209
11
12.9935551
21
-12.2337787
0
LINE
8
layer0
10
12.9935551
20
-12.2337787
11
12.7522
21
-12.3715193
0
LINE
8
layer0
10
12.7522
20
-12.3715193
11
12.4838479
21
-12.5101438
0
LINE
8
layer0
10
12.4838479
20
-12.5101438
11
12.1899932
21
-12.646687
0
LINE
8
layer0
10
12.1899932
20
-12.646687
11
11.8675386
21
-12.78039
0
LINE
8
layer0
10
11.8675386
20
-12.78039
11
11.5369946
21
-12.9015444
0
ARC
8
layer0
10
21.0000332
20
0.0000408
40
16
50
229.1163942
51
233.7407445
0
LINE
8
layer0
10
10.527641
20
-12.0966118
11
10.5722049
21
-11.7473958
0
LINE
8
layer0
10
10.5722049
20
-11.7473958
11
10.6308028
21
-11.4032742
0
LINE
8
layer0
10
10.6308028
20
-11.4032742
11
10.6985338
21
-11.0864033
0
LINE
8
layer0
10
10.6985338
20
-11.0864033
11
10.7739687
21
-10.7939325
0
LINE
8
layer0
10
10.7739687
20
-10.7939325
11
10.8545493
21
-10.5279785
0
LINE
8
layer0
10
10.8545493
20
-10.5279785
11
10.9390816
21
-10.2860018
0
LINE
8
layer0
10
10.9390816
20
-10.2860018
11
11.0248105
21
-10.0700971
0
LINE
8
layer0
10
11.0248105
20
-10.0700971
11
11.1105464
21
-9.8780666
0
LINE
8
layer0
10
11.1105464
20
-9.8780666
11
11.1933143
21
-9.7117457
0
LINE
8
layer0
10
11.1933143
20
-9.7117457
11
11.3446787
21
-9.4491134
0
LINE
8
layer0
10
11.3446787
20
-9.4491134
11
11.4651776
21
-9.2751247
0
LINE
8
layer0
10
11.4651776
20
-9.2751247
11
11.5406843
21
-9.1831642
0
LINE
8
layer0
10
11.5406843
20
-9.1831642
11
11.769884
21
-8.9713492
0
LINE
8
layer0
10
11.769884
20
-8.9713492
11
11.9079494
21
-8.8175278
0
LINE
8
layer0
10
11.9079494
20
-8.8175278
11
12.0173679
21
-8.6688112
0
LINE
8
layer0
10
12.0173679
20
-8.6688112
11
12.0988465
21
-8.5273215
0
LINE
8
layer0
10
12.0988465
20
-8.5273215
11
12.1532288
21
-8.3951104
0
LINE
8
layer0
10
12.1532288
20
-8.3951104
11
12.1814642
21
-8.2741707
0
LINE
8
layer0
10
12.1814642
20
-8.2741707
11
12.1846429
21
-8.1664468
0
LINE
8
layer0
10
12.1846429
20
-8.1664468
11
12.1771868
21
-8.1181229
0
LINE
8
layer0
10
12.1771868
20
-8.1181229
11
12.1639366
21
-8.0737928
0
LINE
8
layer0
10
12.1639366
20
-8.0737928
11
12.1450234
21
-8.0336847
0
LINE
8
layer0
10
12.1450234
20
-8.0336847
11
12.1137204
21
-7.9897968
0
LINE
8
layer0
10
12.1137204
20
-7.9897968
11
11.7951032
21
-7.6205927
0
LINE
8
layer0
10
11.7951032
20
-7.6205927
11
11.6571138
21
-7.4507031
0
LINE
8
layer0
10
11.6571138
20
-7.4507031
11
11.5221892
21
-7.2783695
0
LINE
8
layer0
10
11.5221892
20
-7.2783695
11
11.2331408
21
-6.885585
0
LINE
8
layer0
10
11.2331408
20
-6.885585
11
11.1973189
21
-6.8453009
0
LINE
8
layer0
10
11.1973189
20
-6.8453009
11
11.162425
21
-6.8179369
0
LINE
8
layer0
10
11.162425
20
-6.8179369
11
11.1221547
21
-6.7951546
0
LINE
8
layer0
10
11.1221547
20
-6.7951546
11
11.0767016
21
-6.7771323
0
LINE
8
layer0
10
11.0767016
20
-6.7771323
11
10.9709712
21
-6.7562605
0
LINE
8
layer0
10
10.9709712
20
-6.7562605
11
10.8467807
21
-6.7568764
0
LINE
8
layer0
10
10.8467807
20
-6.7568764
11
10.7057833
21
-6.7804754
0
LINE
8
layer0
10
10.7057833
20
-6.7804754
11
10.5497103
21
-6.8284268
0
LINE
8
layer0
10
10.5497103
20
-6.8284268
11
10.3803745
21
-6.9020094
0
LINE
8
layer0
10
10.3803745
20
-6.9020094
11
10.1996873
21
-7.0023847
0
LINE
8
layer0
10
10.1996873
20
-7.0023847
11
9.9421812
21
-7.1787046
0
LINE
8
layer0
10
9.9421812
20
-7.1787046
11
9.8357244
21
-7.2318551
0
LINE
8
layer0
10
9.8357244
20
-7.2318551
11
9.6392845
21
-7.3106167
0
LINE
8
layer0
10
9.6392845
20
-7.3106167
11
9.3495552
21
-7.3997449
0
LINE
8
layer0
10
9.3495552
20
-7.3997449
11
9.1689867
21
-7.4434278
0
LINE
8
layer0
10
9.1689867
20
-7.4434278
11
8.9626928
21
-7.4842833
0
LINE
8
layer0
10
8.9626928
20
-7.4842833
11
8.7331248
21
-7.5198195
0
LINE
8
layer0
10
8.7331248
20
-7.5198195
11
8.4784047
21
-7.5483875
0
LINE
8
layer0
10
8.4784047
20
-7.5483875
11
8.2011879
21
-7.5677674
0
LINE
8
layer0
10
8.2011879
20
-7.5677674
11
7.8992641
21
-7.5762301
0
LINE
8
layer0
10
7.8992641
20
-7.5762301
11
7.5752663
21
-7.5717526
0
LINE
8
layer0
10
7.5752663
20
-7.5717526
11
7.2267332
21
-7.552307
0
LINE
8
layer0
10
7.2267332
20
-7.552307
11
6.8763564
21
-7.5180457
0
ARC
8
layer0
10
21.0000474
20
0.0000228
40
16
50
203.4021103
51
208.0264606
0
LINE
8
layer0
10
6.3162074
20
-6.3548843
11
6.5078772
21
-6.0595872
0
LINE
8
layer0
10
6.5078772
20
-6.0595872
11
6.7099809
21
-5.7749689
0
LINE
8
layer0
10
6.7099809
20
-5.7749689
11
6.9084895
21
-5.5188656
0
LINE
8
layer0
10
6.9084895
20
-5.5188656
11
7.1033524
21
-5.2880884
0
LINE
8
layer0
10
7.1033524
20
-5.2880884
11
7.2913461
21
-5.0834348
0
LINE
8
layer0
10
7.2913461
20
-5.0834348
11
7.4724968
21
-4.9020985
0
LINE
8
layer0
10
7.4724968
20
-4.9020985
11
7.6434135
21
-4.7447714
0
LINE
8
layer0
10
7.6434135
20
-4.7447714
11
7.8039777
21
-4.6089574
0
LINE
8
layer0
10
7.8039777
20
-4.6089574
11
7.950713
21
-4.4950191
0
LINE
8
layer0
10
7.950713
20
-4.4950191
11
8.2010395
21
-4.3240701
0
LINE
8
layer0
10
8.2010395
20
-4.3240701
11
8.3850961
21
-4.2195942
0
LINE
8
layer0
10
8.3850961
20
-4.2195942
11
8.4930255
21
-4.1695018
0
LINE
8
layer0
10
8.4930255
20
-4.1695018
11
8.7914303
21
-4.078109
0
LINE
8
layer0
10
8.7914303
20
-4.078109
11
8.9825636
21
-3.9994251
0
LINE
8
layer0
10
8.9825636
20
-3.9994251
11
9.1456719
21
-3.912911
0
LINE
8
layer0
10
9.1456719
20
-3.912911
11
9.2804717
21
-3.8207855
0
LINE
8
layer0
10
9.2804717
20
-3.8207855
11
9.3868326
21
-3.725263
0
LINE
8
layer0
10
9.3868326
20
-3.725263
11
9.4647456
21
-3.6285509
0
LINE
8
layer0
10
9.4647456
20
-3.6285509
11
9.5143492
21
-3.5328743
0
LINE
8
layer0
10
9.5143492
20
-3.5328743
11
9.5285984
21
-3.4861008
0
LINE
8
layer0
10
9.5285984
20
-3.4861008
11
9.5358946
21
-3.4404118
0
LINE
8
layer0
10
9.5358946
20
-3.4404118
11
9.5362566
21
-3.3960694
0
LINE
8
layer0
10
9.5362566
20
-3.3960694
11
9.5270958
21
-3.342946
0
LINE
8
layer0
10
9.5270958
20
-3.342946
11
9.4002232
21
-2.8720617
0
LINE
8
layer0
10
9.4002232
20
-2.8720617
11
9.3496114
21
-2.6591252
0
LINE
8
layer0
10
9.3496114
20
-2.6591252
11
9.3028214
21
-2.4453163
0
LINE
8
layer0
10
9.3028214
20
-2.4453163
11
9.2128206
21
-1.9660163
0
LINE
8
layer0
10
9.2128206
20
-1.9660163
11
9.1980247
21
-1.914179
0
LINE
8
layer0
10
9.1980247
20
-1.914179
11
9.1784592
21
-1.874385
0
LINE
8
layer0
10
9.1784592
20
-1.874385
11
9.1520618
21
-1.8363863
0
LINE
8
layer0
10
9.1520618
20
-1.8363863
11
9.1189295
21
-1.8004274
0
LINE
8
layer0
10
9.1189295
20
-1.8004274
11
9.0327257
21
-1.7357479
0
LINE
8
layer0
10
9.0327257
20
-1.7357479
11
8.9205667
21
-1.6824185
0
LINE
8
layer0
10
8.9205667
20
-1.6824185
11
8.7832932
21
-1.642504
0
LINE
8
layer0
10
8.7832932
20
-1.642504
11
8.6218709
21
-1.6179892
0
LINE
8
layer0
10
8.6218709
20
-1.6179892
11
8.4373784
21
-1.6108127
0
LINE
8
layer0
10
8.4373784
20
-1.6108127
11
8.2310336
21
-1.6228506
0
LINE
8
layer0
10
8.2310336
20
-1.6228506
11
7.9225263
21
-1.6699816
0
LINE
8
layer0
10
7.9225263
20
-1.6699816
11
7.803551
21
-1.6716786
0
LINE
8
layer0
10
7.803551
20
-1.6716786
11
7.5923913
21
-1.6574083
0
LINE
8
layer0
10
7.5923913
20
-1.6574083
11
7.292683
21
-1.6120012
0
LINE
8
layer0
10
7.292683
20
-1.6120012
11
7.111043
21
-1.5730124
0
LINE
8
layer0
10
7.111043
20
-1.5730124
11
6.9074522
21
-1.5203144
0
LINE
8
layer0
10
6.9074522
20
-1.5203144
11
6.6851999
21
-1.4527255
0
LINE
8
layer0
10
6.6851999
20
-1.4527255
11
6.4433099
21
-1.3679455
0
LINE
8
layer0
10
6.4433099
20
-1.3679455
11
6.1851376
21
-1.2651264
0
LINE
8
layer0
10
6.1851376
20
-1.2651264
11
5.9094417
21
-1.1417512
0
LINE
8
layer0
10
5.9094417
20
-1.1417512
11
5.6194725
21
-0.9971397
0
LINE
8
layer0
10
5.6194725
20
-0.9971397
11
5.3138922
21
-0.828397
0
LINE
8
layer0
10
5.3138922
20
-0.828397
11
5.0130791
21
-0.6455059
0
ARC
8
layer0
10
21.0000526
20
0
40
16
50
177.6878251
51
182.3121753
0
LINE
8
layer0
10
5.0130791
20
0.6455059
11
5.3138922
21
0.828397
0
LINE
8
layer0
10
5.3138922
20
0.828397
11
5.6194725
21
0.9971397
0
LINE
8
layer0
10
5.6194725
20
0.9971397
11
5.9094417
21
1.1417512
0
LINE
8
layer0
10
5.9094417
20
1.1417512
11
6.1851376
21
1.2651264
0
LINE
8
layer0
10
6.1851376
20
1.2651264
11
6.4433099
21
1.3679455
0
LINE
8
layer0
10
6.4433099
20
1.3679455
11
6.6851999
21
1.4527255
0
LINE
8
layer0
10
6.6851999
20
1.4527255
11
6.9074522
21
1.5203144
0
LINE
8
layer0
10
6.9074522
20
1.5203144
11
7.111043
21
1.5730124
0
LINE
8
layer0
10
7.111043
20
1.5730124
11
7.292683
21
1.6120012
0
LINE
8
layer0
10
7.292683
20
1.6120012
11
7.5923913
21
1.6574083
0
LINE
8
layer0
10
7.5923913
20
1.6574083
11
7.803551
21
1.6716786
0
LINE
8
layer0
10
7.803551
20
1.6716786
11
7.9225263
21
1.6699816
0
LINE
8
layer0
10
7.9225263
20
1.6699816
11
8.2310336
21
1.6228506
0
LINE
8
layer0
10
8.2310336
20
1.6228506
11
8.4373784
21
1.6108127
0
LINE
8
layer0
10
8.4373784
20
1.6108127
11
8.6218709
21
1.6179892
0
LINE
8
layer0
10
8.6218709
20
1.6179892
11
8.7832932
21
1.642504
0
LINE
8
layer0
10
8.7832932
20
1.642504
11
8.9205667
21
1.6824185
0
LINE
8
layer0
10
8.9205667
20
1.6824185
11
9.0327257
21
1.7357479
0
LINE
8
layer0
10
9.0327257
20
1.7357479
11
9.1189295
21
1.8004274
0
LINE
8
layer0
10
9.1189295
20
1.8004274
11
9.1520618
21
1.8363863
0
LINE
8
layer0
10
9.1520618
20
1.8363863
11
9.1784592
21
1.874385
0
LINE
8
layer0
10
9.1784592
20
1.874385
11
9.1980247
21
1.914179
0
LINE
8
layer0
10
9.1980247
20
1.914179
11
9.2128206
21
1.9660163
0
LINE
8
layer0
10
9.2128206
20
1.9660163
11
9.3028214
21
2.4453163
0
LINE
8
layer0
10
9.3028214
20
2.4453163
11
9.3496114
21
2.6591252
0
LINE
8
layer0
10
9.3496114
20
2.6591252
11
9.4002232
21
2.8720617
0
LINE
8
layer0
10
9.4002232
20
2.8720617
11
9.5270958
21
3.342946
0
LINE
8
layer0
10
9.5270958
20
3.342946
11
9.5362566
21
3.3960694
0
LINE
8
layer0
10
9.5362566
20
3.3960694
11
9.5358946
21
3.4404118
0
LINE
8
layer0
10
9.5358946
20
3.4404118
11
9.5285984
21
3.4861008
0
LINE
8
layer0
10
9.5285984
20
3.4861008
11
9.5143492
21
3.5328743
0
LINE
8
layer0
10
9.5143492
20
3.5328743
11
9.4647456
21
3.6285509
0
LINE
8
layer0
10
9.4647456
20
3.6285509
11
9.3868326
21
3.725263
0
LINE
8
layer0
10
9.3868326
20
3.725263
11
9.2804717
21
3.8207855
0
LINE
8
layer0
10
9.2804717
20
3.8207855
11
9.1456719
21
3.912911
0
LINE
8
layer0
10
9.1456719
20
3.912911
11
8.9825636
21
3.9994251
0
LINE
8
layer0
10
8.9825636
20
3.9994251
11
8.7914303
21
4.078109
0
LINE
8
layer0
10
8.7914303
20
4.078109
11
8.4930255
21
4.1695018
0
LINE
8
layer0
10
8.4930255
20
4.1695018
11
8.3850961
21
4.2195942
0
LINE
8
layer0
10
8.3850961
20
4.2195942
11
8.2010395
21
4.3240701
0
LINE
8
layer0
10
8.2010395
20
4.3240701
11
7.950713
21
4.4950191
0
LINE
8
layer0
10
7.950713
20
4.4950191
11
7.8039777
21
4.6089574
0
LINE
8
layer0
10
7.8039777
20
4.6089574
11
7.6434135
21
4.7447714
0
LINE
8
layer0
10
7.6434135
20
4.7447714
11
7.4724968
21
4.9020985
0
LINE
8
layer0
10
7.4724968
20
4.9020985
11
7.2913461
21
5.0834348
0
LINE
8
layer0
10
7.2913461
20
5.0834348
11
7.1033524
21
5.2880884
0
LINE
8
layer0
10
7.1033524
20
5.2880884
11
6.9084895
21
5.5188656
0
LINE
8
layer0
10
6.9084895
20
5.5188656
11
6.7099809
21
5.7749689
0
LINE
8
layer0
10
6.7099809
20
5.7749689
11
6.5078772
21
6.0595872
0
LINE
8
layer0
10
6.5078772
20
6.0595872
11
6.3162074
21
6.3548843
0
ARC
8
layer0
10
21.0000474
20
-0.0000227
40
16
50
151.9735397
51
156.59789
0
LINE
8
layer0
10
6.8763564
20
7.5180457
11
7.2267332
21
7.552307
0
LINE
8
layer0
10
7.2267332
20
7.552307
11
7.5752663
21
7.5717526
0
LINE
8
layer0
10
7.5752663
20
7.5717526
11
7.8992641
21
7.5762301
0
LINE
8
layer0
10
7.8992641
20
7.5762301
11
8.2011879
21
7.5677674
0
LINE
8
layer0
10
8.2011879
20
7.5677674
11
8.4784047
21
7.5483875
0
LINE
8
layer0
10
8.4784047
20
7.5483875
11
8.7331248
21
7.5198195
0
LINE
8
layer0
10
8.7331248
20
7.5198195
11
8.9626928
21
7.4842833
0
LINE
8
layer0
10
8.9626928
20
7.4842833
11
9.1689867
21
7.4434278
0
LINE
8
layer0
10
9.1689867
20
7.4434278
11
9.3495552
21
7.3997449
0
LINE
8
layer0
10
9.3495552
20
7.3997449
11
9.6392845
21
7.3106167
0
LINE
8
layer0
10
9.6392845
20
7.3106167
11
9.8357244
21
7.2318551
0
LINE
8
layer0
10
9.8357244
20
7.2318551
11
9.9421812
21
7.1787046
0
LINE
8
layer0
10
9.9421812
20
7.1787046
11
10.1996873
21
7.0023847
0
LINE
8
layer0
10
10.1996873
20
7.0023847
11
10.3803745
21
6.9020094
0
LINE
8
layer0
10
10.3803745
20
6.9020094
11
10.5497103
21
6.8284268
0
LINE
8
layer0
10
10.5497103
20
6.8284268
11
10.7057833
21
6.7804754
0
LINE
8
layer0
10
10.7057833
20
6.7804754
11
10.8467807
21
6.7568764
0
LINE
8
layer0
10
10.8467807
20
6.7568764
11
10.9709712
21
6.7562605
0
LINE
8
layer0
10
10.9709712
20
6.7562605
11
11.0767016
21
6.7771323
0
LINE
8
layer0
10
11.0767016
20
6.7771323
11
11.1221547
21
6.7951546
0
LINE
8
layer0
10
11.1221547
20
6.7951546
11
11.162425
21
6.8179369
0
LINE
8
layer0
10
11.162425
20
6.8179369
11
11.1973189
21
6.8453009
0
LINE
8
layer0
10
11.1973189
20
6.8453009
11
11.2331408
21
6.885585
0
LINE
8
layer0
10
11.2331408
20
6.885585
11
11.5221892
21
7.2783695
0
LINE
8
layer0
10
11.5221892
20
7.2783695
11
11.6571138
21
7.4507031
0
LINE
8
layer0
10
11.6571138
20
7.4507031
11
11.7951032
21
7.6205927
0
LINE
8
layer0
10
11.7951032
20
7.6205927
11
12.1137204
21
7.9897968
0
LINE
8
layer0
10
12.1137204
20
7.9897968
11
12.1450234
21
8.0336847
0
LINE
8
layer0
10
12.1450234
20
8.0336847
11
12.1639366
21
8.0737928
0
LINE
8
layer0
10
12.1639366
20
8.0737928
11
12.1771868
21
8.1181229
0
LINE
8
layer0
10
12.1771868
20
8.1181229
11
12.1846429
21
8.1664468
0
LINE
8
layer0
10
12.1846429
20
8.1664468
11
12.1814642
21
8.2741707
0
LINE
8
layer0
10
12.1814642
20
8.2741707
11
12.1532288
21
8.3951104
0
LINE
8
layer0
10
12.1532288
20
8.3951104
11
12.0988465
21
8.5273215
0
LINE
8
layer0
10
12.0988465
20
8.5273215
11
12.0173679
21
8.6688112
0
LINE
8
layer0
10
12.0173679
20
8.6688112
11
11.9079494
21
8.8175278
0
LINE
8
layer0
10
11.9079494
20
8.8175278
11
11.769884
21
8.9713492
0
LINE
8
layer0
10
11.769884
20
8.9713492
11
11.5406843
21
9.1831642
0
LINE
8
layer0
10
11.5406843
20
9.1831642
11
11.4651776
21
9.2751247
0
LINE
8
layer0
10
11.4651776
20
9.2751247
11
11.3446787
21
9.4491134
0
LINE
8
layer0
10
11.3446787
20
9.4491134
11
11.1933143
21
9.7117457
0
LINE
8
layer0
10
11.1933143
20
9.7117457
11
11.1105464
21
9.8780666
0
LINE
8
layer0
10
11.1105464
20
9.8780666
11
11.0248105
21
10.0700971
0
LINE
8
layer0
10
11.0248105
20
10.0700971
11
10.9390816
21
10.2860018
0
LINE
8
layer0
10
10.9390816
20
10.2860018
11
10.8545493
21
10.5279785
0
LINE
8
layer0
10
10.8545493
20
10.5279785
11
10.7739687
21
10.7939325
0
LINE
8
layer0
10
10.7739687
20
10.7939325
11
10.6985338
21
11.0864033
0
LINE
8
layer0
10
10.6985338
20
11.0864033
11
10.6308028
21
11.4032742
0
LINE
8
layer0
10
10.6308028
20
11.4032742
11
10.5722049
21
11.7473958
0
LINE
8
layer0
10
10.5722049
20
11.7473958
11
10.527641
21
12.0966118
0
ARC
8
layer0
10
21.0000333
20
-0.0000407
40
16
50
126.2592557
51
130.8836061
0
LINE
8
layer0
10
11.5369946
20
12.9015444
11
11.8675386
21
12.78039
0
LINE
8
layer0
10
11.8675386
20
12.78039
11
12.1899932
21
12.646687
0
LINE
8
layer0
10
12.1899932
20
12.646687
11
12.4838479
21
12.5101438
0
LINE
8
layer0
10
12.4838479
20
12.5101438
11
12.7522
21
12.3715193
0
LINE
8
layer0
10
12.7522
20
12.3715193
11
12.9935551
21
12.2337787
0
LINE
8
layer0
10
12.9935551
20
12.2337787
11
13.2106547
21
12.0975209
0
LINE
8
layer0
10
13.2106547
20
12.0975209
11
13.4020698
21
11.9658981
0
LINE
8
layer0
10
13.4020698
20
11.9658981
11
13.5702076
21
11.839581
0
LINE
8
layer0
10
13.5702076
20
11.839581
11
13.7139409
21
11.7218783
0
LINE
8
layer0
10
13.7139409
20
11.7218783
11
13.9363067
21
11.5158678
0
LINE
8
layer0
10
13.9363067
20
11.5158678
11
14.0791196
21
11.3596739
0
LINE
8
layer0
10
14.0791196
20
11.3596739
11
14.1519727
21
11.2655971
0
LINE
8
layer0
10
14.1519727
20
11.2655971
11
14.3074753
21
10.9950107
0
LINE
8
layer0
10
14.3074753
20
10.9950107
11
14.4267177
21
10.8261784
0
LINE
8
layer0
10
14.4267177
20
10.8261784
11
14.5473577
21
10.6864108
0
LINE
8
layer0
10
14.5473577
20
10.6864108
11
14.6671692
21
10.5754905
0
LINE
8
layer0
10
14.6671692
20
10.5754905
11
14.7839643
21
10.493052
0
LINE
8
layer0
10
14.7839643
20
10.493052
11
14.8955888
21
10.4386129
0
LINE
8
layer0
10
14.8955888
20
10.4386129
11
14.9999045
21
10.411543
0
LINE
8
layer0
10
14.9999045
20
10.411543
11
15.048676
21
10.4080592
0
LINE
8
layer0
10
15.048676
20
10.4080592
11
15.0948431
21
10.4111127
0
LINE
8
layer0
10
15.0948431
20
10.4111127
11
15.1381542
21
10.4206269
0
LINE
8
layer0
10
15.1381542
20
10.4206269
11
15.1879073
21
10.4413791
0
LINE
8
layer0
10
15.1879073
20
10.4413791
11
15.6187537
21
10.6698523
0
LINE
8
layer0
10
15.6187537
20
10.6698523
11
15.8150893
21
10.766578
0
LINE
8
layer0
10
15.8150893
20
10.766578
11
16.0131258
21
10.8597719
0
LINE
8
layer0
10
16.0131258
20
10.8597719
11
16.4603817
21
11.0541704
0
LINE
8
layer0
10
16.4603817
20
11.0541704
11
16.5076269
21
11.0801302
0
LINE
8
layer0
10
16.5076269
20
11.0801302
11
16.5420694
21
11.1080602
0
LINE
8
layer0
10
16.5420694
20
11.1080602
11
16.5732415
21
11.1422512
0
LINE
8
layer0
10
16.5732415
20
11.1422512
11
16.6009262
21
11.1825544
0
LINE
8
layer0
10
16.6009262
20
11.1825544
11
16.6448019
21
11.2809895
0
LINE
8
layer0
10
16.6448019
20
11.2809895
11
16.6718365
21
11.4022033
0
LINE
8
layer0
10
16.6718365
20
11.4022033
11
16.680204
21
11.5449169
0
LINE
8
layer0
10
16.680204
20
11.5449169
11
16.6681843
21
11.7077471
0
LINE
8
layer0
10
16.6681843
20
11.7077471
11
16.6341274
21
11.8892109
0
LINE
8
layer0
10
16.6341274
20
11.8892109
11
16.5764753
21
12.0877035
0
LINE
8
layer0
10
16.5764753
20
12.0877035
11
16.4618767
21
12.3779883
0
LINE
8
layer0
10
16.4618767
20
12.3779883
11
16.4337477
21
12.493603
0
LINE
8
layer0
10
16.4337477
20
12.493603
11
16.4006728
21
12.7026439
0
LINE
8
layer0
10
16.4006728
20
12.7026439
11
16.37825
21
13.004942
0
LINE
8
layer0
10
16.37825
20
13.004942
11
16.3758426
21
13.1907036
0
LINE
8
layer0
10
16.3758426
20
13.1907036
11
16.3819162
21
13.4009165
0
LINE
8
layer0
10
16.3819162
20
13.4009165
11
16.3983546
21
13.6326363
0
LINE
8
layer0
10
16.3983546
20
13.6326363
11
16.4271834
21
13.887327
0
LINE
8
layer0
10
16.4271834
20
13.887327
11
16.469976
21
14.1619058
0
LINE
8
layer0
10
16.469976
20
14.1619058
11
16.5289098
21
14.4581429
0
LINE
8
layer0
10
16.5289098
20
14.4581429
11
16.6053713
21
14.7730211
0
LINE
8
layer0
10
16.6053713
20
14.7730211
11
16.7018853
21
15.1084887
0
LINE
8
layer0
10
16.7018853
20
15.1084887
11
16.8132537
21
15.4424569
0
ARC
8
layer0
10
21.0000112
20
-0.0000514
40
16
50
100.5449659
51
105.1693162
0
LINE
8
layer0
10
18.0718971
20
15.729734
11
18.31714
21
15.47716
0
LINE
8
layer0
10
18.31714
20
15.47716
11
18.54965
21
15.21679
0
LINE
8
layer0
10
18.54965
20
15.21679
11
18.75516
21
14.96627
0
LINE
8
layer0
10
18.75516
20
14.96627
11
18.93679
21
14.72494
0
LINE
8
layer0
10
18.93679
20
14.72494
11
19.09448
21
14.49612
0
LINE
8
layer0
10
19.09448
20
14.49612
11
19.23096
21
14.27916
0
LINE
8
layer0
10
19.23096
20
14.27916
11
19.34631
21
14.07752
0
LINE
8
layer0
10
19.34631
20
14.07752
11
19.44299
21
13.89076
0
LINE
8
layer0
10
19.44299
20
13.89076
11
19.52142
21
13.72235
0
LINE
8
layer0
10
19.52142
20
13.72235
11
19.63238
21
13.44026
0
LINE
8
layer0
10
19.63238
20
13.44026
11
19.69328
21
13.23757
0
LINE
8
layer0
10
19.69328
20
13.23757
11
19.7181
21
13.1212
0
LINE
8
layer0
10
19.7181
20
13.1212
11
19.7408
21
12.80994
0
LINE
8
layer0
10
19.7408
20
12.80994
11
19.77498
21
12.60609
0
LINE
8
layer0
10
19.77498
20
12.60609
11
19.82303
21
12.42782
0
LINE
8
layer0
10
19.82303
20
12.42782
11
19.88285
21
12.2759
0
LINE
8
layer0
10
19.88285
20
12.2759
11
19.95231
21
12.15095
0
LINE
8
layer0
10
19.95231
20
12.15095
11
20.02926
21
12.05347
0
LINE
8
layer0
10
20.02926
20
12.05347
11
20.1115
21
11.98382
0
LINE
8
layer0
10
20.1115
20
11.98382
11
20.15393
21
11.95952
0
LINE
8
layer0
10
20.15393
20
11.95952
11
20.19685
21
11.94224
0
LINE
8
layer0
10
20.19685
20
11.94224
11
20.24
21
11.93202
0
LINE
8
layer0
10
20.24
20
11.93202
11
20.29383
21
11.92913
0
LINE
8
layer0
10
20.29383
20
11.92913
11
20.78114
21
11.94804
0
LINE
8
layer0
10
20.78114
20
11.94804
11
21
21
11.95
0
LINE
8
layer0
10
21
20
11.95
11
21.21886
21
11.94804
0
LINE
8
layer0
10
21.21886
20
11.94804
11
21.70617
21
11.92913
0
LINE
8
layer0
10
21.70617
20
11.92913
11
21.76
21
11.93202
0
LINE
8
layer0
10
21.76
20
11.93202
11
21.80315
21
11.94224
0
LINE
8
layer0
10
21.80315
20
11.94224
11
21.84607
21
11.95952
0
LINE
8
layer0
10
21.84607
20
11.95952
11
21.8885
21
11.98382
0
LINE
8
layer0
10
21.8885
20
11.98382
11
21.97074
21
12.05347
0
LINE
8
layer0
10
21.97074
20
12.05347
11
22.04769
21
12.15095
0
LINE
8
layer0
10
22.04769
20
12.15095
11
22.11715
21
12.2759
0
LINE
8
layer0
10
22.11715
20
12.2759
11
22.17697
21
12.42782
0
LINE
8
layer0
10
22.17697
20
12.42782
11
22.22502
21
12.60609
0
LINE
8
layer0
10
22.22502
20
12.60609
11
22.2592
21
12.80994
0
LINE
8
layer0
10
22.2592
20
12.80994
11
22.2819
21
13.1212
0
LINE
8
layer0
10
22.2819
20
13.1212
11
22.30672
21
13.23757
0
LINE
8
layer0
10
22.30672
20
13.23757
11
22.36762
21
13.44026
0
LINE
8
layer0
10
22.36762
20
13.44026
11
22.47858
21
13.72235
0
LINE
8
layer0
10
22.47858
20
13.72235
11
22.55701
21
13.89076
0
LINE
8
layer0
10
22.55701
20
13.89076
11
22.65369
21
14.07752
0
LINE
8
layer0
10
22.65369
20
14.07752
11
22.76904
21
14.27916
0
LINE
8
layer0
10
22.76904
20
14.27916
11
22.90552
21
14.49612
0
LINE
8
layer0
10
22.90552
20
14.49612
11
23.06321
21
14.72494
0
LINE
8
layer0
10
23.06321
20
14.72494
11
23.24484
21
14.96627
0
LINE
8
layer0
10
23.24484
20
14.96627
11
23.45035
21
15.21679
0
LINE
8
layer0
10
23.45035
20
15.21679
11
23.68286
21
15.47716
0
LINE
8
layer0
10
23.68286
20
15.47716
11
23.9281029
21
15.729734
0
ARC
8
layer0
10
20.9999888
20
-0.0000514
40
16
50
74.8306838
51
79.4550341
0
LINE
8
layer0
10
25.1867463
20
15.4424569
11
25.2981147
21
15.1084887
0
LINE
8
layer0
10
25.2981147
20
15.1084887
11
25.3946287
21
14.7730211
0
LINE
8
layer0
10
25.3946287
20
14.7730211
11
25.4710902
21
14.4581429
0
LINE
8
layer0
10
25.4710902
20
14.4581429
11
25.530024
21
14.1619058
0
LINE
8
layer0
10
25.530024
20
14.1619058
11
25.5728166
21
13.887327
0
LINE
8
layer0
10
25.5728166
20
13.887327
11
25.6016454
21
13.6326363
0
LINE
8
layer0
10
25.6016454
20
13.6326363
11
25.6180838
21
13.4009165
0
LINE
8
layer0
10
25.6180838
20
13.4009165
11
25.6241574
21
13.1907036
0
LINE
8
layer0
10
25.6241574
20
13.1907036
11
25.62175
21
13.004942
0
LINE
8
layer0
10
25.62175
20
13.004942
11
25.5993272
21
12.7026439
0
LINE
8
layer0
10
25.5993272
20
12.7026439
11
25.5662523
21
12.493603
0
LINE
8
layer0
10
25.5662523
20
12.493603
11
25.5381233
21
12.3779883
0
LINE
8
layer0
10
25.5381233
20
12.3779883
11
25.4235247
21
12.0877035
0
LINE
8
layer0
10
25.4235247
20
12.0877035
11
25.3658726
21
11.8892109
0
LINE
8
layer0
10
25.3658726
20
11.8892109
11
25.3318157
21
11.7077471
0
LINE
8
layer0
10
25.3318157
20
11.7077471
11
25.319796
21
11.5449169
0
LINE
8
layer0
10
25.319796
20
11.5449169
11
25.3281635
21
11.4022033
0
LINE
8
layer0
10
25.3281635
20
11.4022033
11
25.3551981
21
11.2809895
0
LINE
8
layer0
10
25.3551981
20
11.2809895
11
25.3990738
21
11.1825544
0
LINE
8
layer0
10
25.3990738
20
11.1825544
11
25.4267585
21
11.1422512
0
LINE
8
layer0
10
25.4267585
20
11.1422512
11
25.4579306
21
11.1080602
0
LINE
8
layer0
10
25.4579306
20
11.1080602
11
25.4923731
21
11.0801302
0
LINE
8
layer0
10
25.4923731
20
11.0801302
11
25.5396183
21
11.0541704
0
LINE
8
layer0
10
25.5396183
20
11.0541704
11
25.9868742
21
10.8597719
0
LINE
8
layer0
10
25.9868742
20
10.8597719
11
26.1849107
21
10.766578
0
LINE
8
layer0
10
26.1849107
20
10.766578
11
26.3812463
21
10.6698523
0
LINE
8
layer0
10
26.3812463
20
10.6698523
11
26.8120927
21
10.4413791
0
LINE
8
layer0
10
26.8120927
20
10.4413791
11
26.8618458
21
10.4206269
0
LINE
8
layer0
10
26.8618458
20
10.4206269
11
26.9051569
21
10.4111127
0
LINE
8
layer0
10
26.9051569
20
10.4111127
11
26.951324
21
10.4080592
0
LINE
8
layer0
10
26.951324
20
10.4080592
11
27.0000955
21
10.411543
0
LINE
8
layer0
10
27.0000955
20
10.411543
11
27.1044112
21
10.4386129
0
LINE
8
layer0
10
27.1044112
20
10.4386129
11
27.2160357
21
10.493052
0
LINE
8
layer0
10
27.2160357
20
10.493052
11
27.3328308
21
10.5754905
0
LINE
8
layer0
10
27.3328308
20
10.5754905
11
27.4526423
21
10.6864108
0
LINE
8
layer0
10
27.4526423
20
10.6864108
11
27.5732823
21
10.8261784
0
LINE
8
layer0
10
27.5732823
20
10.8261784
11
27.6925247
21
10.9950107
0
LINE
8
layer0
10
27.6925247
20
10.9950107
11
27.8480273
21
11.2655971
0
LINE
8
layer0
10
27.8480273
20
11.2655971
11
27.9208804
21
11.3596739
0
LINE
8
layer0
10
27.9208804
20
11.3596739
11
28.0636933
21
11.5158678
0
LINE
8
layer0
10
28.0636933
20
11.5158678
11
28.2860591
21
11.7218783
0
LINE
8
layer0
10
28.2860591
20
11.7218783
11
28.4297924
21
11.839581
0
LINE
8
layer0
10
28.4297924
20
11.839581
11
28.5979302
21
11.9658981
0
LINE
8
layer0
10
28.5979302
20
11.9658981
11
28.7893453
21
12.0975209
0
LINE
8
layer0
10
28.7893453
20
12.0975209
11
29.0064449
21
12.2337787
0
LINE
8
layer0
10
29.0064449
20
12.2337787
11
29.2478
21
12.3715193
0
LINE
8
layer0
10
29.2478
20
12.3715193
11
29.5161521
21
12.5101438
0
LINE
8
layer0
10
29.5161521
20
12.5101438
11
29.8100068
21
12.646687
0
LINE
8
layer0
10
29.8100068
20
12.646687
11
30.1324614
21
12.78039
0
LINE
8
layer0
10
30.1324614
20
12.78039
11
30.4630054
21
12.9015444
0
ARC
8
layer0
10
20.9999668
20
-0.0000408
40
16
50
49.1163942
51
53.7407445
0
LINE
8
layer0
10
31.472359
20
12.0966118
11
31.4277951
21
11.7473958
0
LINE
8
layer0
10
31.4277951
20
11.7473958
11
31.3691972
21
11.4032742
0
LINE
8
layer0
10
31.3691972
20
11.4032742
11
31.3014662
21
11.0864033
0
LINE
8
layer0
10
31.3014662
20
11.0864033
11
31.2260313
21
10.7939325
0
LINE
8
layer0
10
31.2260313
20
10.7939325
11
31.1454507
21
10.5279785
0
LINE
8
layer0
10
31.1454507
20
10.5279785
11
31.0609184
21
10.2860018
0
LINE
8
layer0
10
31.0609184
20
10.2860018
11
30.9751895
21
10.0700971
0
LINE
8
layer0
10
30.9751895
20
10.0700971
11
30.8894536
21
9.8780666
0
LINE
8
layer0
10
30.8894536
20
9.8780666
11
30.8066857
21
9.7117457
0
LINE
8
layer0
10
30.8066857
20
9.7117457
11
30.6553213
21
9.4491134
0
LINE
8
layer0
10
30.6553213
20
9.4491134
11
30.5348224
21
9.2751247
0
LINE
8
layer0
10
30.5348224
20
9.2751247
11
30.4593157
21
9.1831642
0
LINE
8
layer0
10
30.4593157
20
9.1831642
11
30.230116
21
8.9713492
0
LINE
8
layer0
10
30.230116
20
8.9713492
11
30.0920506
21
8.8175278
0
LINE
8
layer0
10
30.0920506
20
8.8175278
11
29.9826321
21
8.6688112
0
LINE
8
layer0
10
29.9826321
20
8.6688112
11
29.9011535
21
8.5273215
0
LINE
8
layer0
10
29.9011535
20
8.5273215
11
29.8467712
21
8.3951104
0
LINE
8
layer0
10
29.8467712
20
8.3951104
11
29.8185358
21
8.2741707
0
LINE
8
layer0
10
29.8185358
20
8.2741707
11
29.8153571
21
8.1664468
0
LINE
8
layer0
10
29.8153571
20
8.1664468
11
29.8228132
21
8.1181229
0
LINE
8
layer0
10
29.8228132
20
8.1181229
11
29.8360634
21
8.0737928
0
LINE
8
layer0
10
29.8360634
20
8.0737928
11
29.8549766
21
8.0336847
0
LINE
8
layer0
10
29.8549766
20
8.0336847
11
29.8862796
21
7.9897968
0
LINE
8
layer0
10
29.8862796
20
7.9897968
11
30.2048968
21
7.6205927
0
LINE
8
layer0
10
30.2048968
20
7.6205927
11
30.3428862
21
7.4507031
0
LINE
8
layer0
10
30.3428862
20
7.4507031
11
30.4778108
21
7.2783695
0
LINE
8
layer0
10
30.4778108
20
7.2783695
11
30.7668592
21
6.885585
0
LINE
8
layer0
10
30.7668592
20
6.885585
11
30.8026811
21
6.8453009
0
LINE
8
layer0
10
30.8026811
20
6.8453009
11
30.837575
21
6.8179369
0
LINE
8
layer0
10
30.837575
20
6.8179369
11
30.8778453
21
6.7951546
0
LINE
8
layer0
10
30.8778453
20
6.7951546
11
30.9232984
21
6.7771323
0
LINE
8
layer0
10
30.9232984
20
6.7771323
11
31.0290288
21
6.7562605
0
LINE
8
layer0
10
31.0290288
20
6.7562605
11
31.1532193
21
6.7568764
0
LINE
8
layer0
10
31.1532193
20
6.7568764
11
31.2942167
21
6.7804754
0
LINE
8
layer0
10
31.2942167
20
6.7804754
11
31.4502897
21
6.8284268
0
LINE
8
layer0
10
31.4502897
20
6.8284268
11
31.6196255
21
6.9020094
0
LINE
8
layer0
10
31.6196255
20
6.9020094
11
31.8003127
21
7.0023847
0
LINE
8
layer0
10
31.8003127
20
7.0023847
11
32.0578188
21
7.1787046
0
LINE
8
layer0
10
32.0578188
20
7.1787046
11
32.1642756
21
7.2318551
0
LINE
8
layer0
10
32.1642756
20
7.2318551
11
32.3607155
21
7.3106167
0
LINE
8
layer0
10
32.3607155
20
7.3106167
11
32.6504448
21
7.3997449
0
LINE
8
layer0
10
32.6504448
20
7.3997449
11
32.8310133
21
7.4434278
0
LINE
8
layer0
10
32.8310133
20
7.4434278
11
33.0373072
21
7.4842833
0
LINE
8
layer0
10
33.0373072
20
7.4842833
11
33.2668752
21
7.5198195
0
LINE
8
layer0
10
33.2668752
20
7.5198195
11
33.5215953
21
7.5483875
0
LINE
8
layer0
10
33.5215953
20
7.5483875
11
33.7988121
21
7.5677674
0
LINE
8
layer0
10
33.7988121
20
7.5677674
11
34.1007359
21
7.5762301
0
LINE
8
layer0
10
34.1007359
20
7.5762301
11
34.4247337
21
7.5717526
0
LINE
8
layer0
10
34.4247337
20
7.5717526
11
34.7732668
21
7.552307
0
LINE
8
layer0
10
34.7732668
20
7.552307
11
35.1236436
21
7.5180457
0
ARC
8
layer0
10
20.9999526
20
-0.0000228
40
16
50
23.4021103
51
28.0264606
0
LINE
8
layer0
10
35.6837926
20
6.3548843
11
35.4921228
21
6.0595872
0
LINE
8
layer1
10
35.4921228
20
6.0595872
11
35.2900191
21
5.7749689
0
LINE
8
layer1
10
35.2900191
20
5.7749689
11
35.0915105
21
5.5188656
0
LINE
8
layer1
10
35.0915105
20
5.5188656
11
34.8966476
21
5.2880884
0
LINE
8
layer1
10
34.8966476
20
5.2880884
11
34.7086539
21
5.0834348
0
LINE
8
layer1
10
34.7086539
20
5.0834348
11
34.5275032
21
4.9020985
0
LINE
8
layer1
10
34.5275032
20
4.9020985
11
34.3565865
21
4.7447714
0
LINE
8
layer1
10
34.3565865
20
4.7447714
11
34.1960223
21
4.6089574
0
LINE
8
layer1
10
34.1960223
20
4.6089574
11
34.049287
21
4.4950191
0
LINE
8
layer1
10
34.049287
20
4.4950191
11
33.7989605
21
4.3240701
0
LINE
8
layer1
10
33.7989605
20
4.3240701
11
33.6149039
21
4.2195942
0
LINE
8
layer1
10
33.6149039
20
4.2195942
11
33.5069745
21
4.1695018
0
LINE
8
layer1
10
33.5069745
20
4.1695018
11
33.2085697
21
4.078109
0
LINE
8
layer1
10
33.2085697
20
4.078109
11
33.0174364
21
3.9994251
0
LINE
8
layer1
10
33.0174364
20
3.9994251
11
32.8543281
21
3.912911
0
LINE
8
layer1
10
32.8543281
20
3.912911
11
32.7195283
21
3.8207855
0
LINE
8
layer1
10
32.7195283
20
3.8207855
11
32.6131674
21
3.725263
0
LINE
8
layer1
10
32.6131674
20
3.725263
11
32.5352544
21
3.6285509
0
LINE
8
layer1
10
32.5352544
20
3.6285509
11
32.4856508
21
3.5328743
0
LINE
8
layer1
10
32.4856508
20
3.5328743
11
32.4714016
21
3.4861008
0
LINE
8
layer1
10
32.4714016
20
3.4861008
11
32.4641054
21
3.4404118
0
LINE
8
layer1
10
32.4641054
20
3.4404118
11
32.4637434
21
3.3960694
0
LINE
8
layer1
10
32.4637434
20
3.3960694
11
32.4729042
21
3.342946
0
LINE
8
layer1
10
32.4729042
20
3.342946
11
32.5997768
21
2.8720617
0
LINE
8
layer1
10
32.5997768
20
2.8720617
11
32.6503886
21
2.6591252
0
LINE
8
layer1
10
32.6503886
20
2.6591252
11
32.6971786
21
2.4453163
0
LINE
8
layer1
10
32.6971786
20
2.4453163
11
32.7871794
21
1.9660163
0
LINE
8
layer1
10
32.7871794
20
1.9660163
11
32.8019753
21
1.914179
0
LINE
8
layer1
10
32.8019753
20
1.914179
11
32.8215408
21
1.874385
0
LINE
8
layer1
10
32.8215408
20
1.874385
11
32.8479382
21
1.8363863
0
LINE
8
layer1
10
32.8479382
20
1.8363863
11
32.8810705
21
1.8004274
0
LINE
8
layer1
10
32.8810705
20
1.8004274
11
32.9672743
21
1.7357479
0
LINE
8
layer1
10
32.9672743
20
1.7357479
11
33.0794333
21
1.6824185
0
LINE
8
layer1
10
33.0794333
20
1.6824185
11
33.2167068
21
1.642504
0
LINE
8
layer1
10
33.2167068
20
1.642504
11
33.3781291
21
1.6179892
0
LINE
8
layer1
10
33.3781291
20
1.6179892
11
33.5626216
21
1.6108127
0
LINE
8
layer1
10
33.5626216
20
1.6108127
11
33.7689664
21
1.6228506
0
LINE
8
layer1
10
33.7689664
20
1.6228506
11
34.0774737
21
1.6699816
0
LINE
8
layer1
10
34.0774737
20
1.6699816
11
34.196449
21
1.6716786
0
LINE
8
layer1
10
34.196449
20
1.6716786
11
34.4076087
21
1.6574083
0
LINE
8
layer1
10
34.4076087
20
1.6574083
11
34.707317
21
1.6120012
0
LINE
8
layer1
10
34.707317
20
1.6120012
11
34.888957
21
1.5730124
0
LINE
8
layer1
10
34.888957
20
1.5730124
11
35.0925478
21
1.5203144
0
LINE
8
layer1
10
35.0925478
20
1.5203144
11
35.3148001
21
1.4527255
0
LINE
8
layer1
10
35.3148001
20
1.4527255
11
35.5566901
21
1.3679455
0
LINE
8
layer1
10
35.5566901
20
1.3679455
11
35.8148624
21
1.2651264
0
LINE
8
layer1
10
35.8148624
20
1.2651264
11
36.0905583
21
1.1417512
0
LINE
8
layer1
10
36.0905583
20
1.1417512
11
36.3805275
21
0.9971397
0
LINE
8
layer1
10
36.3805275
20
0.9971397
11
36.6861078
21
0.828397
0
LINE
8
layer1
10
36.6861078
20
0.828397
11
36.9869209
21
0.6455059
0
ARC
8
layer1
10
20.9999474
20
0
40
16
50
357.6878251
51
362.3121753
0
LINE
8
layer1
10
36.9869209
20
-0.6455059
11
36.6861078
21
-0.828397
0
LINE
8
layer1
10
36.6861078
20
-0.828397
11
36.3805275
21
-0.9971397
0
LINE
8
layer1
10
36.3805275
20
-0.9971397
11
36.0905583
21
-1.1417512
0
LINE
8
layer1
10
36.0905583
20
-1.1417512
11
35.8148624
21
-1.2651264
0
LINE
8
layer1
10
35.8148624
20
-1.2651264
11
35.5566901
21
-1.3679455
0
LINE
8
layer1
10
35.5566901
20
-1.3679455
11
35.3148001
21
-1.4527255
0
LINE
8
layer1
10
35.3148001
20
-1.4527255
11
35.0925478
21
-1.5203144
0
LINE
8
layer1
10
35.0925478
20
-1.5203144
11
34.888957
21
-1.5730124
0
LINE
8
layer1
10
34.888957
20
-1.5730124
11
34.707317
21
-1.6120012
0
LINE
8
layer1
10
34.707317
20
-1.6120012
11
34.4076087
21
-1.6574083
0
LINE
8
layer1
10
34.4076087
20
-1.6574083
11
34.196449
21
-1.6716786
0
LINE
8
layer1
10
34.196449
20
-1.6716786
11
34.0774737
21
-1.6699816
0
LINE
8
layer1
10
34.0774737
20
-1.6699816
11
33.7689664
21
-1.6228506
0
LINE
8
layer1
10
33.7689664
20
-1.6228506
11
33.5626216
21
-1.6108127
0
LINE
8
layer1
10
33.5626216
20
-1.6108127
11
33.3781291
21
-1.6179892
0
LINE
8
layer1
10
33.3781291
20
-1.6179892
11
33.2167068
21
-1.642504
0
LINE
8
layer1
10
33.2167068
20
-1.642504
11
33.0794333
21
-1.6824185
0
LINE
8
layer1
10
33.0794333
20
-1.6824185
11
32.9672743
21
-1.7357479
0
LINE
8
layer1
10
32.9672743
20
-1.7357479
11
32.8810705
21
-1.8004274
0
LINE
8
layer1
10
32.8810705
20
-1.8004274
11
32.8479382
21
-1.8363863
0
LINE
8
layer1
10
32.8479382
20
-1.8363863
11
32.8215408
21
-1.874385
0
LINE
8
layer1
10
32.8215408
20
-1.874385
11
32.8019753
21
-1.914179
0
LINE
8
layer1
10
32.8019753
20
-1.914179
11
32.7871794
21
-1.9660163
0
LINE
8
layer1
10
32.7871794
20
-1.9660163
11
32.6971786
21
-2.4453163
0
LINE
8
layer1
10
32.6971786
20
-2.4453163
11
32.6503886
21
-2.6591252
0
LINE
8
layer1
10
32.6503886
20
-2.6591252
11
32.5997768
21
-2.8720617
0
LINE
8
layer1
10
32.5997768
20
-2.8720617
11
32.4729042
21
-3.342946
0
LINE
8
layer1
10
32.4729042
20
-3.342946
11
32.4637434
21
-3.3960694
0
LINE
8
layer1
10
32.4637434
20
-3.3960694
11
32.4641054
21
-3.4404118
0
LINE
8
layer1
10
32.4641054
20
-3.4404118
11
32.4714016
21
-3.4861008
0
LINE
8
layer1
10
32.4714016
20
-3.4861008
11
32.4856508
21
-3.5328743
0
LINE
8
layer1
10
32.4856508
20
-3.5328743
11
32.5352544
21
-3.6285509
0
LINE
8
layer1
10
32.5352544
20
-3.6285509
11
32.6131674
21
-3.725263
0
LINE
8
layer1
10
32.6131674
20
-3.725263
11
32.7195283
21
-3.8207855
0
LINE
8
layer1
10
32.7195283
20
-3.8207855
11
32.8543281
21
-3.912911
0
LINE
8
layer1
10
32.8543281
20
-3.912911
11
33.0174364
21
-3.9994251
0
LINE
8
layer1
10
33.0174364
20
-3.9994251
11
33.2085697
21
-4.078109
0
LINE
8
layer1
10
33.2085697
20
-4.078109
11
33.5069745
21
-4.1695018
0
LINE
8
layer1
10
33.5069745
20
-4.1695018
11
33.6149039
21
-4.2195942
0
LINE
8
layer1
10
33.6149039
20
-4.2195942
11
33.7989605
21
-4.3240701
0
LINE
8
layer1
10
33.7989605
20
-4.3240701
11
34.049287
21
-4.4950191
0
LINE
8
layer1
10
34.049287
20
-4.4950191
11
34.1960223
21
-4.6089574
0
LINE
8
layer1
10
34.1960223
20
-4.6089574
11
34.3565865
21
-4.7447714
0
LINE
8
layer1
10
34.3565865
20
-4.7447714
11
34.5275032
21
-4.9020985
0
LINE
8
layer1
10
34.5275032
20
-4.9020985
11
34.7086539
21
-5.0834348
0
LINE
8
layer1
10
34.7086539
20
-5.0834348
11
34.8966476
21
-5.2880884
0
LINE
8
layer1
10
34.8966476
20
-5.2880884
11
35.0915105
21
-5.5188656
0
LINE
8
layer1
10
35.0915105
20
-5.5188656
11
35.2900191
21
-5.7749689
0
LINE
8
layer1
10
35.2900191
20
-5.7749689
11
35.4921228
21
-6.0595872
0
LINE
8
layer1
10
35.4921228
20
-6.0595872
11
35.6837926
21
-6.3548843
0
ARC
8
layer1
10
20.9999526
20
0.0000227
40
16
50
331.9735397
51
336.59789
0
LINE
8
layer1
10
35.1236436
20
-7.5180457
11
34.7732668
21
-7.552307
0
LINE
8
layer1
10
34.7732668
20
-7.552307
11
34.4247337
21
-7.5717526
0
LINE
8
layer1
10
34.4247337
20
-7.5717526
11
34.1007359
21
-7.5762301
0
LINE
8
layer1
10
34.1007359
20
-7.5762301
11
33.7988121
21
-7.5677674
0
LINE
8
layer1
10
33.7988121
20
-7.5677674
11
33.5215953
21
-7.5483875
0
LINE
8
layer1
10
33.5215953
20
-7.5483875
11
33.2668752
21
-7.5198195
0
LINE
8
layer1
10
33.2668752
20
-7.5198195
11
33.0373072
21
-7.4842833
0
LINE
8
layer1
10
33.0373072
20
-7.4842833
11
32.8310133
21
-7.4434278
0
LINE
8
layer1
10
32.8310133
20
-7.4434278
11
32.6504448
21
-7.3997449
0
LINE
8
layer1
10
32.6504448
20
-7.3997449
11
32.3607155
21
-7.3106167
0
LINE
8
layer1
10
32.3607155
20
-7.3106167
11
32.1642756
21
-7.2318551
0
LINE
8
layer1
10
32.1642756
20
-7.2318551
11
32.0578188
21
-7.1787046
0
LINE
8
layer1
10
32.0578188
20
-7.1787046
11
31.8003127
21
-7.0023847
0
LINE
8
layer1
10
31.8003127
20
-7.0023847
11
31.6196255
21
-6.9020094
0
LINE
8
layer1
10
31.6196255
20
-6.9020094
11
31.4502897
21
-6.8284268
0
LINE
8
layer1
10
31.4502897
20
-6.8284268
11
31.2942167
21
-6.7804754
0
LINE
8
layer1
10
31.2942167
20
-6.7804754
11
31.1532193
21
-6.7568764
0
LINE
8
layer1
10
31.1532193
20
-6.7568764
11
31.0290288
21
-6.7562605
0
LINE
8
layer1
10
31.0290288
20
-6.7562605
11
30.9232984
21
-6.7771323
0
LINE
8
layer1
10
30.9232984
20
-6.7771323
11
30.8778453
21
-6.7951546
0
LINE
8
layer1
10
30.8778453
20
-6.7951546
11
30.837575
21
-6.8179369
0
LINE
8
layer1
10
30.837575
20
-6.8179369
11
30.8026811
21
-6.8453009
0
LINE
8
layer1
10
30.8026811
20
-6.8453009
11
30.7668592
21
-6.885585
0
LINE
8
layer1
10
30.7668592
20
-6.885585
11
30.4778108
21
-7.2783695
0
LINE
8
layer1
10
30.4778108
20
-7.2783695
11
30.3428862
21
-7.4507031
0
LINE
8
layer1
10
30.3428862
20
-7.4507031
11
30.2048968
21
-7.6205927
0
LINE
8
layer1
10
30.2048968
20
-7.6205927
11
29.8862796
21
-7.9897968
0
LINE
8
layer1
10
29.8862796
20
-7.9897968
11
29.8549766
21
-8.0336847
0
LINE
8
layer1
10
29.8549766
20
-8.0336847
11
29.8360634
21
-8.0737928
0
LINE
8
layer1
10
29.8360634
20
-8.0737928
11
29.8228132
21
-8.1181229
0
LINE
8
layer1
10
29.8228132
20
-8.1181229
11
29.8153571
21
-8.1664468
0
LINE
8
layer1
10
29.8153571
20
-8.1664468
11
29.8185358
21
-8.2741707
0
LINE
8
layer1
10
29.8185358
20
-8.2741707
11
29.8467712
21
-8.3951104
0
LINE
8
layer1
10
29.8467712
20
-8.3951104
11
29.9011535
21
-8.5273215
0
LINE
8
layer1
10
29.9011535
20
-8.5273215
11
29.9826321
21
-8.6688112
0
LINE
8
layer1
10
29.9826321
20
-8.6688112
11
30.0920506
21
-8.8175278
0
LINE
8
layer1
10
30.0920506
20
-8.8175278
11
30.230116
21
-8.9713492
0
LINE
8
layer1
10
30.230116
20
-8.9713492
11
30.4593157
21
-9.1831642
0
LINE
8
layer1
10
30.4593157
20
-9.1831642
11
30.5348224
21
-9.2751247
0
LINE
8
layer1
10
30.5348224
20
-9.2751247
11
30.6553213
21
-9.4491134
0
LINE
8
layer1
10
30.6553213
20
-9.4491134
11
30.8066857
21
-9.7117457
0
LINE
8
layer1
10
30.8066857
20
-9.7117457
11
30.8894536
21
-9.8780666
0
LINE
8
layer1
10
30.8894536
20
-9.8780666
11
30.9751895
21
-10.0700971
0
LINE
8
layer1
10
30.9751895
20
-10.0700971
11
31.0609184
21
-10.2860018
0
LINE
8
layer1
10
31.0609184
20
-10.2860018
11
31.1454507
21
-10.5279785
0
LINE
8
layer1
10
31.1454507
20
-10.5279785
11
31.2260313
21
-10.7939325
0
LINE
8
layer1
10
31.2260313
20
-10.7939325
11
31.3014662
21
-11.0864033
0
LINE
8
layer1
10
31.3014662
20
-11.0864033
11
31.3691972
21
-11.4032742
0
LINE
8
layer1
10
31.3691972
20
-11.4032742
11
31.4277951
21
-11.7473958
0
LINE
8
layer1
10
31.4277951
20
-11.7473958
11
31.472359
21
-12.0966118
0
ARC
8
layer1
10
20.9999667
20
0.0000407
40
16
50
306.2592557
51
310.8836061
0
LINE
8
layer1
10
30.4630054
20
-12.9015444
11
30.1324614
21
-12.78039
0
LINE
8
layer1
10
30.1324614
20
-12.78039
11
29.8100068
21
-12.646687
0
LINE
8
layer1
10
29.8100068
20
-12.646687
11
29.5161521
21
-12.5101438
0
LINE
8
layer1
10
29.5161521
20
-12.5101438
11
29.2478
21
-12.3715193
0
LINE
8
layer1
10
29.2478
20
-12.3715193
11
29.0064449
21
-12.2337787
0
LINE
8
layer1
10
29.0064449
20
-12.2337787
11
28.7893453
21
-12.0975209
0
LINE
8
layer1
10
28.7893453
20
-12.0975209
11
28.5979302
21
-11.9658981
0
LINE
8
layer1
10
28.5979302
20
-11.9658981
11
28.4297924
21
-11.839581
0
LINE
8
layer1
10
28.4297924
20
-11.839581
11
28.2860591
21
-11.7218783
0
LINE
8
layer1
10
28.2860591
20
-11.7218783
11
28.0636933
21
-11.5158678
0
LINE
8
layer1
10
28.0636933
20
-11.5158678
11
27.9208804
21
-11.3596739
0
LINE
8
layer1
10
27.9208804
20
-11.3596739
11
27.8480273
21
-11.2655971
0
LINE
8
layer1
10
27.8480273
20
-11.2655971
11
27.6925247
21
-10.9950107
0
LINE
8
layer1
10
27.6925247
20
-10.9950107
11
27.5732823
21
-10.8261784
0
LINE
8
layer1
10
27.5732823
20
-10.8261784
11
27.4526423
21
-10.6864108
0
LINE
8
layer1
10
27.4526423
20
-10.6864108
11
27.3328308
21
-10.5754905
0
LINE
8
layer1
10
27.3328308
20
-10.5754905
11
27.2160357
21
-10.493052
0
LINE
8
layer1
10
27.2160357
20
-10.493052
11
27.1044112
21
-10.4386129
0
LINE
8
layer1
10
27.1044112
20
-10.4386129
11
27.0000955
21
-10.411543
0
LINE
8
layer1
10
27.0000955
20
-10.411543
11
26.951324
21
-10.4080592
0
LINE
8
layer1
10
26.951324
20
-10.4080592
11
26.9051569
21
-10.4111127
0
LINE
8
layer1
10
26.9051569
20
-10.4111127
11
26.8618458
21
-10.4206269
0
LINE
8
layer1
10
26.8618458
20
-10.4206269
11
26.8120927
21
-10.4413791
0
LINE
8
layer1
10
26.8120927
20
-10.4413791
11
26.3812463
21
-10.6698523
0
LINE
8
layer1
10
26.3812463
20
-10.6698523
11
26.1849107
21
-10.766578
0
LINE
8
layer1
10
26.1849107
20
-10.766578
11
25.9868742
21
-10.8597719
0
LINE
8
layer1
10
25.9868742
20
-10.8597719
11
25.5396183
21
-11.0541704
0
LINE
8
layer1
10
25.5396183
20
-11.0541704
11
25.4923731
21
-11.0801302
0
LINE
8
layer1
10
25.4923731
20
-11.0801302
11
25.4579306
21
-11.1080602
0
LINE
8
layer1
10
25.4579306
20
-11.1080602
11
25.4267585
21
-11.1422512
0
LINE
8
layer1
10
25.4267585
20
-11.1422512
11
25.3990738
21
-11.1825544
0
LINE
8
layer1
10
25.3990738
20
-11.1825544
11
25.3551981
21
-11.2809895
0
LINE
8
layer1
10
25.3551981
20
-11.2809895
11
25.3281635
21
-11.4022033
0
LINE
8
layer1
10
25.3281635
20
-11.4022033
11
25.319796
21
-11.5449169
0
LINE
8
layer1
10
25.319796
20
-11.5449169
11
25.3318157
21
-11.7077471
0
LINE
8
layer1
10
25.3318157
20
-11.7077471
11
25.3658726
21
-11.8892109
0
LINE
8
layer1
10
25.3658726
20
-11.8892109
11
25.4235247
21
-12.0877035
0
LINE
8
layer1
10
25.4235247
20
-12.0877035
11
25.5381233
21
-12.3779883
0
LINE
8
layer1
10
25.5381233
20
-12.3779883
11
25.5662523
21
-12.493603
0
LINE
8
layer1
10
25.5662523
20
-12.493603
11
25.5993272
21
-12.7026439
0
LINE
8
layer1
10
25.5993272
20
-12.7026439
11
25.62175
21
-13.004942
0
LINE
8
layer1
10
25.62175
20
-13.004942
11
25.6241574
21
-13.1907036
0
LINE
8
layer1
10
25.6241574
20
-13.1907036
11
25.6180838
21
-13.4009165
0
LINE
8
layer1
10
25.6180838
20
-13.4009165
11
25.6016454
21
-13.6326363
0
LINE
8
layer1
10
25.6016454
20
-13.6326363
11
25.5728166
21
-13.887327
0
LINE
8
layer1
10
25.5728166
20
-13.887327
11
25.530024
21
-14.1619058
0
LINE
8
layer1
10
25.530024
20
-14.1619058
11
25.4710902
21
-14.4581429
0
LINE
8
layer1
10
25.4710902
20
-14.4581429
11
25.3946287
21
-14.7730211
0
LINE
8
layer1
10
25.3946287
20
-14.7730211
11
25.2981147
21
-15.1084887
0
LINE
8
layer1
10
25.2981147
20
-15.1084887
11
25.1867463
21
-15.4424569
0
ARC
8
layer1
10
20.9999888
20
0.0000514
40
16
50
280.5449659
51
285.1693162
0
LINE
8
layer1
10
23.9281029
20
-15.729734
11
23.68286
21
-15.47716
0
LINE
8
layer1
10
23.68286
20
-15.47716
11
23.45035
21
-15.21679
0
LINE
8
layer1
10
23.45035
20
-15.21679
11
23.24484
21
-14.96627
0
LINE
8
layer1
10
23.24484
20
-14.96627
11
23.06321
21
-14.72494
0
LINE
8
layer1
10
23.06321
20
-14.72494
11
22.90552
21
-14.49612
0
LINE
8
layer1
10
22.90552
20
-14.49612
11
22.76904
21
-14.27916
0
LINE
8
layer1
10
22.76904
20
-14.27916
11
22.65369
21
-14.07752
0
LINE
8
layer1
10
22.65369
20
-14.07752
11
22.55701
21
-13.89076
0
LINE
8
layer1
10
22.55701
20
-13.89076
11
22.47858
21
-13.72235
0
LINE
8
layer1
10
22.47858
20
-13.72235
11
22.36762
21
-13.44026
0
LINE
8
layer1
10
22.36762
20
-13.44026
11
22.30672
21
-13.23757
0
LINE
8
layer1
10
22.30672
20
-13.23757
11
22.2819
21
-13.1212
0
LINE
8
layer1
10
22.2819
20
-13.1212
11
22.2592
21
-12.80994
0
LINE
8
layer1
10
22.2592
20
-12.80994
11
22.22502
21
-12.60609
0
LINE
8
layer1
10
22.22502
20
-12.60609
11
22.17697
21
-12.42782
0
LINE
8
layer1
10
22.17697
20
-12.42782
11
22.11715
21
-12.2759
0
LINE
8
layer1
10
22.11715
20
-12.2759
11
22.04769
21
-12.15095
0
LINE
8
layer1
10
22.04769
20
-12.15095
11
21.97074
21
-12.05347
0
LINE
8
layer1
10
21.97074
20
-12.05347
11
21.8885
21
-11.98382
0
LINE
8
layer1
10
21.8885
20
-11.98382
11
21.84607
21
-11.95952
0
LINE
8
layer1
10
21.84607
20
-11.95952
11
21.80315
21
-11.94224
0
LINE
8
layer1
10
21.80315
20
-11.94224
11
21.76
21
-11.93202
0
LINE
8
layer1
10
21.76
20
-11.93202
11
21.70617
21
-11.92913
0
LINE
8
layer1
10
21.70617
20
-11.92913
11
21.21886
21
-11.94804
0
LINE
8
layer1
10
21.21886
20
-11.94804
11
21
21
-11.95
0
LINE
8
layer1
10
21
20
-11.95
11
20.78114
21
-11.94804
0
LINE
8
layer1
10
20.78114
20
-11.94804
11
20.29383
21
-11.92913
0
LINE
8
layer1
10
20.29383
20
-11.92913
11
20.24
21
-11.93202
0
LINE
8
layer1
10
20.24
20
-11.93202
11
20.19685
21
-11.94224
0
LINE
8
layer1
10
20.19685
20
-11.94224
11
20.15393
21
-11.95952
0
LINE
8
layer1
10
20.15393
20
-11.95952
11
20.1115
21
-11.98382
0
LINE
8
layer1
10
20.1115
20
-11.98382
11
20.02926
21
-12.05347
0
LINE
8
layer1
10
20.02926
20
-12.05347
11
19.95231
21
-12.15095
0
LINE
8
layer1
10
19.95231
20
-12.15095
11
19.88285
21
-12.2759
0
LINE
8
layer1
10
19.88285
20
-12.2759
11
19.82303
21
-12.42782
0
LINE
8
layer1
10
19.82303
20
-12.42782
11
19.77498
21
-12.60609
0
LINE
8
layer1
10
19.77498
20
-12.60609
11
19.7408
21
-12.80994
0
LINE
8
layer1
10
19.7408
20
-12.80994
11
19.7181
21
-13.1212
0
LINE
8
layer1
10
19.7181
20
-13.1212
11
19.69328
21
-13.23757
0
LINE
8
layer1
10
19.69328
20
-13.23757
11
19.63238
21
-13.44026
0
LINE
8
layer1
10
19.63238
20
-13.44026
11
19.52142
21
-13.72235
0
LINE
8
layer1
10
19.52142
20
-13.72235
11
19.44299
21
-13.89076
0
LINE
8
layer1
10
19.44299
20
-13.89076
11
19.34631
21
-14.07752
0
LINE
8
layer1
10
19.34631
20
-14.07752
11
19.23096
21
-14.27916
0
LINE
8
layer1
10
19.23096
20
-14.27916
11
19.09448
21
-14.49612
0
LINE
8
layer1
10
19.09448
20
-14.49612
11
18.93679
21
-14.72494
0
LINE
8
layer1
10
18.93679
20
-14.72494
11
18.75516
21
-14.96627
0
LINE
8
layer1
10
18.75516
20
-14.96627
11
18.54965
21
-15.21679
0
LINE
8
layer1
10
18.54965
20
-15.21679
11
18.31714
21
-15.47716
0
LINE
8
layer1
10
18.31714
20
-15.47716
11
18.0718971
21
-15.729734
0
ARC
8
layer1
10
21.0000112
20
0.0000514
40
16
50
254.8306838
51
259.4550341
0
LINE
8
layer1
10
16.8132537
20
-15.4424569
11
16.7018853
21
-15.1084887
0
LINE
8
layer1
10
16.7018853
20
-15.1084887
11
16.6053713
21
-14.7730211
0
LINE
8
layer1
10
16.6053713
20
-14.7730211
11
16.5289098
21
-14.4581429
0
LINE
8
layer1
10
16.5289098
20
-14.4581429
11
16.469976
21
-14.1619058
0
LINE
8
layer1
10
16.469976
20
-14.1619058
11
16.4271834
21
-13.887327
0
LINE
8
layer1
10
16.4271834
20
-13.887327
11
16.3983546
21
-13.6326363
0
LINE
8
layer1
10
16.3983546
20
-13.6326363
11
16.3819162
21
-13.4009165
0
LINE
8
layer1
10
16.3819162
20
-13.4009165
11
16.3758426
21
-13.1907036
0
LINE
8
layer1
10
16.3758426
20
-13.1907036
11
16.37825
21
-13.004942
0
LINE
8
layer1
10
16.37825
20
-13.004942
11
16.4006728
21
-12.7026439
0
LINE
8
layer1
10
16.4006728
20
-12.7026439
11
16.4337477
21
-12.493603
0
LINE
8
layer1
10
16.4337477
20
-12.493603
11
16.4618767
21
-12.3779883
0
LINE
8
layer1
10
16.4618767
20
-12.3779883
11
16.5764753
21
-12.0877035
0
LINE
8
layer1
10
16.5764753
20
-12.0877035
11
16.6341274
21
-11.8892109
0
LINE
8
layer1
10
16.6341274
20
-11.8892109
11
16.6681843
21
-11.7077471
0
LINE
8
layer1
10
16.6681843
20
-11.7077471
11
16.680204
21
-11.5449169
0
LINE
8
layer1
10
16.680204
20
-11.5449169
11
16.6718365
21
-11.4022033
0
LINE
8
layer1
10
16.6718365
20
-11.4022033
11
16.6448019
21
-11.2809895
0
LINE
8
layer1
10
16.6448019
20
-11.2809895
11
16.6009262
21
-11.1825544
0
LINE
8
layer1
10
16.6009262
20
-11.1825544
11
16.5732415
21
-11.1422512
0
LINE
8
layer1
10
16.5732415
20
-11.1422512
11
16.5420694
21
-11.1080602
0
LINE
8
layer1
10
16.5420694
20
-11.1080602
11
16.5076269
21
-11.0801302
0
LINE
8
layer1
10
16.5076269
20
-11.0801302
11
16.4603817
21
-11.0541704
0
LINE
8
layer1
10
16.4603817
20
-11.0541704
11
16.0131258
21
-10.8597719
0
LINE
8
layer1
10
16.0131258
20
-10.8597719
11
15.8150893
21
-10.766578
0
LINE
8
layer1
10
15.8150893
20
-10.766578
11
15.6187537
21
-10.6698523
0
LINE
8
layer1
10
15.6187537
20
-10.6698523
11
15.1879073
21
-10.4413791
0
LINE
8
layer1
10
15.1879073
20
-10.4413791
11
15.1381542
21
-10.4206269
0
LINE
8
layer1
10
15.1381542
20
-10.4206269
11
15.0948431
21
-10.4111127
0
LINE
8
layer1
10
15.0948431
20
-10.4111127
11
15.048676
21
-10.4080592
0
LINE
8
layer1
10
15.048676
20
-10.4080592
11
14.9999045
21
-10.411543
0
LINE
8
layer1
10
14.9999045
20
-10.411543
11
14.8955888
21
-10.4386129
0
LINE
8
layer1
10
14.8955888
20
-10.4386129
11
14.7839643
21
-10.493052
0
LINE
8
layer1
10
14.7839643
20
-10.493052
11
14.6671692
21
-10.5754905
0
LINE
8
layer1
10
14.6671692
20
-10.5754905
11
14.5473577
21
-10.6864108
0
LINE
8
layer1
10
14.5473577
20
-10.6864108
11
14.4267177
21
-10.8261784
0
LINE
8
layer1
10
14.4267177
20
-10.8261784
11
14.3074753
21
-10.9950107
0
LINE
8
layer1
10
14.3074753
20
-10.9950107
11
14.1519727
21
-11.2655971
0
LINE
8
layer1
10
14.1519727
20
-11.2655971
11
14.0791196
21
-11.3596739
0
LINE
8
layer1
10
14.0791196
20
-11.3596739
11
13.9363067
21
-11.5158678
0
LINE
8
layer1
10
13.9363067
20
-11.5158678
11
13.7139409
21
-11.7218783
0
LINE
8
layer1
10
13.7139409
20
-11.7218783
11
13.5702076
21
-11.839581
0
LINE
8
layer1
10
13.5702076
20
-11.839581
11
13.4020698
21
-11.9658981
0
LINE
8
layer1
10
13.4020698
20
-11.9658981
11
13.2106547
21
-12.0975209
0
LINE
8
layer1
10
13.2106547
20
-12.0975209
11
12.9935551
21
-12.2337787
0
LINE
8
layer1
10
12.9935551
20
-12.2337787
11
12.7522
21
-12.3715193
0
LINE
8
layer1
10
12.7522
20
-12.3715193
11
12.4838479
21
-12.5101438
0
LINE
8
layer1
10
12.4838479
20
-12.5101438
11
12.1899932
21
-12.646687
0
LINE
8
layer1
10
12.1899932
20
-12.646687
11
11.8675386
21
-12.78039
0
LINE
8
layer1
10
11.8675386
20
-12.78039
11
11.5369946
21
-12.9015444
0
ARC
8
layer1
10
21.0000332
20
0.0000408
40
16
50
229.1163942
51
233.7407445
0
LINE
8
layer1
10
10.527641
20
-12.0966118
11
10.5722049
21
-11.7473958
0
LINE
8
layer1
10
10.5722049
20
-11.7473958
11
10.6308028
21
-11.4032742
0
LINE
8
layer1
10
10.6308028
20
-11.4032742
11
10.6985338
21
-11.0864033
0
LINE
8
layer1
10
10.6985338
20
-11.0864033
11
10.7739687
21
-10.7939325
0
LINE
8
layer1
10
10.7739687
20
-10.7939325
11
10.8545493
21
-10.5279785
0
LINE
8
layer1
10
10.8545493
20
-10.5279785
11
10.9390816
21
-10.2860018
0
LINE
8
layer1
10
10.9390816
20
-10.2860018
11
11.0248105
21
-10.0700971
0
LINE
8
layer1
10
11.0248105
20
-10.0700971
11
11.1105464
21
-9.8780666
0
LINE
8
layer1
10
11.1105464
20
-9.8780666
11
11.1933143
21
-9.7117457
0
LINE
8
layer1
10
11.1933143
20
-9.7117457
11
11.3446787
21
-9.4491134
0
LINE
8
layer1
10
11.3446787
20
-9.4491134
11
11.4651776
21
-9.2751247
0
LINE
8
layer1
10
11.4651776
20
-9.2751247
11
11.5406843
21
-9.1831642
0
LINE
8
layer1
10
11.5406843
20
-9.1831642
11
11.769884
21
-8.9713492
0
LINE
8
layer1
10
11.769884
20
-8.9713492
11
11.9079494
21
-8.8175278
0
LINE
8
layer1
10
11.9079494
20
-8.8175278
11
12.0173679
21
-8.6688112
0
LINE
8
layer1
10
12.0173679
20
-8.6688112
11
12.0988465
21
-8.5273215
0
LINE
8
layer1
10
12.0988465
20
-8.5273215
11
12.1532288
21
-8.3951104
0
LINE
8
layer1
10
12.1532288
20
-8.3951104
11
12.1814642
21
-8.2741707
0
LINE
8
layer1
10
12.1814642
20
-8.2741707
11
12.1846429
21
-8.1664468
0
LINE
8
layer1
10
12.1846429
20
-8.1664468
11
12.1771868
21
-8.1181229
0
LINE
8
layer1
10
12.1771868
20
-8.1181229
11
12.1639366
21
-8.0737928
0
LINE
8
layer1
10
12.1639366
20
-8.0737928
11
12.1450234
21
-8.0336847
0
LINE
8
layer1
10
12.1450234
20
-8.0336847
11
12.1137204
21
-7.9897968
0
LINE
8
layer1
10
12.1137204
20
-7.9897968
11
11.7951032
21
-7.6205927
0
LINE
8
layer1
10
11.7951032
20
-7.6205927
11
11.6571138
21
-7.4507031
0
LINE
8
layer1
10
11.6571138
20
-7.4507031
11
11.5221892
21
-7.2783695
0
LINE
8
layer1
10
11.5221892
20
-7.2783695
11
11.2331408
21
-6.885585
0
LINE
8
layer1
10
11.2331408
20
-6.885585
11
11.1973189
21
-6.8453009
0
LINE
8
layer1
10
11.1973189
20
-6.8453009
11
11.162425
21
-6.8179369
0
LINE
8
layer1
10
11.162425
20
-6.8179369
11
11.1221547
21
-6.7951546
0
LINE
8
layer1
10
11.1221547
20
-6.7951546
11
11.0767016
21
-6.7771323
0
LINE
8
layer1
10
11.0767016
20
-6.7771323
11
10.9709712
21
-6.7562605
0
LINE
8
layer1
10
10.9709712
20
-6.7562605
11
10.8467807
21
-6.7568764
0
LINE
8
layer1
10
10.8467807
20
-6.7568764
11
10.7057833
21
-6.7804754
0
LINE
8
layer1
10
10.7057833
20
-6.7804754
11
10.5497103
21
-6.8284268
0
LINE
8
layer1
10
10.5497103
20
-6.8284268
11
10.3803745
21
-6.9020094
0
LINE
8
layer1
10
10.3803745
20
-6.9020094
11
10.1996873
21
-7.0023847
0
LINE
8
layer1
10
10.1996873
20
-7.0023847
11
9.9421812
21
-7.1787046
0
LINE
8
layer1
10
9.9421812
20
-7.1787046
11
9.8357244
21
-7.2318551
0
LINE
8
layer1
10
9.8357244
20
-7.2318551
11
9.6392845
21
-7.3106167
0
LINE
8
layer1
10
9.6392845
20
-7.3106167
11
9.3495552
21
-7.3997449
0
LINE
8
layer1
10
9.3495552
20
-7.3997449
11
9.1689867
21
-7.4434278
0
LINE
8
layer1
10
9.1689867
20
-7.4434278
11
8.9626928
21
-7.4842833
0
LINE
8
layer1
10
8.9626928
20
-7.4842833
11
8.7331248
21
-7.5198195
0
LINE
8
layer1
10
8.7331248
20
-7.5198195
11
8.4784047
21
-7.5483875
0
LINE
8
layer1
10
8.4784047
20
-7.5483875
11
8.2011879
21
-7.5677674
0
LINE
8
layer1
10
8.2011879
20
-7.5677674
11
7.8992641
21
-7.5762301
0
LINE
8
layer1
10
7.8992641
20
-7.5762301
11
7.5752663
21
-7.5717526
0
LINE
8
layer1
10
7.5752663
20
-7.5717526
11
7.2267332
21
-7.552307
0
LINE
8
layer1
10
7.2267332
20
-7.552307
11
6.8763564
21
-7.5180457
0
ARC
8
layer1
10
21.0000474
20
0.0000228
40
16
50
203.4021103
51
208.0264606
0
LINE
8
layer1
10
6.3162074
20
-6.3548843
11
6.5078772
21
-6.0595872
0
LINE
8
layer1
10
6.5078772
20
-6.0595872
11
6.7099809
21
-5.7749689
0
LINE
8
layer1
10
6.7099809
20
-5.7749689
11
6.9084895
21
-5.5188656
0
LINE
8
layer1
10
6.9084895
20
-5.5188656
11
7.1033524
21
-5.2880884
0
LINE
8
layer1
10
7.1033524
20
-5.2880884
11
7.2913461
21
-5.0834348
0
LINE
8
layer1
10
7.2913461
20
-5.0834348
11
7.4724968
21
-4.9020985
0
LINE
8
layer1
10
7.4724968
20
-4.9020985
11
7.6434135
21
-4.7447714
0
LINE
8
layer1
10
7.6434135
20
-4.7447714
11
7.8039777
21
-4.6089574
0
LINE
8
layer1
10
7.8039777
20
-4.6089574
11
7.950713
21
-4.4950191
0
LINE
8
layer1
10
7.950713
20
-4.4950191
11
8.2010395
21
-4.3240701
0
LINE
8
layer1
10
8.2010395
20
-4.3240701
11
8.3850961
21
-4.2195942
0
LINE
8
layer1
10
8.3850961
20
-4.2195942
11
8.4930255
21
-4.1695018
0
LINE
8
layer1
10
8.4930255
20
-4.1695018
11
8.7914303
21
-4.078109
0
LINE
8
layer1
10
8.7914303
20
-4.078109
11
8.9825636
21
-3.9994251
0
LINE
8
layer1
10
8.9825636
20
-3.9994251
11
9.1456719
21
-3.912911
0
LINE
8
layer1
10
9.1456719
20
-3.912911
11
9.2804717
21
-3.8207855
0
LINE
8
layer1
10
9.2804717
20
-3.8207855
11
9.3868326
21
-3.725263
0
LINE
8
layer1
10
9.3868326
20
-3.725263
11
9.4647456
21
-3.6285509
0
LINE
8
layer1
10
9.4647456
20
-3.6285509
11
9.5143492
21
-3.5328743
0
LINE
8
layer1
10
9.5143492
20
-3.5328743
11
9.5285984
21
-3.4861008
0
LINE
8
layer1
10
9.5285984
20
-3.4861008
11
9.5358946
21
-3.4404118
0
LINE
8
layer1
10
9.5358946
20
-3.4404118
11
9.5362566
21
-3.3960694
0
LINE
8
layer1
10
9.5362566
20
-3.3960694
11
9.5270958
21
-3.342946
0
LINE
8
layer1
10
9.5270958
20
-3.342946
11
9.4002232
21
-2.8720617
0
LINE
8
layer1
10
9.4002232
20
-2.8720617
11
9.3496114
21
-2.6591252
0
LINE
8
layer1
10
9.3496114
20
-2.6591252
11
9.3028214
21
-2.4453163
0
LINE
8
layer1
10
9.3028214
20
-2.4453163
11
9.2128206
21
-1.9660163
0
LINE
8
layer1
10
9.2128206
20
-1.9660163
11
9.1980247
21
-1.914179
0
LINE
8
layer1
10
9.1980247
20
-1.914179
11
9.1784592
21
-1.874385
0
LINE
8
layer1
10
9.1784592
20
-1.874385
11
9.1520618
21
-1.8363863
0
LINE
8
layer1
10
9.1520618
20
-1.8363863
11
9.1189295
21
-1.8004274
0
LINE
8
layer1
10
9.1189295
20
-1.8004274
11
9.0327257
21
-1.7357479
0
LINE
8
layer1
10
9.0327257
20
-1.7357479
11
8.9205667
21
-1.6824185
0
LINE
8
layer1
10
8.9205667
20
-1.6824185
11
8.7832932
21
-1.642504
0
LINE
8
layer1
10
8.7832932
20
-1.642504
11
8.6218709
21
-1.6179892
0
LINE
8
layer1
10
8.6218709
20
-1.6179892
11
8.4373784
21
-1.6108127
0
LINE
8
layer1
10
8.4373784
20
-1.6108127
11
8.2310336
21
-1.6228506
0
LINE
8
layer1
10
8.2310336
20
-1.6228506
11
7.9225263
21
-1.6699816
0
LINE
8
layer1
10
7.9225263
20
-1.6699816
11
7.803551
21
-1.6716786
0
LINE
8
layer1
10
7.803551
20
-1.6716786
11
7.5923913
21
-1.6574083
0
LINE
8
layer1
10
7.5923913
20
-1.6574083
11
7.292683
21
-1.6120012
0
LINE
8
layer1
10
7.292683
20
-1.6120012
11
7.111043
21
-1.5730124
0
LINE
8
layer1
10
7.111043
20
-1.5730124
11
6.9074522
21
-1.5203144
0
LINE
8
layer1
10
6.9074522
20
-1.5203144
11
6.6851999
21
-1.4527255
0
LINE
8
layer1
10
6.6851999
20
-1.4527255
11
6.4433099
21
-1.3679455
0
LINE
8
layer1
10
6.4433099
20
-1.3679455
11
6.1851376
21
-1.2651264
0
LINE
8
layer1
10
6.1851376
20
-1.2651264
11
5.9094417
21
-1.1417512
0
LINE
8
layer1
10
5.9094417
20
-1.1417512
11
5.6194725
21
-0.9971397
0
LINE
8
layer1
10
5.6194725
20
-0.9971397
11
5.3138922
21
-0.828397
0
LINE
8
layer1
10
5.3138922
20
-0.828397
11
5.0130791
21
-0.6455059
0
ARC
8
layer1
10
21.0000526
20
0
40
16
50
177.6878251
51
182.3121753
0
LINE
8
layer1
10
5.0130791
20
0.6455059
11
5.3138922
21
0.828397
0
LINE
8
layer1
10
5.3138922
20
0.828397
11
5.6194725
21
0.9971397
0
LINE
8
layer1
10
5.6194725
20
0.9971397
11
5.9094417
21
1.1417512
0
LINE
8
layer1
10
5.9094417
20
1.1417512
11
6.1851376
21
1.2651264
0
LINE
8
layer1
10
6.1851376
20
1.2651264
11
6.4433099
21
1.3679455
0
LINE
8
layer1
10
6.4433099
20
1.3679455
11
6.6851999
21
1.4527255
0
LINE
8
layer1
10
6.6851999
20
1.4527255
11
6.9074522
21
1.5203144
0
LINE
8
layer1
10
6.9074522
20
1.5203144
11
7.111043
21
1.5730124
0
LINE
8
layer1
10
7.111043
20
1.5730124
11
7.292683
21
1.6120012
0
LINE
8
layer1
10
7.292683
20
1.6120012
11
7.5923913
21
1.6574083
0
LINE
8
layer1
10
7.5923913
20
1.6574083
11
7.803551
21
1.6716786
0
LINE
8
layer1
10
7.803551
20
1.6716786
11
7.9225263
21
1.6699816
0
LINE
8
layer1
10
7.9225263
20
1.6699816
11
8.2310336
21
1.6228506
0
LINE
8
layer1
10
8.2310336
20
1.6228506
11
8.4373784
21
1.6108127
0
LINE
8
layer1
10
8.4373784
20
1.6108127
11
8.6218709
21
1.6179892
0
LINE
8
layer1
10
8.6218709
20
1.6179892
11
8.7832932
21
1.642504
0
LINE
8
layer1
10
8.7832932
20
1.642504
11
8.9205667
21
1.6824185
0
LINE
8
layer1
10
8.9205667
20
1.6824185
11
9.0327257
21
1.7357479
0
LINE
8
layer1
10
9.0327257
20
1.7357479
11
9.1189295
21
1.8004274
0
LINE
8
layer1
10
9.1189295
20
1.8004274
11
9.1520618
21
1.8363863
0
LINE
8
layer1
10
9.1520618
20
1.8363863
11
9.1784592
21
1.874385
0
LINE
8
layer1
10
9.1784592
20
1.874385
11
9.1980247
21
1.914179
0
LINE
8
layer1
10
9.1980247
20
1.914179
11
9.2128206
21
1.9660163
0
LINE
8
layer1
10
9.2128206
20
1.9660163
11
9.3028214
21
2.4453163
0
LINE
8
layer1
10
9.3028214
20
2.4453163
11
9.3496114
21
2.6591252
0
LINE
8
layer1
10
9.3496114
20
2.6591252
11
9.4002232
21
2.8720617
0
LINE
8
layer1
10
9.4002232
20
2.8720617
11
9.5270958
21
3.342946
0
LINE
8
layer1
10
9.5270958
20
3.342946
11
9.5362566
21
3.3960694
0
LINE
8
layer1
10
9.5362566
20
3.3960694
11
9.5358946
21
3.4404118
0
LINE
8
layer1
10
9.5358946
20
3.4404118
11
9.5285984
21
3.4861008
0
LINE
8
layer1
10
9.5285984
20
3.4861008
11
9.5143492
21
3.5328743
0
LINE
8
layer1
10
9.5143492
20
3.5328743
11
9.4647456
21
3.6285509
0
LINE
8
layer1
10
9.4647456
20
3.6285509
11
9.3868326
21
3.725263
0
LINE
8
layer1
10
9.3868326
20
3.725263
11
9.2804717
21
3.8207855
0
LINE
8
layer1
10
9.2804717
20
3.8207855
11
9.1456719
21
3.912911
0
LINE
8
layer1
10
9.1456719
20
3.912911
11
8.9825636
21
3.9994251
0
LINE
8
layer1
10
8.9825636
20
3.9994251
11
8.7914303
21
4.078109
0
LINE
8
layer1
10
8.7914303
20
4.078109
11
8.4930255
21
4.1695018
0
LINE
8
layer1
10
8.4930255
20
4.1695018
11
8.3850961
21
4.2195942
0
LINE
8
layer1
10
8.3850961
20
4.2195942
11
8.2010395
21
4.3240701
0
LINE
8
layer1
10
8.2010395
20
4.3240701
11
7.950713
21
4.4950191
0
LINE
8
layer1
10
7.950713
20
4.4950191
11
7.8039777
21
4.6089574
0
LINE
8
layer1
10
7.8039777
20
4.6089574
11
7.6434135
21
4.7447714
0
LINE
8
layer1
10
7.6434135
20
4.7447714
11
7.4724968
21
4.9020985
0
LINE
8
layer1
10
7.4724968
20
4.9020985
11
7.2913461
21
5.0834348
0
LINE
8
layer1
10
7.2913461
20
5.0834348
11
7.1033524
21
5.2880884
0
LINE
8
layer1
10
7.1033524
20
5.2880884
11
6.9084895
21
5.5188656
0
LINE
8
layer1
10
6.9084895
20
5.5188656
11
6.7099809
21
5.7749689
0
LINE
8
layer1
10
6.7099809
20
5.7749689
11
6.5078772
21
6.0595872
0
LINE
8
layer1
10
6.5078772
20
6.0595872
11
6.3162074
21
6.3548843
0
ARC
8
layer1
10
21.0000474
20
-0.0000227
40
16
50
151.9735397
51
156.59789
0
LINE
8
layer1
10
6.8763564
20
7.5180457
11
7.2267332
21
7.552307
0
LINE
8
layer1
10
7.2267332
20
7.552307
11
7.5752663
21
7.5717526
0
LINE
8
layer1
10
7.5752663
20
7.5717526
11
7.8992641
21
7.5762301
0
LINE
8
layer1
10
7.8992641
20
7.5762301
11
8.2011879
21
7.5677674
0
LINE
8
layer1
10
8.2011879
20
7.5677674
11
8.4784047
21
7.5483875
0
LINE
8
layer1
10
8.4784047
20
7.5483875
11
8.7331248
21
7.5198195
0
LINE
8
layer1
10
8.7331248
20
7.5198195
11
8.9626928
21
7.4842833
0
LINE
8
layer1
10
8.9626928
20
7.4842833
11
9.1689867
21
7.4434278
0
LINE
8
layer1
10
9.1689867
20
7.4434278
11
9.3495552
21
7.3997449
0
LINE
8
layer1
10
9.3495552
20
7.3997449
11
9.6392845
21
7.3106167
0
LINE
8
layer1
10
9.6392845
20
7.3106167
11
9.8357244
21
7.2318551
0
LINE
8
layer1
10
9.8357244
20
7.2318551
11
9.9421812
21
7.1787046
0
LINE
8
layer1
10
9.9421812
20
7.1787046
11
10.1996873
21
7.0023847
0
LINE
8
layer1
10
10.1996873
20
7.0023847
11
10.3803745
21
6.9020094
0
LINE
8
layer1
10
10.3803745
20
6.9020094
11
10.5497103
21
6.8284268
0
LINE
8
layer1
10
10.5497103
20
6.8284268
11
10.7057833
21
6.7804754
0
LINE
8
layer1
10
10.7057833
20
6.7804754
11
10.8467807
21
6.7568764
0
LINE
8
layer1
10
10.8467807
20
6.7568764
11
10.9709712
21
6.7562605
0
LINE
8
layer1
10
10.9709712
20
6.7562605
11
11.0767016
21
6.7771323
0
LINE
8
layer1
10
11.0767016
20
6.7771323
11
11.1221547
21
6.7951546
0
LINE
8
layer1
10
11.1221547
20
6.7951546
11
11.162425
21
6.8179369
0
LINE
8
layer1
10
11.162425
20
6.8179369
11
11.1973189
21
6.8453009
0
LINE
8
layer1
10
11.1973189
20
6.8453009
11
11.2331408
21
6.885585
0
LINE
8
layer1
10
11.2331408
20
6.885585
11
11.5221892
21
7.2783695
0
LINE
8
layer1
10
11.5221892
20
7.2783695
11
11.6571138
21
7.4507031
0
LINE
8
layer1
10
11.6571138
20
7.4507031
11
11.7951032
21
7.6205927
0
LINE
8
layer1
10
11.7951032
20
7.6205927
11
12.1137204
21
7.9897968
0
LINE
8
layer1
10
12.1137204
20
7.9897968
11
12.1450234
21
8.0336847
0
LINE
8
layer1
10
12.1450234
20
8.0336847
11
12.1639366
21
8.0737928
0
LINE
8
layer1
10
12.1639366
20
8.0737928
11
12.1771868
21
8.1181229
0
LINE
8
layer1
10
12.1771868
20
8.1181229
11
12.1846429
21
8.1664468
0
LINE
8
layer1
10
12.1846429
20
8.1664468
11
12.1814642
21
8.2741707
0
LINE
8
layer1
10
12.1814642
20
8.2741707
11
12.1532288
21
8.3951104
0
LINE
8
layer1
10
12.1532288
20
8.3951104
11
12.0988465
21
8.5273215
0
LINE
8
layer1
10
12.0988465
20
8.5273215
11
12.0173679
21
8.6688112
0
LINE
8
layer1
10
12.0173679
20
8.6688112
11
11.9079494
21
8.8175278
0
LINE
8
layer1
10
11.9079494
20
8.8175278
11
11.769884
21
8.9713492
0
LINE
8
layer1
10
11.769884
20
8.9713492
11
11.5406843
21
9.1831642
0
LINE
8
layer1
10
11.5406843
20
9.1831642
11
11.4651776
21
9.2751247
0
LINE
8
layer1
10
11.4651776
20
9.2751247
11
11.3446787
21
9.4491134
0
LINE
8
layer1
10
11.3446787
20
9.4491134
11
11.1933143
21
9.7117457
0
LINE
8
layer1
10
11.1933143
20
9.7117457
11
11.1105464
21
9.8780666
0
LINE
8
layer1
10
11.1105464
20
9.8780666
11
11.0248105
21
10.0700971
0
LINE
8
layer1
10
11.0248105
20
10.0700971
11
10.9390816
21
10.2860018
0
LINE
8
layer1
10
10.9390816
20
10.2860018
11
10.8545493
21
10.5279785
0
LINE
8
layer1
10
10.8545493
20
10.5279785
11
10.7739687
21
10.7939325
0
LINE
8
layer1
10
10.7739687
20
10.7939325
11
10.6985338
21
11.0864033
0
LINE
8
layer1
10
10.6985338
20
11.0864033
11
10.6308028
21
11.4032742
0
LINE
8
layer1
10
10.6308028
20
11.4032742
11
10.5722049
21
11.7473958
0
LINE
8
layer1
10
10.5722049
20
11.7473958
11
10.527641
21
12.0966118
0
ARC
8
layer1
10
21.0000333
20
-0.0000407
40
16
50
126.2592557
51
130.8836061
0
LINE
8
layer1
10
11.5369946
20
12.9015444
11
11.8675386
21
12.78039
0
LINE
8
layer1
10
11.8675386
20
12.78039
11
12.1899932
21
12.646687
0
LINE
8
layer1
10
12.1899932
20
12.646687
11
12.4838479
21
12.5101438
0
LINE
8
layer1
10
12.4838479
20
12.5101438
11
12.7522
21
12.3715193
0
LINE
8
layer1
10
12.7522
20
12.3715193
11
12.9935551
21
12.2337787
0
LINE
8
layer1
10
12.9935551
20
12.2337787
11
13.2106547
21
12.0975209
0
LINE
8
layer1
10
13.2106547
20
12.0975209
11
13.4020698
21
11.9658981
0
LINE
8
layer1
10
13.4020698
20
11.9658981
11
13.5702076
21
11.839581
0
LINE
8
layer1
10
13.5702076
20
11.839581
11
13.7139409
21
11.7218783
0
LINE
8
layer1
10
13.7139409
20
11.7218783
11
13.9363067
21
11.5158678
0
LINE
8
layer1
10
13.9363067
20
11.5158678
11
14.0791196
21
11.3596739
0
LINE
8
layer1
10
14.0791196
20
11.3596739
11
14.1519727
21
11.2655971
0
LINE
8
layer1
10
14.1519727
20
11.2655971
11
14.3074753
21
10.9950107
0
LINE
8
layer1
10
14.3074753
20
10.9950107
11
14.4267177
21
10.8261784
0
LINE
8
layer1
10
14.4267177
20
10.8261784
11
14.5473577
21
10.6864108
0
LINE
8
layer1
10
14.5473577
20
10.6864108
11
14.6671692
21
10.5754905
0
LINE
8
layer1
10
14.6671692
20
10.5754905
11
14.7839643
21
10.493052
0
LINE
8
layer1
10
14.7839643
20
10.493052
11
14.8955888
21
10.4386129
0
LINE
8
layer1
10
14.8955888
20
10.4386129
11
14.9999045
21
10.411543
0
LINE
8
layer1
10
14.9999045
20
10.411543
11
15.048676
21
10.4080592
0
LINE
8
layer1
10
15.048676
20
10.4080592
11
15.0948431
21
10.4111127
0
LINE
8
layer1
10
15.0948431
20
10.4111127
11
15.1381542
21
10.4206269
0
LINE
8
layer1
10
15.1381542
20
10.4206269
11
15.1879073
21
10.4413791
0
LINE
8
layer1
10
15.1879073
20
10.4413791
11
15.6187537
21
10.6698523
0
LINE
8
layer1
10
15.6187537
20
10.6698523
11
15.8150893
21
10.766578
0
LINE
8
layer1
10
15.8150893
20
10.766578
11
16.0131258
21
10.8597719
0
LINE
8
layer1
10
16.0131258
20
10.8597719
11
16.4603817
21
11.0541704
0
LINE
8
layer1
10
16.4603817
20
11.0541704
11
16.5076269
21
11.0801302
0
LINE
8
layer1
10
16.5076269
20
11.0801302
11
16.5420694
21
11.1080602
0
LINE
8
layer1
10
16.5420694
20
11.1080602
11
16.5732415
21
11.1422512
0
LINE
8
layer1
10
16.5732415
20
11.1422512
11
16.6009262
21
11.1825544
0
LINE
8
layer1
10
16.6009262
20
11.1825544
11
16.6448019
21
11.2809895
0
LINE
8
layer1
10
16.6448019
20
11.2809895
11
16.6718365
21
11.4022033
0
LINE
8
layer1
10
16.6718365
20
11.4022033
11
16.680204
21
11.5449169
0
LINE
8
layer1
10
16.680204
20
11.5449169
11
16.6681843
21
11.7077471
0
LINE
8
layer1
10
16.6681843
20
11.7077471
11
16.6341274
21
11.8892109
0
LINE
8
layer1
10
16.6341274
20
11.8892109
11
16.5764753
21
12.0877035
0
LINE
8
layer1
10
16.5764753
20
12.0877035
11
16.4618767
21
12.3779883
0
LINE
8
layer1
10
16.4618767
20
12.3779883
11
16.4337477
21
12.493603
0
LINE
8
layer1
10
16.4337477
20
12.493603
11
16.4006728
21
12.7026439
0
LINE
8
layer1
10
16.4006728
20
12.7026439
11
16.37825
21
13.004942
0
LINE
8
layer1
10
16.37825
20
13.004942
11
16.3758426
21
13.1907036
0
LINE
8
layer1
10
16.3758426
20
13.1907036
11
16.3819162
21
13.4009165
0
LINE
8
layer1
10
16.3819162
20
13.4009165
11
16.3983546
21
13.6326363
0
LINE
8
layer1
10
16.3983546
20
13.6326363
11
16.4271834
21
13.887327
0
LINE
8
layer1
10
16.4271834
20
13.887327
11
16.469976
21
14.1619058
0
LINE
8
layer1
10
16.469976
20
14.1619058
11
16.5289098
21
14.4581429
0
LINE
8
layer1
10
16.5289098
20
14.4581429
11
16.6053713
21
14.7730211
0
LINE
8
layer1
10
16.6053713
20
14.7730211
11
16.7018853
21
15.1084887
0
LINE
8
layer1
10
16.7018853
20
15.1084887
11
16.8132537
21
15.4424569
0
ARC
8
layer1
10
21.0000112
20
-0.0000514
40
16
50
100.5449659
51
105.1693162
0
LINE
8
layer1
10
18.0718971
20
15.729734
11
18.31714
21
15.47716
0
LINE
8
layer1
10
18.31714
20
15.47716
11
18.54965
21
15.21679
0
LINE
8
layer1
10
18.54965
20
15.21679
11
18.75516
21
14.96627
0
LINE
8
layer1
10
18.75516
20
14.96627
11
18.93679
21
14.72494
0
LINE
8
layer1
10
18.93679
20
14.72494
11
19.09448
21
14.49612
0
LINE
8
layer1
10
19.09448
20
14.49612
11
19.23096
21
14.27916
0
LINE
8
layer1
10
19.23096
20
14.27916
11
19.34631
21
14.07752
0
LINE
8
layer1
10
19.34631
20
14.07752
11
19.44299
21
13.89076
0
LINE
8
layer1
10
19.44299
20
13.89076
11
19.52142
21
13.72235
0
LINE
8
layer1
10
19.52142
20
13.72235
11
19.63238
21
13.44026
0
LINE
8
layer1
10
19.63238
20
13.44026
11
19.69328
21
13.23757
0
LINE
8
layer1
10
19.69328
20
13.23757
11
19.7181
21
13.1212
0
LINE
8
layer1
10
19.7181
20
13.1212
11
19.7408
21
12.80994
0
LINE
8
layer1
10
19.7408
20
12.80994
11
19.77498
21
12.60609
0
LINE
8
layer1
10
19.77498
20
12.60609
11
19.82303
21
12.42782
0
LINE
8
layer1
10
19.82303
20
12.42782
11
19.88285
21
12.2759
0
LINE
8
layer1
10
19.88285
20
12.2759
11
19.95231
21
12.15095
0
LINE
8
layer1
10
19.95231
20
12.15095
11
20.02926
21
12.05347
0
LINE
8
layer1
10
20.02926
20
12.05347
11
20.1115
21
11.98382
0
LINE
8
layer1
10
20.1115
20
11.98382
11
20.15393
21
11.95952
0
LINE
8
layer1
10
20.15393
20
11.95952
11
20.19685
21
11.94224
0
LINE
8
layer1
10
20.19685
20
11.94224
11
20.24
21
11.93202
0
LINE
8
layer1
10
20.24
20
11.93202
11
20.29383
21
11.92913
0
LINE
8
layer1
10
20.29383
20
11.92913
11
20.78114
21
11.94804
0
LINE
8
layer1
10
20.78114
20
11.94804
11
21
21
11.95
0
LINE
8
layer1
10
21
20
11.95
11
21.21886
21
11.94804
0
LINE
8
layer1
10
21.21886
20
11.94804
11
21.70617
21
11.92913
0
LINE
8
layer1
10
21.70617
20
11.92913
11
21.76
21
11.93202
0
LINE
8
layer1
10
21.76
20
11.93202
11
21.80315
21
11.94224
0
LINE
8
layer1
10
21.80315
20
11.94224
11
21.84607
21
11.95952
0
LINE
8
layer1
10
21.84607
20
11.95952
11
21.8885
21
11.98382
0
LINE
8
layer1
10
21.8885
20
11.98382
11
21.97074
21
12.05347
0
LINE
8
layer1
10
21.97074
20
12.05347
11
22.04769
21
12.15095
0
LINE
8
layer1
10
22.04769
20
12.15095
11
22.11715
21
12.2759
0
LINE
8
layer1
10
22.11715
20
12.2759
11
22.17697
21
12.42782
0
LINE
8
layer1
10
22.17697
20
12.42782
11
22.22502
21
12.60609
0
LINE
8
layer1
10
22.22502
20
12.60609
11
22.2592
21
12.80994
0
LINE
8
layer1
10
22.2592
20
12.80994
11
22.2819
21
13.1212
0
LINE
8
layer1
10
22.2819
20
13.1212
11
22.30672
21
13.23757
0
LINE
8
layer1
10
22.30672
20
13.23757
11
22.36762
21
13.44026
0
LINE
8
layer1
10
22.36762
20
13.44026
11
22.47858
21
13.72235
0
LINE
8
layer1
10
22.47858
20
13.72235
11
22.55701
21
13.89076
0
LINE
8
layer1
10
22.55701
20
13.89076
11
22.65369
21
14.07752
0
LINE
8
layer1
10
22.65369
20
14.07752
11
22.76904
21
14.27916
0
LINE
8
layer1
10
22.76904
20
14.27916
11
22.90552
21
14.49612
0
LINE
8
layer1
10
22.90552
20
14.49612
11
23.06321
21
14.72494
0
LINE
8
layer1
10
23.06321
20
14.72494
11
23.24484
21
14.96627
0
LINE
8
layer1
10
23.24484
20
14.96627
11
23.45035
21
15.21679
0
LINE
8
layer1
10
23.45035
20
15.21679
11
23.68286
21
15.47716
0
LINE
8
layer1
10
23.68286
20
15.47716
11
23.9281029
21
15.729734
0
ARC
8
layer1
10
20.9999888
20
-0.0000514
40
16
50
74.8306838
51
79.4550341
0
LINE
8
layer1
10
25.1867463
20
15.4424569
11
25.2981147
21
15.1084887
0
LINE
8
layer1
10
25.2981147
20
15.1084887
11
25.3946287
21
14.7730211
0
LINE
8
layer1
10
25.3946287
20
14.7730211
11
25.4710902
21
14.4581429
0
LINE
8
layer1
10
25.4710902
20
14.4581429
11
25.530024
21
14.1619058
0
LINE
8
layer1
10
25.530024
20
14.1619058
11
25.5728166
21
13.887327
0
LINE
8
layer1
10
25.5728166
20
13.887327
11
25.6016454
21
13.6326363
0
LINE
8
layer1
10
25.6016454
20
13.6326363
11
25.6180838
21
13.4009165
0
LINE
8
layer1
10
25.6180838
20
13.4009165
11
25.6241574
21
13.1907036
0
LINE
8
layer1
10
25.6241574
20
13.1907036
11
25.62175
21
13.004942
0
LINE
8
layer1
10
25.62175
20
13.004942
11
25.5993272
21
12.7026439
0
LINE
8
layer1
10
25.5993272
20
12.7026439
11
25.5662523
21
12.493603
0
LINE
8
layer1
10
25.5662523
20
12.493603
11
25.5381233
21
12.3779883
0
LINE
8
layer1
10
25.5381233
20
12.3779883
11
25.4235247
21
12.0877035
0
LINE
8
layer1
10
25.4235247
20
12.0877035
11
25.3658726
21
11.8892109
0
LINE
8
layer1
10
25.3658726
20
11.8892109
11
25.3318157
21
11.7077471
0
LINE
8
layer1
10
25.3318157
20
11.7077471
11
25.319796
21
11.5449169
0
LINE
8
layer1
10
25.319796
20
11.5449169
11
25.3281635
21
11.4022033
0
LINE
8
layer1
10
25.3281635
20
11.4022033
11
25.3551981
21
11.2809895
0
LINE
8
layer1
10
25.3551981
20
11.2809895
11
25.3990738
21
11.1825544
0
LINE
8
layer1
10
25.3990738
20
11.1825544
11
25.4267585
21
11.1422512
0
LINE
8
layer1
10
25.4267585
20
11.1422512
11
25.4579306
21
11.1080602
0
LINE
8
layer1
10
25.4579306
20
11.1080602
11
25.4923731
21
11.0801302
0
LINE
8
layer1
10
25.4923731
20
11.0801302
11
25.5396183
21
11.0541704
0
LINE
8
layer1
10
25.5396183
20
11.0541704
11
25.9868742
21
10.8597719
0
LINE
8
layer1
10
25.9868742
20
10.8597719
11
26.1849107
21
10.766578
0
LINE
8
layer1
10
26.1849107
20
10.766578
11
26.3812463
21
10.6698523
0
LINE
8
layer1
10
26.3812463
20
10.6698523
11
26.8120927
21
10.4413791
0
LINE
8
layer1
10
26.8120927
20
10.4413791
11
26.8618458
21
10.4206269
0
LINE
8
layer1
10
26.8618458
20
10.4206269
11
26.9051569
21
10.4111127
0
LINE
8
layer1
10
26.9051569
20
10.4111127
11
26.951324
21
10.4080592
0
LINE
8
layer1
10
26.951324
20
10.4080592
11
27.0000955
21
10.411543
0
LINE
8
layer1
10
27.0000955
20
10.411543
11
27.1044112
21
10.4386129
0
LINE
8
layer1
10
27.1044112
20
10.4386129
11
27.2160357
21
10.493052
0
LINE
8
layer1
10
27.2160357
20
10.493052
11
27.3328308
21
10.5754905
0
LINE
8
layer1
10
27.3328308
20
10.5754905
11
27.4526423
21
10.6864108
0
LINE
8
layer1
10
27.4526423
20
10.6864108
11
27.5732823
21
10.8261784
0
LINE
8
layer1
10
27.5732823
20
10.8261784
11
27.6925247
21
10.9950107
0
LINE
8
layer1
10
27.6925247
20
10.9950107
11
27.8480273
21
11.2655971
0
LINE
8
layer1
10
27.8480273
20
11.2655971
11
27.9208804
21
11.3596739
0
LINE
8
layer1
10
27.9208804
20
11.3596739
11
28.0636933
21
11.5158678
0
LINE
8
layer1
10
28.0636933
20
11.5158678
11
28.2860591
21
11.7218783
0
LINE
8
layer1
10
28.2860591
20
11.7218783
11
28.4297924
21
11.839581
0
LINE
8
layer1
10
28.4297924
20
11.839581
11
28.5979302
21
11.9658981
0
LINE
8
layer1
10
28.5979302
20
11.9658981
11
28.7893453
21
12.0975209
0
LINE
8
layer1
10
28.7893453
20
12.0975209
11
29.0064449
21
12.2337787
0
LINE
8
layer1
10
29.0064449
20
12.2337787
11
29.2478
21
12.3715193
0
LINE
8
layer1
10
29.2478
20
12.3715193
11
29.5161521
21
12.5101438
0
LINE
8
layer1
10
29.5161521
20
12.5101438
11
29.8100068
21
12.646687
0
LINE
8
layer1
10
29.8100068
20
12.646687
11
30.1324614
21
12.78039
0
LINE
8
layer1
10
30.1324614
20
12.78039
11
30.4630054
21
12.9015444
0
ARC
8
layer1
10
20.9999668
20
-0.0000408
40
16
50
49.1163942
51
53.7407445
0
LINE
8
layer1
10
31.472359
20
12.0966118
11
31.4277951
21
11.7473958
0
LINE
8
layer1
10
31.4277951
20
11.7473958
11
31.3691972
21
11.4032742
0
LINE
8
layer1
10
31.3691972
20
11.4032742
11
31.3014662
21
11.0864033
0
LINE
8
layer1
10
31.3014662
20
11.0864033
11
31.2260313
21
10.7939325
0
LINE
8
layer1
10
31.2260313
20
10.7939325
11
31.1454507
21
10.5279785
0
LINE
8
layer1
10
31.1454507
20
10.5279785
11
31.0609184
21
10.2860018
0
LINE
8
layer1
10
31.0609184
20
10.2860018
11
30.9751895
21
10.0700971
0
LINE
8
layer1
10
30.9751895
20
10.0700971
11
30.8894536
21
9.8780666
0
LINE
8
layer1
10
30.8894536
20
9.8780666
11
30.8066857
21
9.7117457
0
LINE
8
layer1
10
30.8066857
20
9.7117457
11
30.6553213
21
9.4491134
0
LINE
8
layer1
10
30.6553213
20
9.4491134
11
30.5348224
21
9.2751247
0
LINE
8
layer1
10
30.5348224
20
9.2751247
11
30.4593157
21
9.1831642
0
LINE
8
layer1
10
30.4593157
20
9.1831642
11
30.230116
21
8.9713492
0
LINE
8
layer1
10
30.230116
20
8.9713492
11
30.0920506
21
8.8175278
0
LINE
8
layer1
10
30.0920506
20
8.8175278
11
29.9826321
21
8.6688112
0
LINE
8
layer1
10
29.9826321
20
8.6688112
11
29.9011535
21
8.5273215
0
LINE
8
layer1
10
29.9011535
20
8.5273215
11
29.8467712
21
8.3951104
0
LINE
8
layer1
10
29.8467712
20
8.3951104
11
29.8185358
21
8.2741707
0
LINE
8
layer1
10
29.8185358
20
8.2741707
11
29.8153571
21
8.1664468
0
LINE
8
layer1
10
29.8153571
20
8.1664468
11
29.8228132
21
8.1181229
0
LINE
8
layer1
10
29.8228132
20
8.1181229
11
29.8360634
21
8.0737928
0
LINE
8
layer1
10
29.8360634
20
8.0737928
11
29.8549766
21
8.0336847
0
LINE
8
layer1
10
29.8549766
20
8.0336847
11
29.8862796
21
7.9897968
0
LINE
8
layer1
10
29.8862796
20
7.9897968
11
30.2048968
21
7.6205927
0
LINE
8
layer1
10
30.2048968
20
7.6205927
11
30.3428862
21
7.4507031
0
LINE
8
layer1
10
30.3428862
20
7.4507031
11
30.4778108
21
7.2783695
0
LINE
8
layer1
10
30.4778108
20
7.2783695
11
30.7668592
21
6.885585
0
LINE
8
layer1
10
30.7668592
20
6.885585
11
30.8026811
21
6.8453009
0
LINE
8
layer1
10
30.8026811
20
6.8453009
11
30.837575
21
6.8179369
0
LINE
8
layer1
10
30.837575
20
6.8179369
11
30.8778453
21
6.7951546
0
LINE
8
layer1
10
30.8778453
20
6.7951546
11
30.9232984
21
6.7771323
0
LINE
8
layer1
10
30.9232984
20
6.7771323
11
31.0290288
21
6.7562605
0
LINE
8
layer1
10
31.0290288
20
6.7562605
11
31.1532193
21
6.7568764
0
LINE
8
layer1
10
31.1532193
20
6.7568764
11
31.2942167
21
6.7804754
0
LINE
8
layer1
10
31.2942167
20
6.7804754
11
31.4502897
21
6.8284268
0
LINE
8
layer1
10
31.4502897
20
6.8284268
11
31.6196255
21
6.9020094
0
LINE
8
layer1
10
31.6196255
20
6.9020094
11
31.8003127
21
7.0023847
0
LINE
8
layer1
10
31.8003127
20
7.0023847
11
32.0578188
21
7.1787046
0
LINE
8
layer1
10
32.0578188
20
7.1787046
11
32.1642756
21
7.2318551
0
LINE
8
layer1
10
32.1642756
20
7.2318551
11
32.3607155
21
7.3106167
0
LINE
8
layer1
10
32.3607155
20
7.3106167
11
32.6504448
21
7.3997449
0
LINE
8
layer1
10
32.6504448
20
7.3997449
11
32.8310133
21
7.4434278
0
LINE
8
layer1
10
32.8310133
20
7.4434278
11
33.0373072
21
7.4842833
0
LINE
8
layer1
10
33.0373072
20
7.4842833
11
33.2668752
21
7.5198195
0
LINE
8
layer1
10
33.2668752
20
7.5198195
11
33.5215953
21
7.5483875
0
LINE
8
layer1
10
33.5215953
20
7.5483875
11
33.7988121
21
7.5677674
0
LINE
8
layer1
10
33.7988121
20
7.5677674
11
34.1007359
21
7.5762301
0
LINE
8
layer1
10
34.1007359
20
7.5762301
11
34.4247337
21
7.5717526
0
LINE
8
layer1
10
34.4247337
20
7.5717526
11
34.7732668
21
7.552307
0
LINE
8
layer1
10
34.7732668
20
7.552307
11
35.1236436
21
7.5180457
0
ARC
8
layer1
10
20.9999526
20
-0.0000228
40
16
50
23.4021103
51
28.0264606
0
LINE
8
layer1
10
35.6837926
20
6.3548843
11
35.4921228
21
6.0595872
0
ENDSEC
0
EOF