<?xml version="1.0" encoding="UTF-8"?>
<svg viewBox="-22 -22 44 44" height="44mm" width="44mm" xmlns:svgjs="http://svgjs.com/svgjs" xmlns:xlink="http://www.w3.org/1999/xlink" version="1.1" xmlns="http://www.w3.org/2000/svg" id="SvgjsSvg1363">
  <defs id="SvgjsDefs1364">
  </defs>
  <defs id="SvgjsDefs1364">
  </defs>
  <g id="SvgjsG1365">
    <g transform="matrix(1,0,0,1,0,0)" id="SvgjsG1366">
      <g fill="none" stroke-width="0.04" stroke="blue" id="SvgjsG1367">
      </g>
      <g fill="none" stroke-width="0.1" stroke="black" id="SvgjsG1368">
        <path d="M18.493280000000002 -0.3168700000000002  L18.48324 -0.3391999999999997 L18.467430000000004 -0.3613000000000002 L18.44587 -0.38312999999999975 L18.418550000000003 -0.40461000000000036 L18.3855 -0.4256899999999999 L18.34671 -0.44630999999999976 L18.125290000000003 -0.5456200000000002 L17.903750000000002 -0.6363900000000002 L17.721730000000004 -0.7041100000000001 L17.471279999999997 -0.7878499999999997 L17.27017 -0.8472199999999999 L17.129520000000003 -0.8831500000000002 L16.93684 -0.9249300000000001 L16.64469 -0.9738200000000001 L16.5734 -0.9922400000000002 L16.545870000000004 -1.0027500000000003 L16.50054 -1.02827 L16.485860000000002 -1.0412500000000002 L16.470090000000003 -1.0621300000000002 L16.46444 -1.0825999999999998 L16.4333 -1.4790300000000003 L16.433301112431888 -1.479017639869404 L16.393155370015823 -1.8746371083815885 L16.395059512554884 -1.8957869935158147 L16.406847814203687 -1.9191472855567286 L16.41897423206983 -1.934539906832383 L16.459018988365745 -1.9677437739746422 L16.48422993697553 -1.9830005452646202 L16.551085259344536 -2.013853849316802 L16.82981064206692 -2.1141235637188105 L17.01193408813342 -2.1896364844202627 L17.143908235539698 -2.25010310179204 L17.331185392258572 -2.344428578580094 L17.562658203352665 -2.4715424166316624 L17.72966119415362 -2.570675054362809 L17.93143334587089 -2.6995438375935965 L18.131562550155948 -2.8367939526836405 L18.166047335726937 -2.864008802749783 L18.194802229287767 -2.8906513438505375 L18.217847783548002 -2.916664325779535 L18.23516340846474 -2.941993195350502 L18.24677322788543 -2.966561023765297 L18.25266470549411 -2.990324882702483 A20 20 0 0 1 18.147711558026923 -3.5925223354011244 L18.139506058984423 -3.6138804201809798 L18.125640230454035 -3.6340588566706074 L18.106138196283244 -3.652980716071872 L18.0810267773396 -3.6706102123391204 L18.050310418878816 -3.6868668455363216 L18.01402756663327 -3.7017067758908846 L17.972179094720786 -3.7150691820585497 L17.736584919990825 -3.7732471618559655 L17.502397549591812 -3.823000956139373 L17.311210812959324 -3.8571317418880247 L17.049833293124358 -3.894806431334955 L16.841354290717096 -3.9173127538971024 L16.69654904485058 -3.927551316762023 L16.499505384654714 -3.9342555524838723 L16.203320708758916 -3.9301944732550376 L16.12988735038553 -3.9355891352468295 L16.100923135847076 -3.941014563909195 L16.051764835640636 -3.958030462969009 L16.035003080785522 -3.9681806538133753 L16.015758243209927 -3.9859092613923406 L16.006543981397815 -4.005041453615342 L15.90511910420383 -4.3895403987194666 L15.905122405745018 -4.389528435853638 L15.794981238106175 -4.771621837643242 L15.793078322476346 -4.792771833201297 L15.800506040059515 -4.817861598276018 L15.809689122743931 -4.835172109314436 L15.843161563919477 -4.87499264398877 L15.865243160507092 -4.8945058213861525 L15.92551502017542 -4.936800778912096 L16.181857322483484 -5.085227456593037 L16.34757061720823 -5.192046250592358 L16.466627154334464 -5.275106038501485 L16.63405222586311 -5.401355293642364 L16.839108121446266 -5.567757426400909 L16.98572648951332 -5.695116497319916 L17.161245669972985 -5.857942115054867 L17.333651761250515 -6.028721013606191 L17.362722963010075 -6.061656006064896 L17.386258544193083 -6.0930047750738705 L17.404288949637692 -6.122714660289114 L17.416803661038994 -6.150728308722375 L17.423840150731603 -6.176974335332236 L17.425393749011093 -6.2014082632274 A20 20 0 0 1 17.214600734592057 -6.775188047005232 L17.202713467997786 -6.794737750146627 L17.185467470074823 -6.812116071574234 L17.162900213157815 -6.827251626246649 L17.13504447693712 -6.840113992265519 L17.101919009049983 -6.850624757092961 L17.063569465283702 -6.858747650230156 L17.02000756577903 -6.864422983836633 L16.77781140694246 -6.879599055291775 L16.53850364091907 -6.8867375159727615 L16.344295066678438 -6.8861820959332 L16.08039091555814 -6.8765805793093975 L15.871243597418076 -6.861499852708281 L15.726937265433355 -6.845717902603326 L15.531863090408372 -6.817130894394661 L15.241163357801636 -6.760249262364873 L15.16794684961415 -6.752445197473299 L15.138479354224344 -6.7526116770567635 L15.087072742027686 -6.760576570179881 L15.068767968910121 -6.767570716383271 L15.046666838673314 -6.781578119506467 L15.034184469005252 -6.798757579552401 L14.865734593622966 -7.158967357298219 L14.865739978159203 -7.1589561761935085 L14.689143413049942 -7.515242714939516 L14.683494600525297 -7.535713042661891 L14.68632300108816 -7.561725875076989 L14.692267596757507 -7.58039790181026 L14.718091891012083 -7.625555239267791 L14.736334414894404 -7.648697653195529 L14.788085624700464 -7.7010748694599425 L15.013805794078877 -7.892887954873275 L15.157782775820065 -8.02757937824053 L15.260095127602973 -8.130562726761786 L15.402286934384655 -8.284678005317028 L15.574335249252274 -8.48502013131956 L15.695856559597756 -8.6365122100957 L15.839481437922181 -8.828061313007447 L15.978623142562324 -9.026880020703263 L16.00134638816603 -9.06447659779791 L16.01890620402686 -9.099524019485303 L16.031341948589375 -9.131975907830599 L16.03865351335367 -9.1617739534158 L16.040890514749837 -9.188854609330185 L16.038056299773128 -9.213173279636472 A20 20 0 0 1 15.728198479326739 -9.7400936401353 L15.71301151170991 -9.75720661809372 L15.69293964495767 -9.771226270909692 L15.668032495500158 -9.782089051672509 L15.638327748284329 -9.789770880415963 L15.603857850764449 -9.794197952243806 L15.56467420136819 -9.795342731694666 L15.520798989564264 -9.793148582848163 L15.27978523044576 -9.76483497453755 L15.043048617301066 -9.729128665616283 L14.85206022882373 -9.69390489144558 L14.594111542976167 -9.637335769395488 L14.391018075995309 -9.58515270059253 L14.251848782138014 -9.543857482379508 L14.065013936776786 -9.480898040205622 L13.789142476053627 -9.373024077830681 L13.718496056867933 -9.352272115122561 L13.689472390174538 -9.347174294836334 L13.637469716801165 -9.34583218380424 L13.61821025589036 -9.349445487752876 L13.593963181503025 -9.359281476958593 L13.578613897610674 -9.373956042846277 L13.348553141635888 -9.698299214595446 L13.348560436103751 -9.698289174621758 L13.111184432430823 -10.017317507815331 L13.10197128049376 -10.036450234525987 L13.100109456915014 -10.062550060444211 L13.102624501373251 -10.081983468569732 L13.119970634641215 -10.131026214828994 L13.133787756090667 -10.157054049061811 L13.175354989570256 -10.217830077237839 L13.363198194052018 -10.446864539994044 L13.480811324151832 -10.605099499557738 L13.563091087422226 -10.724696439134668 L13.675479467791169 -10.901724349245036 L13.808990427541586 -11.129567307719782 L13.901508885262922 -11.300323314293092 L14.008623239687818 -11.514439356606925 L14.110028428817264 -11.734907676593314 L14.125673374454665 -11.775957453401508 L14.136693038063278 -11.813577074797173 L14.143134426681307 -11.847727935879602 L14.145007845101086 -11.878352644913724 L14.14237345913533 -11.905397535569508 L14.135242524903775 -11.928819326213803 A20 20 0 0 1 13.736278983731042 -12.391944609495676 L13.71828043672674 -12.406070837078934 L13.696027827457828 -12.416281218106358 L13.669581321737049 -12.422522086247934 L13.638982298542743 -12.42477647741953 L13.604275862258342 -12.422977566516616 L13.565517501964111 -12.417107438127664 L13.522739163268957 -12.407114328577457 L13.290654184393365 -12.336221063168706 L13.064097633661374 -12.25881761479317 L12.882467954898763 -12.190057607575387 L12.638765417327964 -12.088339058226927 L12.448253392640938 -12.000730853989827 L12.318694152524518 -11.935249629959918 L12.14610366248518 -11.839941322095484 L11.893927209381031 -11.684542187285112 L11.828121513237825 -11.651509311916657 L11.80047451976912 -11.641311039899236 L11.749547193929192 -11.630705061264798 L11.729952060145564 -11.63082138839673 L11.704338362529064 -11.636169826898819 L11.686615503026157 -11.647867846006351 L11.402338208450526 -11.925919755348401 L11.402347178399815 -11.925911179198751 L11.111821196234896 -12.197427473713665 L11.099339823169277 -12.214607657833657 L11.092847615990657 -12.239955607374986 L11.091852273639507 -12.259525791165746 L11.100162726925182 -12.310877672009457 L11.109110352289612 -12.338954370539335 L11.139157604357061 -12.40617581907472 L11.283086408792228 -12.66507030309063 L11.370555504476854 -12.841762997054227 L11.430158139943208 -12.97412958364414 L11.509130838880889 -13.168380302619637 L11.59981329141454 -13.416401033411407 L11.66035527715613 -13.60093272923211 L11.72751636419629 -13.830733845172796 L11.787925791599951 -14.065765744243457 L11.79598959584556 -14.108949347162719 L11.800114926146568 -14.14793204268147 L11.80035492728993 -14.182684239726418 L11.796729986155732 -14.213151308863011 L11.78930888416057 -14.239291189221904 L11.778110424767725 -14.26106330458139 A20 20 0 0 1 11.302864179350236 -14.645508282980876 L11.282632541068434 -14.656193731611342 L11.258914406454261 -14.662266670802866 L11.231778556924334 -14.663685039686131 L11.20126873553398 -14.660439535298693 L11.167441253903789 -14.652472460141595 L11.130353908301931 -14.639776094669205 L11.090047373719338 -14.622305211178599 L10.87435057726788 -14.51111085655312 L10.665255802900472 -14.394498079241867 L10.49882256117341 -14.294411842184914 L10.277198971956015 -14.150813183408442 L10.10539160279008 -14.030595643505652 L9.989606556993575 -13.943033034077308 L9.836807622633918 -13.818439147957026 L9.616431335843027 -13.620509496766864 L9.557581411961456 -13.576257412531955 L9.532199688835547 -13.561286469637148 L9.483984556684707 -13.541757508280304 L9.464683553750985 -13.5383731197458 L9.43852647822174 -13.53906210433009 L9.418999670395118 -13.547407592698193 L9.089642743370433 -13.770231422484997 L9.0896531004996 -13.770224585803891 L8.755314883955043 -13.985502084530083 L8.739966451360909 -14.000177540805895 L8.729052525462938 -14.023958910015713 L8.72457878742454 -14.043036867662268 L8.72358645592146 -14.095047391387647 L8.727377001159526 -14.124270546022252 L8.744938528410424 -14.195776862251073 L8.840326942599438 -14.476210285791325 L8.89484067516376 -14.665681665587604 L8.929850505080973 -14.806563528185908 L8.972869275064582 -15.011793678088637 L9.017808611743265 -15.272020590837649 L9.04442825626926 -15.464396975368881 L9.069477463326894 -15.702497167989097 L9.086949520302971 -15.944538527523012 L9.087173005853412 -15.988468000023925 L9.084271411336605 -16.027560833756723 L9.078302311171083 -16.061797402556966 L9.069295519073572 -16.091127595125588 L9.057326221373232 -16.115522307924888 L9.042420164518102 -16.134944974297756 A20 20 0 0 1 8.506166020217488 -16.42835326988671 L8.484351552159213 -16.435254500453393 L8.459930212561622 -16.436994808546572 L8.432977187753892 -16.433545090628577 L8.40353717893054 -16.424904003863524 L8.371675895047495 -16.411024832803122 L8.337451581941224 -16.391910301880184 L8.30091233665701 -16.367523173019656 L8.108536395143547 -16.21960160722613 L7.923623875232641 -16.067527531591264 L7.777736371871969 -15.939331918705372 L7.5853148955179215 -15.758468529547336 L7.437734212081644 -15.609505544626655 L7.3394447872452035 -15.502675884113659 L7.2113484920389315 -15.352800969753625 L7.0298554467449685 -15.118702424029983 L6.979852780100467 -15.064653429326668 L6.9575521167827725 -15.045390993977247 L6.913598852339886 -15.017566726784487 L6.895212330371282 -15.01079039961573 L6.8693525868589145 -15.006797785750788 L6.848649438378834 -15.011522512516617 L6.484798681535458 -15.17195652151877 L6.4848100929578445 -15.171951644042768 L6.1174055474077935 -15.324071151040258 L6.09968336653745 -15.335770198232183 L6.0846985044785 -15.357220634336704 L6.076890160374413 -15.375193184582905 L6.066626938433578 -15.426190690163015 L6.065138572302457 -15.455621044667499 L6.069649932801291 -15.529113956750567 L6.113432094626262 -15.822072958841188 L6.1332383478516155 -16.018233258425923 L6.142530127479967 -16.16310233805073 L6.148212309846269 -16.372715652998885 L6.14596414341292 -16.636784840613966 L6.137805869445538 -16.830822778569082 L6.119938094395255 -17.069569311768525 L6.093911214656483 -17.310840723317973 L6.086287198502281 -17.354104136009074 L6.0764519388028715 -17.392050632114056 L6.064465589119173 -17.42467118117841 L6.050366431767176 -17.45192180065694 L6.034233641438119 -17.47378727975525 L6.016099080052774 -17.490236236663247 A20 20 0 0 1 5.436072686298236 -17.6831774654043 L5.413376523415883 -17.686072666678427 L5.389036900783487 -17.683424408739214 L5.363132993092298 -17.67521748079228 L5.33570902294285 -17.661458543288155 L5.306837984686506 -17.642113364302148 L5.276576701658913 -17.61719502468002 L5.244979147081103 -17.58667547283694 L5.08210718155333 -17.406781016710244 L4.927320156635393 -17.224133428669628 L4.806667336035758 -17.071948752432657 L4.649632557119995 -16.85963373103549 L4.531021924008807 -16.686713093999415 L4.453387223119486 -16.564049975590397 L4.3541106873925095 -16.39371113605563 L4.217334219404197 -16.130967815674992 L4.177785936845051 -16.0688590896647 L4.159283095003647 -16.045924272381974 L4.121004392352778 -16.01069899419476 L4.1041233092938425 -16.000748525122535 L4.079392051232308 -15.99220263870311 L4.058177978325526 -15.993154747260895 L3.6715278543658028 -16.086042454423524 L3.671539953308907 -16.086039692918714 L3.282877763148806 -16.170111962068262 L3.263351439477287 -16.17845858317354 L3.244777267053517 -16.196888651506892 L3.2338852834879717 -16.213178141799958 L3.214681039507169 -16.261523527444567 L3.207961599318948 -16.29021516600978 L3.199277794227323 -16.363332551282575 L3.190046508983117 -16.659401188548905 L3.174508693594199 -16.855945654492213 L3.15778377749113 -17.000145739725703 L3.1259467422235554 -17.207405075306443 L3.0765833305971415 -17.466829136820795 L3.033909351774346 -17.65629208921896 L2.973698879607915 -17.888011452979303 L2.905009588484085 -18.120758254858313 L2.889783112777497 -18.161965086058448 L2.873330301234704 -18.197545612928316 L2.8557119531740662 -18.227501690969575 L2.8369735890857015 -18.251796880026095 L2.8171958272832063 -18.270430350934213 L2.7964156210917377 -18.283376915368073 A20 20 0 0 1 2.1912595034258535 -18.369649787416904 L2.168411119068927 -18.368445905247352 L2.1449355088998394 -18.361494198464907 L2.1209132912321915 -18.348793837905934 L2.0963867887217686 -18.33035927323501 L2.071433935016855 -18.306169856293277 L2.0461083046035133 -18.27624860391028 L2.020468012134792 -18.240577552592466 L1.8923348615762734 -18.03449216197016 L1.772648313991354 -17.82714150528636 L1.6811080570803 -17.65585910641053 L1.5645072026058213 -17.418916432255322 L1.4786788631610706 -17.22759595465777 L1.424194129383495 -17.09304187190594 L1.356928182679085 -16.907713937654353 L1.2692644002176225 -16.624770629119674 L1.2414416160857165 -16.5565983973596 L1.2273312922815756 -16.530728342041872 L1.1959574604217436 -16.489234222284598 L1.1811243881717923 -16.476429427572157 L1.1583164985441334 -16.46360494041935 L1.1372733389688743 -16.460753829216646 L0.7402511010136499 -16.483109747203287 L0.740263498607485 -16.483109190426703 L0.34283558642139633 -16.496432069822948 L0.3221327120578154 -16.50115799757163 L0.3005662184538052 -16.51597534057327 L0.28694067274055307 -16.530058213292147 L0.2594126469226301 -16.574197618527922 L0.24767810101373122 -16.60122836828282 L0.22607823497235202 -16.671620173821495 L0.1641302037622442 -16.9612825566557 L0.11374771793021099 -17.15189408810484 L0.07154365866058143 -17.29079046955938 L0.003210674268231406 -17.48903434019359 L-0.09168140188522467 -17.735475172815313 L-0.16749950877180297 -17.914273644475823 L-0.26811746393761127 -18.131518187786472 L-0.37726143611204044 -18.34825970627794 L-0.3996009799134186 -18.38608553452725 L-0.42214253639919375 -18.418156504752655 L-0.4448266146336777 -18.44448529877463 L-0.46760191901863146 -18.465044190042715 L-0.49038897875703613 -18.47984675767398 L-0.5131469368296228 -18.48887481640033 A20 20 0 0 1 -1.12398256286096 -18.465706450663742 L-1.146248802819516 -18.460442178814 L-1.168105875098664 -18.44941045676419 L-1.1894743089013857 -18.432624863631432 L-1.2103150418016249 -18.410107173870244 L-1.2305477057057574 -18.381850986736413 L-1.250123696905363 -18.34788851526343 L-1.2689826271681484 -18.308212461410466 L-1.3582586578701559 -18.08255989031478 L-1.4389979040042575 -17.8571705857023 L-1.498483418050035 -17.672295621419114 L-1.5709027006809175 -17.418340827010287 L-1.6211901530096837 -17.214769706420253 L-1.6507737355017138 -17.072649338256724 L-1.6838671103098726 -16.8782889015835 L-1.7196006211461745 -16.58423963563762 L-1.7348036596761771 -16.512195009748833 L-1.744067948025977 -16.484221201259963 L-1.767528528324322 -16.4377918950831 L-1.779836842618483 -16.422544331368325 L-1.7999882994732381 -16.40585343305125 L-1.8201842012538578 -16.399290739148014 L-2.2148179318057166 -16.350396330360066 L-2.2148056340300175 -16.35039799620697 L-2.6082256081396573 -16.292543277544013 L-2.629439625778873 -16.293496616729755 L-2.65330527571372 -16.30422499280385 L-2.6692264473243195 -16.31564861283193 L-2.7041934815794395 -16.354163360856568 L-2.720565975248287 -16.37866443126305 L-2.7543876647724224 -16.444068206519017 L-2.867061381254329 -16.718014347601812 L-2.950669202979988 -16.896566533100312 L-3.016995932225637 -17.025694966791637 L-3.1196285873998257 -17.208551651361535 L-3.2569994186752913 -17.43408844395797 L-3.3635247972869715 -17.596475704885783 L-3.5013162915843985 -17.792263009375336 L-3.6474069677397822 -17.986032993739432 L-3.676141568317137 -18.01926206579478 L-3.704047365573186 -18.046792692004598 L-3.7310680890425374 -18.068647972904017 L-3.7571483167015653 -18.084809786702394 L-3.782212279526632 -18.095305684353548 L-3.8062165299825743 -18.100125068136613 A20 20 0 0 1 -4.40309890476149 -17.968260114952376 L-4.424067345048683 -17.95910465145114 L-4.443603375150781 -17.944347482757586 L-4.461631226044151 -17.924016159825563 L-4.47811635103098 -17.89813908205065 L-4.492978530668961 -17.86672430182847 L-4.506175694190498 -17.829812193043054 L-4.517647120711522 -17.787406357671344 L-4.565196626473692 -17.549439265404843 L-4.604393545353754 -17.31325551056487 L-4.629912403167978 -17.120730014342012 L-4.655822498624724 -16.85792541572657 L-4.668952783743006 -16.648646595458697 L-4.672684374266743 -16.503527807453274 L-4.670541528882998 -16.306381772713387 L-4.6531962636542294 -16.01067753470834 L-4.655290918414872 -15.937076088245423 L-4.659411409460088 -15.907897627807179 L-4.674204695842727 -15.85802541131341 L-4.683592652832369 -15.840825147839826 L-4.700439992510233 -15.820804297563713 L-4.719139523595742 -15.810740951341797 L-5.098700893938583 -15.692167722308154 L-5.098689091241649 -15.692171557236856 L-5.4754562855999245 -15.564998738775545 L-5.496499610532897 -15.562148848292507 L-5.521897355172953 -15.568443438604707 L-5.539602433125351 -15.576840641394895 L-5.580884606565737 -15.608492836516847 L-5.601368822576685 -15.629676743012503 L-5.64632527865369 -15.68799035683463 L-5.8061032544514255 -15.937415401787979 L-5.920249187887703 -16.098169427180693 L-6.008566791457602 -16.213379619002726 L-6.1422004194299 -16.37497195321125 L-6.317634794281085 -16.57235576769607 L-6.451443631299916 -16.713112557712275 L-6.6219799327270215 -16.8811498583201 L-6.8003218383279185 -17.045720381824893 L-6.834527941975784 -17.073284687969455 L-6.866901064717331 -17.09539011318502 L-6.8973899651365205 -17.112069434251193 L-6.925936876093779 -17.1233147165864 L-6.952472165617612 -17.129166597470885 L-6.976951192096492 -17.12962240735047 A20 20 0 0 1 -7.5406960249811394 -16.893299114812763 L-7.559692722673249 -16.88054672379011 L-7.576279806516515 -16.86253841599686 L-7.590387644539457 -16.839314828713277 L-7.601987316131796 -16.810910073496057 L-7.611001328821418 -16.77734639707003 L-7.617395496970639 -16.738671036519936 L-7.621110718662794 -16.694898378069965 L-7.625405419246067 -16.45226522277807 L-7.621800189647951 -16.212878157923793 L-7.612532194143489 -16.01889005762038 L-7.59110033063922 -15.755682410834163 L-7.5666514303796815 -15.54742228436705 L-7.544411092545331 -15.403969313770364 L-7.5071008997834525 -15.21037411673265 L-7.437234349585799 -14.92251908418418 L-7.426153296649588 -14.849726428195922 L-7.424997554417672 -14.8202811355349 L-7.4306480784883115 -14.768568942797334 L-7.43681394151135 -14.74996881018541 L-7.449815676653043 -14.72726149455134 L-7.466417818728325 -14.714020940238468 L-7.818707414115193 -14.529579932102651 L-7.8186964858454155 -14.529585812855386 L-8.166701292820571 -14.337182333619209 L-8.186897575269452 -14.33062081129241 L-8.21301111020465 -14.332279302530877 L-8.231931038725671 -14.337380195076257 L-8.278201508329863 -14.361152509700789 L-8.302139067125848 -14.378338384100672 L-8.356785352267115 -14.427687588960115 L-8.558532191772784 -14.644574811611603 L-8.69954749269945 -14.782363910253554 L-8.807017370146895 -14.879952909845882 L-8.967356876160158 -15.015087183112959 L-9.175216189431461 -15.177973941280664 L-9.332007758737378 -15.292576221339075 L-9.52980769024856 -15.427462660962089 L-9.734668769708748 -15.557544291573052 L-9.773246964111008 -15.578557892327355 L-9.809046913536447 -15.594527629993838 L-9.84202405255965 -15.605494904123907 L-9.872120125608495 -15.611462222369044 L-9.89927387579249 -15.61248200222028 L-9.923440902241866 -15.60855958809182 A20 20 0 0 1 -10.43592897045254 -15.275373581270264 L-10.452343356055207 -15.259434135066366 L-10.465448371117022 -15.238753490003175 L-10.47518275874751 -15.213384063571755 L-10.481524153956135 -15.183364583116422 L-10.4844002819128 -15.148730774663168 L-10.483785940864252 -15.109535220258666 L-10.479625547445458 -15.065802627989276 L-10.440527407639397 -14.826301838922298 L-10.394235904608779 -14.59140556128647 L-10.350478936786876 -14.402189794060185 L-10.282393952048816 -14.147038809438882 L-10.221151674182419 -13.946491028594181 L-10.173654230747387 -13.809314571914706 L-10.102375870901673 -13.625492521502618 L-9.982233604144875 -13.354738592004743 L-9.9583329976707 -13.285094342348605 L-9.951938168667937 -13.256328613398598 L-9.94826431793368 -13.204438516840751 L-9.951009911079264 -13.185036338656873 L-9.959748155219465 -13.16037238947297 L-9.973719301777935 -13.144380189379119 L-10.287414244748252 -12.89999948790118 L-10.287404542149215 -12.900007225465718 L-10.595461800905758 -12.64855709158744 L-10.614161915735082 -12.638494830143303 L-10.64015193046632 -12.635463917035016 L-10.659678607485928 -12.637104552452152 L-10.709450202289378 -12.652232924827306 L-10.73607173103481 -12.66486839898762 L-10.798651468672785 -12.703667070835536 L-11.035882862466819 -12.881045537393742 L-11.199235183084317 -12.991441054281333 L-11.322403164121638 -13.068272270900557 L-11.504295104524816 -13.17260515649453 L-11.737898586860487 -13.295759543913945 L-11.912633478407463 -13.380523902438414 L-12.131339587453628 -13.4779241199222 L-12.356135437118997 -13.569335926999974 L-12.397845787365316 -13.583123427945727 L-12.435921923643816 -13.592444197554581 L-12.470327388889148 -13.597346927534105 L-12.501005311478659 -13.597844487170843 L-12.527904778449722 -13.59399938942534 L-12.550983056754818 -13.585824820906295 A20 20 0 0 1 -12.995742572102634 -13.166484972206488 L-13.009047073756788 -13.147870777737356 L-13.018248814070224 -13.125182488352651 L-13.02329688008033 -13.098482617012934 L-13.024176181245522 -13.067813262121428 L-13.020821983350219 -13.03322248074143 L-13.013218878530681 -12.99476650985129 L-13.001316588468603 -12.952479585261317 L-12.92008225465663 -12.72380891484177 L-12.83259232518969 -12.500953184060911 L-12.755752769999495 -12.322591300357661 L-12.643202971457637 -12.083697740485928 L-12.547135693185323 -11.897308075951253 L-12.475907751062639 -11.770817097375833 L-12.37295216926656 -11.6026763855389 L-12.206395657257566 -11.357725813162759 L-12.170443682402993 -11.293468393326167 L-12.159015301695211 -11.266306782284147 L-12.14613515674151 -11.215906572304705 L-12.145372234386864 -11.196325950519869 L-12.149566133169056 -11.170498087406466 L-12.160457240064828 -11.15226824400108 L-12.425475117042467 -10.855802446003631 L-12.425466951963685 -10.855811791688277 L-12.683675448734826 -10.553396817364606 L-12.700278358867472 -10.540157226165205 L-12.725309512936631 -10.532534324751305 L-12.744815334988813 -10.530661971667973 L-12.796488354982335 -10.536660163457945 L-12.824938215839069 -10.544339122842674 L-12.893440041715287 -10.571340240442218 L-13.158531177606507 -10.703508861044472 L-13.338970239923452 -10.7829625934312 L-13.473877604297156 -10.836566608558245 L-13.671475822464505 -10.906744761690742 L-13.923315265732684 -10.986208495018438 L-14.110377356334055 -11.03841053578164 L-14.342960248618471 -11.095194007995103 L-14.580465744918138 -11.144997940846325 L-14.623967646032211 -11.151116200358738 L-14.663096170814631 -11.153488424705582 L-14.697824142320194 -11.152169032759035 L-14.728097900776465 -11.14718084181126 L-14.753878513533193 -11.138594451074313 L-14.77512628884041 -11.12643046552294 A20 20 0 0 1 -15.137862314552748 -10.634414702716075 L-15.147629314628244 -10.61372403550776 L-15.152632028688407 -10.58975732209035 L-15.152831524083007 -10.562585161675923 L-15.148220469741824 -10.532251670649288 L-15.138743752674747 -10.498815692517487 L-15.124396254128978 -10.462335311687795 L-15.105134616819447 -10.42285319132736 L-14.984375027330112 -10.212362303053386 L-14.85849866974687 -10.008709885681094 L-14.751046213715993 -9.846934583199749 L-14.597649044501754 -9.63197668365414 L-14.469844447191615 -9.46573585260956 L-14.377175331047647 -9.353995876266731 L-14.245851604412264 -9.206940683830032 L-14.0382341104902 -8.995666381517795 L-13.991386293308437 -8.938861077845479 L-13.97529167845489 -8.914176581238987 L-13.953619217738376 -8.866886162056119 L-13.949372300835707 -8.847756433965479 L-13.948887058902283 -8.821594785694277 L-13.95634807699849 -8.80171322114397 L-14.164170995359958 -8.46269098130752 L-14.16416463023378 -8.462701634734284 L-14.364225331478638 -8.119041686067849 L-14.378197405722023 -8.103050296467902 L-14.401465177241617 -8.091080413071982 L-14.420323211156171 -8.085755250456856 L-14.47223684296047 -8.082430474842184 L-14.501600633991949 -8.084906111378436 L-14.573822843059256 -8.099241836593363 L-14.858253473822407 -8.18195260302481 L-15.049979817910176 -8.22791084257702 L-15.192290531927146 -8.256564779060168 L-15.399244058542408 -8.290332616146733 L-15.661225135822276 -8.323551665610578 L-15.854602095970913 -8.341513572070403 L-16.093586365965717 -8.355855231495006 L-16.336167886828438 -8.362450550739027 L-16.380063151914975 -8.360702922923249 L-16.418986442219747 -8.356050356765701 L-16.452920734407083 -8.348551249235847 L-16.481817305224 -8.338237632264914 L-16.50565045366003 -8.325185922199715 L-16.52438480498827 -8.309423480120197 A20 20 0 0 1 -16.793438706738534 -7.760545594654805 L-16.79935428581663 -7.738443469775717 L-16.799997182277384 -7.713968642214715 L-16.79534169511035 -7.687197528318626 L-16.785388488343305 -7.658174844516939 L-16.77009384158846 -7.626968329481705 L-16.74946308972488 -7.593636048168486 L-16.72346119003955 -7.558227719871968 L-16.567057657440362 -7.37268196408517 L-16.40684064144496 -7.194778416381562 L-16.272228894922407 -7.054789286453034 L-16.082914666269946 -6.870675970992891 L-15.9274804948375 -6.729927090531593 L-15.816348666313518 -6.636529531200974 L-15.660877647466412 -6.5152863330468405 L-15.418872168714177 -6.344478830711896 L-15.362634236595959 -6.296951412403443 L-15.342390681760733 -6.275537410263882 L-15.312622476000994 -6.232876734860813 L-15.305028063953934 -6.214812745665195 L-15.299879277379887 -6.189158169137508 L-15.303670403415973 -6.1682638932855305 L-15.447618763567865 -5.797581665346854 L-15.447614402974684 -5.797593284105831 L-15.58309719314475 -5.42373387461112 L-15.593989357536433 -5.405504663030129 L-15.614745901185039 -5.3895725195533855 L-15.63235003423551 -5.380965702514471 L-15.682835731009718 -5.368424820519052 L-15.712169675811577 -5.365617565211588 L-15.785790986845925 -5.366827136038019 L-16.08041927797797 -5.397421656210903 L-16.277270661384623 -5.408407267294818 L-16.422410741602707 -5.411190164038969 L-16.63206792003854 -5.407462359011368 L-16.895770343947575 -5.393369037028873 L-17.089246879033205 -5.376513498732596 L-17.326951375663857 -5.347952392634075 L-17.566812151412357 -5.311127119283742 L-17.609689950534335 -5.301569774335725 L-17.647156979784878 -5.2900419549782365 L-17.679206916581858 -5.276604159351368 L-17.705797540197185 -5.261296604492797 L-17.726917207311804 -5.244199067799826 L-17.742535997194697 -5.225344787049979 A20 20 0 0 1 -17.90926016120235 -4.637246165783146 L-17.91113418770412 -4.614442963712588 L-17.907396603344235 -4.59024666310376 L-17.898035764803662 -4.564737041353974 L-17.883060309865776 -4.537957977714565 L-17.862439315954344 -4.509983928845937 L-17.83618840011289 -4.480871073996489 L-17.80428196050208 -4.45067459056941 L-17.617261423020036 -4.296037560528331 L-17.42785325533356 -4.149600848896127 L-17.27040875061148 -4.035897257339759 L-17.051262177597952 -3.8885460794129134 L-16.873194214204705 -3.777812934361487 L-16.747171541709044 -3.705759666447732 L-16.57255019711794 -3.6142253187240723 L-16.303934988745404 -3.489374510032347 L-16.240114475101734 -3.4526525474178817 L-16.21637262479368 -3.435197303393518 L-16.1794654486172 -3.398537520979022 L-16.16876763207764 -3.382119862154271 L-16.159120787099898 -3.3577969165683554 L-16.159120171165718 -3.336561488632459 L-16.234567354371645 -2.9461333043958557 L-16.234565138464514 -2.946145515050574 L-16.301115489208115 -2.554102793761294 L-16.308577660622444 -2.5342216620585165 L-16.326155844008653 -2.514839330701303 L-16.34194026487407 -2.503227489419947 L-16.38937537478409 -2.4818735753097814 L-16.417736656234354 -2.473873655654003 L-16.490390819723274 -2.461918195490336 L-16.785747175526275 -2.439413136353047 L-16.981396632819262 -2.41507303238944 L-17.124701157638594 -2.391895444803459 L-17.330323433673566 -2.35079181238253 L-17.587271591332254 -2.2898390899182344 L-17.774629206324207 -2.2387078577354798 L-18.00341391148508 -2.1681619635639993 L-18.232844619428704 -2.0890996922047296 L-18.273326824842364 -2.0720398110549123 L-18.308133371890595 -2.0540072520967514 L-18.337268841957787 -2.0350626701809746 L-18.36069887384969 -2.015253174843018 L-18.378426256164513 -1.9946593404194852 L-18.390427483844043 -1.9733192130959625 A20 20 0 0 1 -18.449463258296777 -1.3649018296043611 L-18.447235499468505 -1.3421304640194192 L-18.439237563324603 -1.318990379373115 L-18.42547223846331 -1.2955621500020573 L-18.40595585879813 -1.271887407664183 L-18.38067129344143 -1.2480449339099233 L-18.34964393965657 -1.2240872166332455 L-18.312858459342085 -1.2000731178986996 L-18.10123191093286 -1.081314974984634 L-17.888720325910317 -0.9710516958242194 L-17.713503458916247 -0.8872881696282591 L-17.471568092712708 -0.7814351173342327 L-17.276589588216925 -0.7042767620861659 L-17.139726544135396 -0.6558836369056488 L-16.95156734749438 -0.5970001288630142 L-16.664975923315957 -0.5221188215334487 L-16.595624071967038 -0.4973825887063306 L-16.569147008789926 -0.48444712870232925 L-16.526287089206335 -0.45496651484697814 L-16.51282970480005 -0.44072286345621725 L-16.49899485895365 -0.4185133082961896 L-16.49520252084583 -0.3976192524028028 L-16.499723592559405 0.000006205044982920932 L-16.499723592559405 -0.000006205044986962199 L-16.49520252084583 0.39761925240279883 L-16.49899485895365 0.4185133082961856 L-16.51282970480005 0.44072286345621325 L-16.526287089206335 0.45496651484697415 L-16.569147008789926 0.48444712870232515 L-16.595624071967038 0.4973825887063265 L-16.664975923315957 0.5221188215334447 L-16.95156734749438 0.59700012886301 L-17.139726544135396 0.6558836369056446 L-17.276589588216925 0.7042767620861616 L-17.471568092712708 0.7814351173342284 L-17.713503458916247 0.8872881696282546 L-17.888720325910317 0.9710516958242149 L-18.10123191093286 1.0813149749846296 L-18.312858459342085 1.2000731178986952 L-18.34964393965657 1.224087216633241 L-18.38067129344143 1.2480449339099189 L-18.40595585879813 1.2718874076641786 L-18.42547223846331 1.2955621500020529 L-18.439237563324603 1.3189903793731106 L-18.447235499468505 1.3421304640194147 A20 20 0 0 1 -18.396685426000612 1.9513115744228735 L-18.390427483844043 1.973319213095958 L-18.378426256164513 1.9946593404194808 L-18.36069887384969 2.0152531748430125 L-18.337268841957787 2.0350626701809698 L-18.308133371890595 2.054007252096747 L-18.273326824842364 2.072039811054907 L-18.2328446194287 2.089099692204725 L-18.00341391148508 2.1681619635639944 L-17.774629206324207 2.2387078577354753 L-17.587271591332254 2.28983908991823 L-17.330323433673566 2.3507918123825258 L-17.124701157638594 2.3918954448034544 L-16.981396632819262 2.4150730323894356 L-16.785747175526275 2.439413136353043 L-16.490390819723274 2.461918195490332 L-16.417736656234354 2.4738736556539984 L-16.389375374784088 2.4818735753097774 L-16.34194026487407 2.5032274894199427 L-16.32615584400865 2.5148393307012986 L-16.308577660622444 2.534221662058512 L-16.301115489208115 2.55410279376129 L-16.234565138464514 2.9461455150505698 L-16.234567354371645 2.9461333043958513 L-16.159120171165718 3.336561488632455 L-16.159120787099898 3.357796916568351 L-16.168767632077643 3.3821198621542665 L-16.1794654486172 3.3985375209790183 L-16.216372624793685 3.435197303393514 L-16.240114475101734 3.4526525474178773 L-16.303934988745404 3.4893745100323432 L-16.57255019711794 3.6142253187240683 L-16.747171541709044 3.7057596664477277 L-16.873194214204705 3.7778129343614824 L-17.051262177597952 3.888546079412909 L-17.27040875061148 4.035897257339754 L-17.42785325533356 4.149600848896123 L-17.617261423020036 4.296037560528327 L-17.804281960502085 4.450674590569406 L-17.83618840011289 4.480871073996485 L-17.862439315954344 4.509983928845932 L-17.883060309865776 4.53795797771456 L-17.898035764803662 4.564737041353969 L-17.907396603344235 4.5902466631037555 L-17.91113418770412 4.614442963712584 A20 20 0 0 1 -17.752622987269604 5.204808218903646 L-17.742535997194697 5.225344787049974 L-17.726917207311804 5.244199067799822 L-17.705797540197185 5.261296604492793 L-17.679206916581858 5.276604159351364 L-17.647156979784878 5.290041954978232 L-17.609689950534335 5.301569774335721 L-17.566812151412357 5.311127119283738 L-17.326951375663857 5.34795239263407 L-17.089246879033205 5.376513498732592 L-16.895770343947575 5.393369037028869 L-16.63206792003854 5.407462359011364 L-16.422410741602707 5.411190164038965 L-16.277270661384623 5.408407267294814 L-16.08041927797797 5.397421656210899 L-15.785790986845923 5.366827136038015 L-15.712169675811577 5.3656175652115845 L-15.682835731009718 5.368424820519048 L-15.63235003423551 5.380965702514468 L-15.614745901185039 5.389572519553381 L-15.593989357536433 5.405504663030125 L-15.58309719314475 5.423733874611116 L-15.447614402974684 5.797593284105828 L-15.447618763567865 5.797581665346851 L-15.303670403415973 6.168263893285527 L-15.299879277379887 6.189158169137504 L-15.305028063953934 6.21481274566519 L-15.312622476000994 6.23287673486081 L-15.342390681760733 6.275537410263879 L-15.362634236595959 6.296951412403439 L-15.418872168714179 6.344478830711893 L-15.660877647466412 6.515286333046837 L-15.816348666313518 6.636529531200971 L-15.9274804948375 6.729927090531589 L-16.082914666269946 6.870675970992887 L-16.272228894922407 7.05478928645303 L-16.40684064144496 7.194778416381558 L-16.567057657440362 7.3726819640851655 L-16.72346119003955 7.558227719871964 L-16.74946308972488 7.593636048168482 L-16.77009384158846 7.6269683294817 L-16.785388488343305 7.658174844516934 L-16.79534169511035 7.68719752831862 L-16.799997182277384 7.71396864221471 L-16.79935428581663 7.738443469775713 A20 20 0 0 1 -16.5379766388209 8.291018044698387 L-16.52438480498827 8.309423480120193 L-16.50565045366003 8.325185922199712 L-16.481817305224002 8.338237632264908 L-16.452920734407087 8.348551249235843 L-16.41898644221975 8.356050356765696 L-16.380063151914975 8.360702922923242 L-16.336167886828438 8.362450550739023 L-16.09358636596572 8.355855231495001 L-15.854602095970916 8.341513572070399 L-15.661225135822278 8.323551665610575 L-15.39924405854241 8.290332616146728 L-15.192290531927148 8.256564779060165 L-15.049979817910177 8.227910842577016 L-14.858253473822408 8.181952603024806 L-14.573822843059258 8.09924183659336 L-14.50160063399195 8.084906111378432 L-14.472236842960472 8.08243047484218 L-14.420323211156173 8.085755250456852 L-14.401465177241619 8.091080413071978 L-14.378197405722025 8.103050296467899 L-14.364225331478638 8.119041686067845 L-14.164164630233781 8.46270163473428 L-14.16417099535996 8.462690981307517 L-13.956348076998493 8.801713221143967 L-13.948887058902285 8.821594785694273 L-13.949372300835709 8.847756433965476 L-13.953619217738378 8.866886162056115 L-13.975291678454893 8.914176581238983 L-13.99138629330844 8.938861077845475 L-14.038234110490201 8.995666381517792 L-14.245851604412266 9.206940683830029 L-14.377175331047649 9.353995876266728 L-14.469844447191617 9.465735852609557 L-14.597649044501756 9.631976683654134 L-14.751046213715995 9.846934583199745 L-14.858498669746874 10.00870988568109 L-14.984375027330113 10.21236230305338 L-15.105134616819448 10.422853191327356 L-15.124396254128982 10.462335311687792 L-15.138743752674749 10.498815692517482 L-15.148220469741828 10.532251670649284 L-15.152831524083009 10.562585161675917 L-15.152632028688409 10.589757322090346 L-15.147629314628245 10.613724035507756 A20 20 0 0 1 -14.791786113707989 11.110747728664153 L-14.775126288840415 11.126430465522933 L-14.753878513533197 11.138594451074308 L-14.72809790077647 11.147180841811256 L-14.697824142320197 11.15216903275903 L-14.663096170814635 11.153488424705579 L-14.623967646032215 11.151116200358734 L-14.580465744918142 11.144997940846322 L-14.342960248618475 11.095194007995099 L-14.11037735633406 11.038410535781637 L-13.923315265732688 10.986208495018433 L-13.671475822464508 10.906744761690739 L-13.47387760429716 10.836566608558241 L-13.338970239923455 10.782962593431197 L-13.15853117760651 10.703508861044469 L-12.89344004171529 10.571340240442215 L-12.824938215839072 10.54433912284267 L-12.796488354982337 10.536660163457942 L-12.744815334988816 10.53066197166797 L-12.725309512936635 10.532534324751301 L-12.700278358867475 10.540157226165201 L-12.68367544873483 10.553396817364602 L-12.425466951963688 10.855811791688273 L-12.42547511704247 10.855802446003628 L-12.160457240064831 11.152268244001077 L-12.14956613316906 11.170498087406463 L-12.145372234386867 11.196325950519865 L-12.146135156741513 11.215906572304702 L-12.159015301695216 11.266306782284143 L-12.170443682402997 11.293468393326163 L-12.20639565725757 11.357725813162755 L-12.372952169266563 11.602676385538896 L-12.475907751062643 11.77081709737583 L-12.547135693185327 11.89730807595125 L-12.64320297145764 12.083697740485924 L-12.755752769999498 12.322591300357656 L-12.832592325189696 12.500953184060908 L-12.920082254656634 12.723808914841767 L-13.001316588468606 12.952479585261313 L-13.013218878530685 12.994766509851287 L-13.020821983350222 13.033222480741426 L-13.024176181245526 13.067813262121426 L-13.023296880080336 13.09848261701293 L-13.018248814070228 13.125182488352646 L-13.009047073756793 13.147870777737353 A20 20 0 0 1 -12.570175412178347 13.57336883867697 L-12.550983056754822 13.585824820906288 L-12.527904778449727 13.593999389425337 L-12.501005311478663 13.597844487170839 L-12.470327388889151 13.5973469275341 L-12.43592192364382 13.592444197554578 L-12.397845787365322 13.583123427945724 L-12.356135437119 13.569335926999969 L-12.131339587453631 13.477924119922195 L-11.912633478407468 13.38052390243841 L-11.73789858686049 13.295759543913942 L-11.50429510452482 13.172605156494527 L-11.322403164121642 13.068272270900554 L-11.199235183084323 12.99144105428133 L-11.035882862466824 12.881045537393739 L-10.798651468672789 12.703667070835532 L-10.736071731034814 12.664868398987617 L-10.709450202289382 12.652232924827302 L-10.659678607485931 12.637104552452149 L-10.640151930466324 12.635463917035011 L-10.614161915735087 12.6384948301433 L-10.595461800905763 12.648557091587435 L-10.287404542149218 12.900007225465714 L-10.287414244748255 12.899999487901177 L-9.97371930177794 13.144380189379117 L-9.95974815521947 13.160372389472967 L-9.951009911079268 13.185036338656872 L-9.948264317933683 13.204438516840748 L-9.95193816866794 13.256328613398594 L-9.958332997670704 13.285094342348602 L-9.982233604144879 13.35473859200474 L-10.102375870901678 13.625492521502615 L-10.173654230747392 13.809314571914703 L-10.221151674182423 13.946491028594178 L-10.28239395204882 14.147038809438879 L-10.35047893678688 14.402189794060181 L-10.394235904608784 14.591405561286466 L-10.4405274076394 14.826301838922292 L-10.479625547445462 15.065802627989271 L-10.483785940864257 15.109535220258662 L-10.484400281912803 15.148730774663164 L-10.481524153956139 15.183364583116417 L-10.475182758747513 15.213384063571752 L-10.465448371117027 15.238753490003171 L-10.452343356055211 15.259434135066362 A20 20 0 0 1 -9.944548930126514 15.59973070600963 L-9.923440902241872 15.608559588091817 L-9.899273875792495 15.612482002220277 L-9.8721201256085 15.61146222236904 L-9.842024052559653 15.605494904123907 L-9.80904691353645 15.594527629993834 L-9.773246964111012 15.578557892327352 L-9.734668769708751 15.557544291573048 L-9.529807690248566 15.427462660962085 L-9.332007758737383 15.292576221339074 L-9.175216189431467 15.177973941280662 L-8.967356876160164 15.015087183112957 L-8.807017370146898 14.87995290984588 L-8.699547492699454 14.782363910253553 L-8.558532191772787 14.644574811611601 L-8.356785352267119 14.427687588960113 L-8.302139067125854 14.378338384100669 L-8.278201508329866 14.361152509700787 L-8.231931038725675 14.337380195076255 L-8.213011110204654 14.332279302530875 L-8.186897575269455 14.330620811292409 L-8.166701292820575 14.337182333619207 L-7.81869648584542 14.529585812855382 L-7.818707414115197 14.529579932102648 L-7.4664178187283285 14.714020940238466 L-7.449815676653047 14.727261494551339 L-7.436813941511353 14.749968810185408 L-7.430648078488315 14.768568942797332 L-7.424997554417676 14.820281135534898 L-7.426153296649592 14.849726428195922 L-7.437234349585802 14.922519084184179 L-7.507100899783456 15.210374116732648 L-7.544411092545334 15.403969313770363 L-7.566651430379685 15.547422284367048 L-7.591100330639225 15.755682410834162 L-7.612532194143494 16.018890057620375 L-7.621800189647956 16.212878157923793 L-7.625405419246072 16.45226522277807 L-7.6211107186627975 16.69489837806996 L-7.6173954969706426 16.738671036519932 L-7.6110013288214216 16.777346397070026 L-7.601987316131799 16.810910073496057 L-7.5903876445394625 16.839314828713274 L-7.5762798065165216 16.86253841599686 L-7.559692722673255 16.88054672379011 A20 20 0 0 1 -6.9992964630583 17.12470439294996 L-6.976951192096497 17.129622407350467 L-6.952472165617617 17.12916659747088 L-6.925936876093783 17.1233147165864 L-6.897389965136524 17.11206943425119 L-6.866901064717336 17.095390113185015 L-6.834527941975788 17.073284687969455 L-6.800321838327922 17.045720381824886 L-6.621979932727026 16.8811498583201 L-6.451443631299919 16.71311255771227 L-6.31763479428109 16.572355767696067 L-6.142200419429904 16.374971953211247 L-6.008566791457604 16.213379619002726 L-5.920249187887707 16.098169427180686 L-5.806103254451429 15.937415401787975 L-5.646325278653694 15.687990356834629 L-5.6013688225766884 15.629676743012501 L-5.580884606565741 15.608492836516845 L-5.539602433125355 15.576840641394893 L-5.521897355172957 15.568443438604705 L-5.496499610532901 15.562148848292503 L-5.475456285599928 15.564998738775541 L-5.098689091241653 15.692171557236854 L-5.098700893938586 15.692167722308152 L-4.719139523595746 15.810740951341797 L-4.700439992510237 15.82080429756371 L-4.683592652832372 15.840825147839825 L-4.674204695842731 15.858025411313408 L-4.659411409460091 15.907897627807177 L-4.655290918414876 15.937076088245421 L-4.653196263654233 16.01067753470834 L-4.6705415288830014 16.306381772713383 L-4.672684374266748 16.503527807453274 L-4.66895278374301 16.648646595458697 L-4.655822498624729 16.857925415726566 L-4.629912403167983 17.12073001434201 L-4.604393545353758 17.313255510564865 L-4.565196626473696 17.549439265404843 L-4.517647120711525 17.787406357671344 L-4.506175694190501 17.829812193043054 L-4.492978530668966 17.866724301828466 L-4.478116351030986 17.898139082050648 L-4.4616312260441555 17.924016159825563 L-4.4436033751507855 17.944347482757582 L-4.424067345048687 17.959104651451135 A20 20 0 0 1 -3.8290808486270804 18.099275990447172 L-3.8062165299825783 18.10012506813661 L-3.782212279526637 18.095305684353548 L-3.7571483167015702 18.084809786702394 L-3.731068089042542 18.068647972904014 L-3.7040473655731905 18.046792692004594 L-3.6761415683171412 18.01926206579478 L-3.647406967739787 17.98603299373943 L-3.501316291584403 17.79226300937533 L-3.363524797286976 17.596475704885783 L-3.2569994186752953 17.43408844395797 L-3.1196285873998297 17.20855165136153 L-3.016995932225641 17.025694966791633 L-2.9506692029799924 16.896566533100312 L-2.867061381254333 16.718014347601812 L-2.754387664772426 16.444068206519013 L-2.720565975248291 16.378664431263047 L-2.7041934815794435 16.354163360856568 L-2.6692264473243235 16.315648612831925 L-2.6533052757137243 16.30422499280385 L-2.629439625778877 16.293496616729755 L-2.6082256081396618 16.292543277544006 L-2.2148056340300215 16.350397996206965 L-2.2148179318057206 16.350396330360063 L-1.8201842012538623 16.399290739148014 L-1.7999882994732421 16.40585343305125 L-1.7798368426184874 16.422544331368325 L-1.7675285283243263 16.437791895083098 L-1.744067948025981 16.484221201259963 L-1.734803659676181 16.51219500974883 L-1.7196006211461785 16.584239635637616 L-1.6838671103098766 16.8782889015835 L-1.6507737355017182 17.072649338256724 L-1.6211901530096882 17.214769706420256 L-1.5709027006809222 17.418340827010283 L-1.4984834180500397 17.672295621419114 L-1.4389979040042622 17.8571705857023 L-1.3582586578701605 18.08255989031478 L-1.2689826271681535 18.308212461410463 L-1.2501236969053677 18.34788851526343 L-1.230547705705762 18.38185098673641 L-1.21031504180163 18.41010717387024 L-1.1894743089013908 18.432624863631432 L-1.1681058750986688 18.44941045676419 L-1.1462488028195206 18.460442178813995 A20 20 0 0 1 -0.5357954251427697 18.49212196547752 L-0.5131469368296275 18.488874816400333 L-0.4903889787570408 18.479846757673982 L-0.46760191901863624 18.465044190042715 L-0.44482661463368234 18.44448529877463 L-0.4221425363991983 18.41815650475266 L-0.39960097991342325 18.386085534527254 L-0.3772614361120451 18.348259706277943 L-0.2681174639376157 18.131518187786476 L-0.16749950877180741 17.914273644475827 L-0.091681401885229 17.735475172815317 L0.003210674268227076 17.48903434019359 L0.0715436586605771 17.29079046955938 L0.11374771793020677 17.15189408810484 L0.16413020376223997 16.961282556655704 L0.2260782349723478 16.67162017382149 L0.24767810101372717 16.60122836828282 L0.25941264692262606 16.574197618527926 L0.286940672740549 16.530058213292147 L0.30056621845380116 16.515975340573274 L0.32213271205781135 16.501157997571635 L0.3428355864213923 16.49643206982295 L0.740263498607481 16.483109190426706 L0.7402511010136459 16.48310974720329 L1.1372733389688703 16.46075382921665 L1.1583164985441297 16.463604940419355 L1.1811243881717883 16.47642942757216 L1.1959574604217396 16.489234222284598 L1.2273312922815716 16.530728342041876 L1.2414416160857125 16.5565983973596 L1.2692644002176185 16.624770629119677 L1.356928182679081 16.907713937654357 L1.424194129383491 17.09304187190594 L1.4786788631610663 17.22759595465777 L1.5645072026058173 17.418916432255322 L1.681108057080296 17.655859106410535 L1.7726483139913498 17.827141505286363 L1.892334861576269 18.034492161970164 L2.020468012134788 18.24057755259247 L2.0461083046035093 18.276248603910282 L2.0714339350168505 18.30616985629328 L2.096386788721764 18.33035927323501 L2.1209132912321875 18.348793837905934 L2.1449355088998354 18.36149419846491 L2.1684111190689226 18.368445905247356 A20 20 0 0 1 2.7747109041595746 18.290615925168787 L2.796415621091734 18.283376915368073 L2.817195827283202 18.270430350934213 L2.836973589085697 18.251796880026095 L2.855711953174062 18.227501690969575 L2.8733303012347005 18.197545612928312 L2.8897831127774936 18.161965086058448 L2.9050095884840816 18.12075825485831 L2.9736988796079107 17.888011452979303 L3.033909351774342 17.65629208921896 L3.0765833305971375 17.466829136820795 L3.125946742223552 17.207405075306443 L3.157783777491126 17.000145739725703 L3.174508693594195 16.855945654492213 L3.1900465089831136 16.659401188548905 L3.1992777942273194 16.363332551282575 L3.2079615993189443 16.29021516600978 L3.2146810395071657 16.261523527444567 L3.233885283487968 16.213178141799958 L3.244777267053513 16.196888651506892 L3.263351439477283 16.17845858317354 L3.2828777631488024 16.170111962068262 L3.6715399533089035 16.086039692918714 L3.671527854365799 16.086042454423524 L4.0581779783255225 15.993154747260895 L4.079392051232303 15.99220263870311 L4.104123309293839 16.000748525122535 L4.121004392352774 16.01069899419476 L4.1592830950036435 16.045924272381974 L4.177785936845048 16.0688590896647 L4.217334219404194 16.130967815674992 L4.354110687392506 16.39371113605563 L4.453387223119481 16.564049975590397 L4.531021924008803 16.686713093999415 L4.6496325571199915 16.85963373103549 L4.806667336035754 17.071948752432657 L4.927320156635389 17.224133428669628 L5.082107181553326 17.406781016710244 L5.244979147081099 17.586675472836944 L5.276576701658909 17.61719502468002 L5.306837984686503 17.64211336430215 L5.335709022942845 17.661458543288155 L5.363132993092294 17.67521748079228 L5.389036900783482 17.683424408739214 L5.413376523415879 17.686072666678427 A20 20 0 0 1 5.996035741962492 17.50123443945622 L6.016099080052769 17.49023623666325 L6.0342336414381155 17.47378727975525 L6.050366431767172 17.45192180065694 L6.06446558911917 17.424671181178407 L6.076451938802868 17.392050632114056 L6.086287198502276 17.354104136009077 L6.093911214656479 17.310840723317977 L6.11993809439525 17.06956931176853 L6.137805869445534 16.830822778569082 L6.1459641434129155 16.63678484061397 L6.148212309846264 16.372715652998888 L6.142530127479962 16.16310233805073 L6.133238347851612 16.018233258425926 L6.113432094626258 15.822072958841192 L6.069649932801288 15.52911395675057 L6.065138572302454 15.4556210446675 L6.066626938433575 15.426190690163017 L6.076890160374409 15.375193184582907 L6.084698504478497 15.357220634336706 L6.099683366537446 15.335770198232185 L6.11740554740779 15.32407115104026 L6.484810092957841 15.17195164404277 L6.484798681535454 15.171956521518771 L6.84864943837883 15.011522512516619 L6.869352586858911 15.00679778575079 L6.895212330371279 15.010790399615733 L6.913598852339883 15.017566726784489 L6.957552116782769 15.045390993977248 L6.9798527801004635 15.06465342932667 L7.029855446744965 15.118702424029985 L7.211348492038928 15.352800969753629 L7.3394447872452 15.50267588411366 L7.437734212081639 15.609505544626657 L7.585314895517917 15.75846852954734 L7.777736371871964 15.939331918705376 L7.923623875232638 16.067527531591264 L8.108536395143542 16.219601607226135 L8.300912336657007 16.36752317301966 L8.337451581941218 16.391910301880188 L8.371675895047492 16.411024832803122 L8.403537178930536 16.424904003863528 L8.432977187753888 16.433545090628577 L8.459930212561618 16.436994808546572 L8.484351552159207 16.435254500453397 A20 20 0 0 1 9.024643057464095 16.149348878795863 L9.042420164518099 16.134944974297756 L9.057326221373227 16.11552230792489 L9.069295519073567 16.091127595125588 L9.078302311171079 16.06179740255697 L9.084271411336601 16.027560833756723 L9.087173005853407 15.988468000023929 L9.086949520302966 15.944538527523012 L9.069477463326889 15.702497167989101 L9.044428256269255 15.464396975368881 L9.017808611743261 15.27202059083765 L8.972869275064578 15.011793678088639 L8.92985050508097 14.80656352818591 L8.894840675163755 14.665681665587606 L8.840326942599432 14.476210285791327 L8.74493852841042 14.195776862251074 L8.727377001159523 14.124270546022254 L8.723586455921456 14.095047391387649 L8.724578787424537 14.04303686766227 L8.729052525462935 14.023958910015715 L8.739966451360905 14.000177540805897 L8.75531488395504 13.985502084530085 L9.089653100499596 13.770224585803893 L9.08964274337043 13.770231422484999 L9.418999670395115 13.547407592698194 L9.438526478221737 13.539062104330092 L9.464683553750982 13.538373119745803 L9.483984556684703 13.541757508280305 L9.532199688835544 13.56128646963715 L9.557581411961452 13.576257412531957 L9.616431335843023 13.620509496766866 L9.836807622633916 13.818439147957028 L9.98960655699357 13.94303303407731 L10.105391602790077 14.030595643505654 L10.277198971956011 14.150813183408443 L10.498822561173407 14.294411842184916 L10.665255802900466 14.39449807924187 L10.874350577267874 14.511110856553124 L11.090047373719337 14.622305211178602 L11.130353908301926 14.639776094669209 L11.167441253903785 14.652472460141597 L11.201268735533976 14.660439535298694 L11.23177855692433 14.663685039686133 L11.258914406454256 14.662266670802868 L11.28263254106843 14.656193731611344 A20 20 0 0 1 11.763190919597761 14.278409957442491 L11.778110424767723 14.261063304581391 L11.789308884160569 14.239291189221905 L11.79672998615573 14.213151308863011 L11.800354927289929 14.18268423972642 L11.800114926146566 14.147932042681473 L11.795989595845558 14.10894934716272 L11.78792579159995 14.06576574424346 L11.727516364196289 13.830733845172798 L11.660355277156128 13.600932729232111 L11.599813291414538 13.41640103341141 L11.509130838880887 13.168380302619639 L11.430158139943206 12.974129583644142 L11.370555504476853 12.841762997054229 L11.283086408792226 12.665070303090632 L11.13915760435706 12.406175819074722 L11.10911035228961 12.338954370539337 L11.10016272692518 12.31087767200946 L11.091852273639505 12.259525791165746 L11.092847615990655 12.23995560737499 L11.099339823169275 12.214607657833659 L11.111821196234892 12.197427473713667 L11.402347178399811 11.925911179198753 L11.402338208450523 11.925919755348403 L11.686615503026157 11.647867846006353 L11.704338362529063 11.63616982689882 L11.729952060145562 11.630821388396734 L11.74954719392919 11.630705061264802 L11.800474519769118 11.641311039899238 L11.828121513237823 11.651509311916659 L11.89392720938103 11.684542187285114 L12.146103662485178 11.839941322095486 L12.318694152524516 11.93524962995992 L12.448253392640936 12.000730853989829 L12.638765417327962 12.088339058226929 L12.882467954898761 12.190057607575389 L13.064097633661373 12.258817614793172 L13.290654184393363 12.336221063168708 L13.522739163268955 12.40711432857746 L13.56551750196411 12.417107438127665 L13.60427586225834 12.42297756651662 L13.638982298542741 12.424776477419531 L13.669581321737047 12.422522086247938 L13.696027827457826 12.41628121810636 L13.718280436726738 12.406070837078936 A20 20 0 0 1 14.123660146789826 11.948551191742075 L14.135242524903774 11.928819326213807 L14.142373459135328 11.90539753556951 L14.145007845101084 11.878352644913727 L14.143134426681305 11.847727935879606 L14.136693038063274 11.813577074797177 L14.125673374454664 11.775957453401514 L14.110028428817262 11.734907676593318 L14.008623239687816 11.514439356606928 L13.90150888526292 11.300323314293095 L13.808990427541584 11.129567307719785 L13.675479467791167 10.901724349245042 L13.563091087422224 10.724696439134673 L13.48081132415183 10.605099499557742 L13.363198194052016 10.446864539994047 L13.175354989570254 10.217830077237842 L13.133787756090666 10.157054049061815 L13.119970634641213 10.131026214828998 L13.10262450137325 10.081983468569735 L13.100109456915012 10.062550060444215 L13.101971280493759 10.03645023452599 L13.111184432430822 10.017317507815335 L13.34856043610375 9.698289174621761 L13.348553141635886 9.69829921459545 L13.578613897610673 9.373956042846281 L13.593963181503023 9.359281476958596 L13.618210255890359 9.34944548775288 L13.637469716801164 9.345832183804244 L13.689472390174537 9.347174294836337 L13.71849605686793 9.352272115122565 L13.789142476053625 9.373024077830685 L14.065013936776785 9.480898040205625 L14.251848782138012 9.543857482379511 L14.391018075995307 9.585152700592536 L14.594111542976165 9.637335769395493 L14.852060228823728 9.693904891445584 L15.043048617301064 9.729128665616287 L15.279785230445759 9.764834974537553 L15.520798989564263 9.793148582848167 L15.564674201368188 9.79534273169467 L15.603857850764449 9.79419795224381 L15.638327748284327 9.789770880415967 L15.668032495500157 9.782089051672513 L15.692939644957669 9.771226270909697 L15.713011511709908 9.757206618093724 A20 20 0 0 1 16.03018331587779 9.234656159438398 L16.038056299773125 9.213173279636477 L16.040890514749833 9.18885460933019 L16.038653513353665 9.161773953415805 L16.031341948589375 9.131975907830602 L16.018906204026855 9.099524019485306 L16.001346388166027 9.064476597797913 L15.978623142562324 9.026880020703269 L15.839481437922181 8.828061313007451 L15.695856559597752 8.636512210095704 L15.574335249252272 8.485020131319564 L15.40228693438465 8.284678005317033 L15.260095127602971 8.13056272676179 L15.157782775820063 8.027579378240533 L15.013805794078875 7.892887954873277 L14.788085624700463 7.701074869459947 L14.736334414894403 7.648697653195533 L14.718091891012081 7.625555239267793 L14.692267596757505 7.580397901810263 L14.686323001088159 7.561725875076992 L14.683494600525295 7.535713042661895 L14.68914341304994 7.515242714939521 L14.865739978159201 7.158956176193512 L14.865734593622964 7.158967357298223 L15.03418446900525 6.798757579552405 L15.046666838673312 6.78157811950647 L15.06876796891012 6.767570716383275 L15.087072742027685 6.760576570179884 L15.138479354224343 6.752611677056768 L15.167946849614149 6.752445197473302 L15.241163357801634 6.760249262364877 L15.53186309040837 6.817130894394666 L15.726937265433353 6.84571790260333 L15.871243597418074 6.861499852708285 L16.080390915558137 6.876580579309402 L16.344295066678438 6.886182095933204 L16.538503640919068 6.886737515972767 L16.77781140694246 6.879599055291779 L17.02000756577903 6.864422983836636 L17.0635694652837 6.8587476502301605 L17.10191900904998 6.850624757092964 L17.13504447693712 6.840113992265523 L17.162900213157812 6.827251626246653 L17.18546747007482 6.8121160715742395 L17.202713467997782 6.794737750146632 A20 20 0 0 1 17.421483203514672 6.223951679869972 L17.425393749011093 6.201408263227403 L17.423840150731603 6.1769743353322415 L17.41680366103899 6.150728308722378 L17.404288949637692 6.122714660289118 L17.386258544193083 6.093004775073876 L17.36272296301007 6.061656006064901 L17.333651761250515 6.028721013606194 L17.161245669972985 5.857942115054872 L16.98572648951332 5.695116497319921 L16.839108121446266 5.567757426400913 L16.63405222586311 5.401355293642368 L16.466627154334464 5.275106038501488 L16.34757061720823 5.1920462505923615 L16.181857322483484 5.08522745659304 L15.92551502017542 4.936800778912099 L15.865243160507092 4.894505821386156 L15.843161563919477 4.874992643988773 L15.809689122743931 4.835172109314439 L15.800506040059515 4.817861598276021 L15.793078322476346 4.792771833201301 L15.794981238106175 4.771621837643246 L15.905122405745018 4.3895284358536415 L15.90511910420383 4.38954039871947 L16.006543981397815 4.005041453615346 L16.015758243209927 3.985909261392344 L16.035003080785522 3.968180653813379 L16.05176483564064 3.9580304629690124 L16.100923135847076 3.9410145639091985 L16.12988735038553 3.935589135246833 L16.203320708758916 3.930194473255041 L16.499505384654714 3.934255552483876 L16.69654904485058 3.9275513167620266 L16.841354290717096 3.917312753897106 L17.049833293124358 3.8948064313349584 L17.311210812959324 3.857131741888029 L17.502397549591812 3.8230009561393774 L17.736584919990825 3.77324716185597 L17.972179094720786 3.715069182058554 L18.014027566633274 3.701706775890889 L18.050310418878816 3.686866845536326 L18.0810267773396 3.670610212339124 L18.106138196283247 3.6529807160718764 L18.125640230454035 3.634058856670612 L18.139506058984423 3.6138804201809833 A20 20 0 0 1 18.252842286546468 3.0132042722260275 L18.252664705494105 2.9903248827024873 L18.246773227885427 2.9665610237653013 L18.23516340846474 2.941993195350506 L18.217847783548002 2.916664325779539 L18.194802229287767 2.890651343850542 L18.166047335726937 2.8640088027497876 L18.131562550155945 2.836793952683645 L17.93143334587089 2.699543837593601 L17.729661194153618 2.570675054362813 L17.56265820335266 2.4715424166316664 L17.331185392258572 2.3444285785800982 L17.143908235539698 2.250103101792044 L17.011934088133415 2.1896364844202667 L16.82981064206692 2.114123563718815 L16.551085259344532 2.013853849316806 L16.484229936975524 1.9830005452646242 L16.45901898836574 1.9677437739746464 L16.418974232069825 1.934539906832387 L16.406847814203683 1.9191472855567326 L16.39505951255488 1.895786993515819 L16.393155370015823 1.8746371083815927 L16.433301112431884 1.479017639869408 L16.433299999999996 1.4790300000000043 L16.46444 1.082600000000004 L16.47009 1.0621300000000045 L16.48586 1.0412500000000042 L16.500539999999997 1.028270000000004 L16.54587 1.0027500000000045 L16.5734 0.9922400000000043 L16.644689999999997 0.9738200000000043 L16.93684 0.9249300000000044 L17.12952 0.8831500000000045 L17.27017 0.8472200000000044 L17.471279999999997 0.7878500000000042 L17.72173 0.7041100000000047 L17.90375 0.6363900000000048 L18.125290000000003 0.5456200000000049 L18.346709999999998 0.44631000000000465 L18.3855 0.42569000000000456 L18.418550000000003 0.40461000000000524 L18.44587 0.3831300000000044 L18.467430000000004 0.36130000000000484 L18.483239999999995 0.3392000000000046 L18.49328 0.31687000000000487 A20 20 0 0 1 18.49754 -0.29438999999999993 Z" id="SvgjsPath1371">
        </path>
        <circle cy="0" cx="0" r="20" id="SvgjsCircle1372">
        </circle>
      </g>
      <g fill="none" stroke-width="0.04" stroke="green" id="SvgjsG1369">
      </g>
      <g fill="none" stroke-width="0.04" stroke="red" id="SvgjsG1370">
      </g>
    </g>
  </g>
</svg>
